Panamera-Bold.ufo
<glyph name="exclam" format="2">
  <advance width="310"/>
  <unicode hex="0021"/>
  <outline>
    <contour>
      <point x="87" y="218" type="line"/>
      <point x="223" y="218" type="line"/>
      <point x="243" y="577" type="line"/>
      <point x="244" y="730" type="line"/>
      <point x="66" y="730" type="line"/>
      <point x="66" y="577" type="line"/>
    </contour>
    <component base="period" xOffset="34"/>
  </outline>
</glyph>
<glyph name="numbersign" format="2">
  <advance width="823.0"/>
  <unicode hex="0023"/>
  <note>
numbersign
</note>
  <outline>
    <contour>
      <point x="580.14" y="169.0" type="line"/>
      <point x="750.0" y="169.0" type="line"/>
      <point x="750.0" y="289.0" type="line"/>
      <point x="620.25" y="289.0" type="line"/>
      <point x="672.06" y="444.0" type="line"/>
      <point x="820.0" y="444.0" type="line"/>
      <point x="820.0" y="564.0" type="line"/>
      <point x="712.16" y="564.0" type="line"/>
      <point x="775.0" y="752.0" type="line"/>
      <point x="619.0" y="752.0" type="line"/>
      <point x="555.92" y="564.0" type="line"/>
      <point x="407.92" y="564.0" type="line"/>
      <point x="471.0" y="752.0" type="line"/>
      <point x="315.0" y="752.0" type="line"/>
      <point x="251.92" y="564.0" type="line"/>
      <point x="81.0" y="564.0" type="line"/>
      <point x="81.0" y="444.0" type="line"/>
      <point x="211.65" y="444.0" type="line"/>
      <point x="159.64" y="289.0" type="line"/>
      <point x="20.99" y="289.0" type="line"/>
      <point x="20.99" y="169.0" type="line"/>
      <point x="119.37" y="169.0" type="line"/>
      <point x="61.99" y="-2.0" type="line"/>
      <point x="217.99" y="-2.0" type="line"/>
      <point x="275.37" y="169.0" type="line"/>
      <point x="423.37" y="169.0" type="line"/>
      <point x="365.99" y="-2.0" type="line"/>
      <point x="522.99" y="-2.0" type="line"/>
    </contour>
    <contour>
      <point x="515.64" y="444.0" type="line"/>
      <point x="463.63" y="289.0" type="line"/>
      <point x="315.63" y="289.0" type="line"/>
      <point x="367.64" y="444.0" type="line"/>
    </contour>
  </outline>
</glyph>
<glyph name="dollar" format="2">
  <advance width="572.0"/>
  <unicode hex="0024"/>
  <note>
dollar
</note>
  <outline>
    <contour>
      <point x="585.98" y="209.99" type="curve"/>
      <point x="586.0" y="320.33"/>
      <point x="472.82" y="372.67"/>
      <point x="385.44" y="405.57" type="curve"/>
      <point x="385.44" y="579.55" type="line"/>
      <point x="403.47" y="564.77"/>
      <point x="413.3" y="541.26"/>
      <point x="416.99" y="507.99" type="curve"/>
      <point x="557.99" y="543.99" type="line"/>
      <point x="549.19" y="627.99"/>
      <point x="475.12" y="683.19"/>
      <point x="385.43" y="701.91" type="curve"/>
      <point x="385.43" y="804.0" type="line"/>
      <point x="334.75" y="804.0" type="line"/>
      <point x="334.75" y="708.49" type="line"/>
      <point x="328.52" y="708.83"/>
      <point x="322.26" y="709.0"/>
      <point x="315.99" y="709.0" type="curve" smooth="yes"/>
      <point x="312.87" y="709.0"/>
      <point x="309.77" y="708.96"/>
      <point x="306.68" y="708.89" type="curve"/>
      <point x="306.68" y="804.0" type="line"/>
      <point x="255.99" y="804.0" type="line"/>
      <point x="255.99" y="704.42" type="line"/>
      <point x="148.18" y="687.33"/>
      <point x="70.99" y="622.92"/>
      <point x="70.99" y="521.0" type="curve" smooth="yes"/>
      <point x="70.99" y="420.17"/>
      <point x="138.66" y="372.15"/>
      <point x="255.99" y="328.22" type="curve"/>
      <point x="255.99" y="118.89" type="line"/>
      <point x="193.87" y="136.47"/>
      <point x="163.95" y="183.29"/>
      <point x="136.99" y="258.0" type="curve"/>
      <point x="11.99" y="195.0" type="line"/>
      <point x="43.31" y="98.43"/>
      <point x="120.04" y="16.25"/>
      <point x="255.99" y="-3.5" type="curve"/>
      <point x="255.99" y="-101.01" type="line"/>
      <point x="306.68" y="-101.01" type="line"/>
      <point x="306.68" y="-7.8" type="line"/>
      <point x="311.39" y="-7.94"/>
      <point x="316.16" y="-8.01"/>
      <point x="320.99" y="-8.01" type="curve" smooth="yes"/>
      <point x="325.63" y="-8.01"/>
      <point x="330.22" y="-7.94"/>
      <point x="334.74" y="-7.82" type="curve"/>
      <point x="334.74" y="-101.01" type="line"/>
      <point x="385.43" y="-101.01" type="line"/>
      <point x="385.43" y="-3.53" type="line"/>
      <point x="517.39" y="15.91"/>
      <point x="585.99" y="97.12"/>
    </contour>
    <contour>
      <point x="315.98" y="598.99" type="curve" smooth="yes"/>
      <point x="322.61" y="598.99"/>
      <point x="328.85" y="598.7"/>
      <point x="334.74" y="598.11" type="curve"/>
      <point x="334.74" y="424.21" type="line"/>
      <point x="324.69" y="428.01"/>
      <point x="315.34" y="431.71"/>
      <point x="306.67" y="435.35" type="curve"/>
      <point x="306.67" y="598.68" type="line"/>
      <point x="309.72" y="598.89"/>
      <point x="312.83" y="598.99"/>
    </contour>
    <contour>
      <point x="220.98" y="520.99" type="curve" smooth="yes"/>
      <point x="220.98" y="547.87"/>
      <point x="234.39" y="569.52"/>
      <point x="255.98" y="583.13" type="curve"/>
      <point x="255.98" y="461.59" type="line"/>
      <point x="232.31" y="477.93"/>
      <point x="220.98" y="496.09"/>
    </contour>
    <contour>
      <point x="320.98" y="110.99" type="curve" smooth="yes"/>
      <point x="316.07" y="110.99"/>
      <point x="311.3" y="111.09"/>
      <point x="306.66" y="111.3" type="curve"/>
      <point x="306.66" y="310.31" type="line"/>
      <point x="316.43" y="306.94"/>
      <point x="325.81" y="303.65"/>
      <point x="334.73" y="300.34" type="curve"/>
      <point x="334.73" y="111.29" type="line"/>
      <point x="330.27" y="111.09"/>
      <point x="325.68" y="110.99"/>
    </contour>
    <contour>
      <point x="385.42" y="120.23" type="curve"/>
      <point x="385.42" y="277.98" type="line"/>
      <point x="417.74" y="259.87"/>
      <point x="436.98" y="237.1"/>
      <point x="436.98" y="199.99" type="curve" smooth="yes"/>
      <point x="436.98" y="157.01"/>
      <point x="418.32" y="132.27"/>
    </contour>
  </outline>
</glyph>
<glyph name="percent" format="2">
  <advance width="845.0"/>
  <unicode hex="0025"/>
  <note>
percent
</note>
  <outline>
    <contour>
      <point x="198.0" y="723.0" type="curve" smooth="yes"/>
      <point x="76.0" y="723.0"/>
      <point x="10.0" y="628.0"/>
      <point x="10.0" y="507.0" type="curve" smooth="yes"/>
      <point x="10.0" y="387.0"/>
      <point x="76.0" y="293.0"/>
      <point x="198.0" y="293.0" type="curve" smooth="yes"/>
      <point x="319.0" y="293.0"/>
      <point x="389.0" y="387.0"/>
      <point x="389.0" y="507.0" type="curve" smooth="yes"/>
      <point x="389.0" y="628.0"/>
      <point x="319.0" y="723.0"/>
    </contour>
    <contour>
      <point x="292.0" y="-38.0" type="line"/>
      <point x="773.0" y="723.0" type="line"/>
      <point x="607.0" y="723.0" type="line"/>
      <point x="127.0" y="-38.0" type="line"/>
    </contour>
    <contour>
      <point x="198.0" y="614.0" type="curve" smooth="yes"/>
      <point x="226.0" y="614.0"/>
      <point x="251.0" y="583.0"/>
      <point x="251.0" y="507.0" type="curve" smooth="yes"/>
      <point x="251.0" y="434.0"/>
      <point x="225.0" y="401.0"/>
      <point x="198.0" y="401.0" type="curve" smooth="yes"/>
      <point x="173.0" y="401.0"/>
      <point x="148.0" y="434.0"/>
      <point x="148.0" y="507.0" type="curve" smooth="yes"/>
      <point x="148.0" y="583.0"/>
      <point x="173.0" y="614.0"/>
    </contour>
    <contour>
      <point x="712.0" y="416.0" type="curve" smooth="yes"/>
      <point x="591.0" y="416.0"/>
      <point x="523.0" y="320.0"/>
      <point x="523.0" y="200.0" type="curve" smooth="yes"/>
      <point x="523.0" y="80.0"/>
      <point x="591.0" y="-16.0"/>
      <point x="712.0" y="-16.0" type="curve" smooth="yes"/>
      <point x="834.0" y="-16.0"/>
      <point x="901.0" y="80.0"/>
      <point x="901.0" y="200.0" type="curve" smooth="yes"/>
      <point x="901.0" y="320.0"/>
      <point x="834.0" y="416.0"/>
    </contour>
    <contour>
      <point x="712.0" y="307.0" type="curve" smooth="yes"/>
      <point x="738.0" y="307.0"/>
      <point x="763.0" y="275.0"/>
      <point x="763.0" y="200.0" type="curve" smooth="yes"/>
      <point x="763.0" y="124.0"/>
      <point x="738.0" y="93.0"/>
      <point x="712.0" y="93.0" type="curve" smooth="yes"/>
      <point x="686.0" y="93.0"/>
      <point x="661.0" y="124.0"/>
      <point x="661.0" y="200.0" type="curve" smooth="yes"/>
      <point x="661.0" y="275.0"/>
      <point x="686.0" y="307.0"/>
    </contour>
  </outline>
</glyph>
<glyph name="ampersand" format="2">
  <advance width="925"/>
  <unicode hex="0026"/>
  <outline>
    <contour>
      <point x="737" y="471" type="curve"/>
      <point x="582" y="471" type="line"/>
      <point x="583" y="277"/>
      <point x="537" y="93"/>
      <point x="343" y="93" type="curve" smooth="yes"/>
      <point x="247" y="93"/>
      <point x="176" y="156"/>
      <point x="176" y="250" type="curve" smooth="yes"/>
      <point x="176" y="432"/>
      <point x="620" y="361"/>
      <point x="620" y="603" type="curve" smooth="yes"/>
      <point x="620" y="693"/>
      <point x="528" y="779"/>
      <point x="399" y="779" type="curve" smooth="yes"/>
      <point x="268" y="779"/>
      <point x="169" y="718"/>
      <point x="169" y="588" type="curve" smooth="yes"/>
      <point x="169" y="418"/>
      <point x="494" y="-14"/>
      <point x="716" y="-14" type="curve" smooth="yes"/>
      <point x="851" y="-14"/>
      <point x="905" y="30"/>
      <point x="905" y="131" type="curve" smooth="yes"/>
      <point x="905" y="181"/>
      <point x="899" y="241"/>
      <point x="821" y="315" type="curve"/>
      <point x="709" y="228" type="line"/>
      <point x="752" y="200"/>
      <point x="770" y="157"/>
      <point x="770" y="135" type="curve" smooth="yes"/>
      <point x="770" y="111"/>
      <point x="757" y="96"/>
      <point x="731" y="96" type="curve" smooth="yes"/>
      <point x="623" y="96"/>
      <point x="315" y="436"/>
      <point x="315" y="588" type="curve" smooth="yes"/>
      <point x="315" y="651"/>
      <point x="359" y="672"/>
      <point x="399" y="672" type="curve" smooth="yes"/>
      <point x="441" y="672"/>
      <point x="475" y="645"/>
      <point x="475" y="593" type="curve" smooth="yes"/>
      <point x="475" y="484"/>
      <point x="20" y="505"/>
      <point x="20" y="250" type="curve" smooth="yes"/>
      <point x="20" y="113"/>
      <point x="155" y="-14"/>
      <point x="343" y="-14" type="curve" smooth="yes"/>
      <point x="606" y="-14"/>
      <point x="740" y="208"/>
    </contour>
  </outline>
</glyph>
<glyph name="quotesingle" format="2">
  <advance width="430.0"/>
  <unicode hex="0027"/>
  <note>
quotesingle
</note>
  <outline>
    <contour>
      <point x="138.0" y="472.0" type="line"/>
      <point x="292.0" y="472.0" type="line"/>
      <point x="304.0" y="756.0" type="line"/>
      <point x="126.0" y="756.0" type="line"/>
    </contour>
  </outline>
</glyph>
<glyph name="parenleft" format="2">
  <advance width="373.0"/>
  <unicode hex="0028"/>
  <note>
parenleft
</note>
  <outline>
    <contour>
      <point x="372.0" y="766.0" type="curve"/>
      <point x="223.0" y="766.0" type="line"/>
      <point x="157.0" y="681.0"/>
      <point x="61.0" y="530.0"/>
      <point x="58.0" y="311.0" type="curve" smooth="yes"/>
      <point x="61.0" y="101.0"/>
      <point x="157.0" y="-49.0"/>
      <point x="222.0" y="-144.0" type="curve"/>
      <point x="371.0" y="-144.0" type="line"/>
      <point x="313.0" y="-64.0"/>
      <point x="231.0" y="88.0"/>
      <point x="228.0" y="309.0" type="curve"/>
      <point x="231.0" y="543.0"/>
      <point x="317.0" y="701.0"/>
    </contour>
  </outline>
</glyph>
<glyph name="parenright" format="2">
  <advance width="373.0"/>
  <unicode hex="0029"/>
  <note>
parenright
</note>
  <outline>
    <contour>
      <point x="150.0" y="766.0" type="curve"/>
      <point x="1.0" y="766.0" type="line"/>
      <point x="56.0" y="701.0"/>
      <point x="142.0" y="543.0"/>
      <point x="145.0" y="309.0" type="curve" smooth="yes"/>
      <point x="142.0" y="88.0"/>
      <point x="60.0" y="-64.0"/>
      <point x="2.0" y="-144.0" type="curve"/>
      <point x="151.0" y="-144.0" type="line"/>
      <point x="216.0" y="-49.0"/>
      <point x="312.0" y="101.0"/>
      <point x="315.0" y="311.0" type="curve"/>
      <point x="312.0" y="530.0"/>
      <point x="216.0" y="681.0"/>
    </contour>
  </outline>
</glyph>
<glyph name="asterisk" format="2">
  <advance width="600.0"/>
  <unicode hex="002A"/>
  <note>
asterisk
</note>
  <outline>
    <contour>
      <point x="339.44" y="523.37" type="line"/>
      <point x="427.0" y="495.0" type="line"/>
      <point x="438.0" y="532.0" type="line"/>
      <point x="350.05" y="560.5" type="line"/>
      <point x="438.0" y="589.0" type="line"/>
      <point x="427.0" y="624.0" type="line"/>
      <point x="337.98" y="595.15" type="line"/>
      <point x="393.0" y="671.0" type="line"/>
      <point x="362.0" y="693.0" type="line"/>
      <point x="307.0" y="617.18" type="line"/>
      <point x="307.0" y="711.0" type="line"/>
      <point x="271.0" y="711.0" type="line"/>
      <point x="271.0" y="616.66" type="line"/>
      <point x="215.0" y="693.0" type="line"/>
      <point x="184.0" y="671.0" type="line"/>
      <point x="238.56" y="596.62" type="line"/>
      <point x="151.0" y="625.0" type="line"/>
      <point x="140.0" y="588.0" type="line"/>
      <point x="227.95" y="559.5" type="line"/>
      <point x="140.0" y="531.0" type="line"/>
      <point x="151.0" y="496.0" type="line"/>
      <point x="240.02" y="524.84" type="line"/>
      <point x="185.0" y="449.0" type="line"/>
      <point x="216.0" y="427.0" type="line"/>
      <point x="271.0" y="502.82" type="line"/>
      <point x="271.0" y="409.0" type="line"/>
      <point x="307.0" y="409.0" type="line"/>
      <point x="307.0" y="503.33" type="line"/>
      <point x="363.0" y="427.0" type="line"/>
      <point x="394.0" y="449.0" type="line"/>
    </contour>
  </outline>
</glyph>
<glyph name="plus" format="2">
  <advance width="600.0"/>
  <unicode hex="002B"/>
  <note>
plus
</note>
  <outline>
    <contour>
      <point x="227.0" y="185.0" type="line"/>
      <point x="227.0" y="-3.0" type="line"/>
      <point x="373.0" y="-3.0" type="line"/>
      <point x="373.0" y="185.0" type="line"/>
      <point x="563.0" y="185.0" type="line"/>
      <point x="563.0" y="301.0" type="line"/>
      <point x="373.0" y="301.0" type="line"/>
      <point x="373.0" y="490.0" type="line"/>
      <point x="227.0" y="490.0" type="line"/>
      <point x="227.0" y="301.0" type="line"/>
      <point x="36.0" y="301.0" type="line"/>
      <point x="36.0" y="185.0" type="line"/>
    </contour>
  </outline>
</glyph>
<glyph name="comma" format="2">
  <advance width="380"/>
  <unicode hex="002C"/>
  <outline>
    <contour>
      <point x="83" y="-169" type="line"/>
      <point x="220" y="-153"/>
      <point x="244" y="-38"/>
      <point x="244" y="0" type="curve" smooth="yes"/>
      <point x="244" y="148" type="line"/>
      <point x="66" y="148" type="line"/>
      <point x="66" y="0" type="line"/>
      <point x="128" y="0" type="line"/>
      <point x="128" y="-8" type="line" smooth="yes"/>
      <point x="127" y="-44"/>
      <point x="121" y="-81"/>
      <point x="83" y="-95" type="curve"/>
    </contour>
  </outline>
</glyph>
<glyph name="period" format="2">
  <advance width="296"/>
  <unicode hex="002E"/>
  <outline>
    <contour>
      <point x="46" y="0" type="line"/>
      <point x="198" y="0" type="line"/>
      <point x="198" y="152" type="line"/>
      <point x="46" y="152" type="line"/>
    </contour>
  </outline>
</glyph>
<glyph name="slash" format="2">
  <advance width="413.0"/>
  <unicode hex="002F"/>
  <note>
slash
</note>
  <outline>
    <contour>
      <point x="157.0" y="-117.0" type="line"/>
      <point x="406.0" y="722.0" type="line"/>
      <point x="286.0" y="722.0" type="line"/>
      <point x="37.0" y="-117.0" type="line"/>
    </contour>
  </outline>
</glyph>
<glyph name="zero" format="2">
  <advance width="694.0"/>
  <unicode hex="0030"/>
  <note>
zero
</note>
  <outline>
    <contour>
      <point x="346.0" y="-12.0" type="curve" smooth="yes"/>
      <point x="550.0" y="-12.0"/>
      <point x="659.0" y="140.0"/>
      <point x="659.0" y="348.0" type="curve" smooth="yes"/>
      <point x="659.0" y="556.0"/>
      <point x="550.0" y="708.0"/>
      <point x="346.0" y="708.0" type="curve" smooth="yes"/>
      <point x="143.0" y="708.0"/>
      <point x="35.0" y="556.0"/>
      <point x="35.0" y="348.0" type="curve" smooth="yes"/>
      <point x="35.0" y="140.0"/>
      <point x="143.0" y="-12.0"/>
    </contour>
    <contour>
      <point x="346.0" y="99.0" type="curve" smooth="yes"/>
      <point x="255.0" y="99.0"/>
      <point x="190.0" y="185.0"/>
      <point x="190.0" y="348.0" type="curve" smooth="yes"/>
      <point x="190.0" y="511.0"/>
      <point x="255.0" y="597.0"/>
      <point x="346.0" y="597.0" type="curve" smooth="yes"/>
      <point x="438.0" y="597.0"/>
      <point x="504.0" y="511.0"/>
      <point x="504.0" y="348.0" type="curve" smooth="yes"/>
      <point x="504.0" y="185.0"/>
      <point x="438.0" y="99.0"/>
    </contour>
  </outline>
</glyph>
<glyph name="one" format="2">
  <advance width="377.0"/>
  <unicode hex="0031"/>
  <note>
one
</note>
  <outline>
    <contour>
      <point x="29.0" y="537.0" type="line"/>
      <point x="174.0" y="537.0" type="line"/>
      <point x="174.0" y="0.0" type="line"/>
      <point x="328.0" y="0.0" type="line"/>
      <point x="328.0" y="700.0" type="line"/>
      <point x="174.0" y="700.0" type="line"/>
      <point x="174.0" y="682.17" type="line"/>
      <point x="170.14" y="647.16"/>
      <point x="142.04" y="628.84"/>
      <point x="93.52" y="628.84" type="curve" smooth="yes"/>
      <point x="74.94" y="628.84"/>
      <point x="53.36" y="631.53"/>
      <point x="29.0" y="637.0" type="curve"/>
    </contour>
  </outline>
</glyph>
<glyph name="two" format="2">
  <advance width="557"/>
  <unicode hex="0032"/>
  <outline>
    <contour>
      <point x="22" y="0" type="line"/>
      <point x="535" y="0" type="line"/>
      <point x="535" y="123" type="line"/>
      <point x="223" y="123" type="line"/>
      <point x="283.74" y="201.66"/>
      <point x="516.01" y="274.38"/>
      <point x="516.01" y="493.19" type="curve" smooth="yes"/>
      <point x="516.01" y="617.58"/>
      <point x="437.18" y="713"/>
      <point x="277.99" y="713" type="curve" smooth="yes"/>
      <point x="140" y="713"/>
      <point x="24" y="629"/>
      <point x="44" y="485" type="curve"/>
      <point x="197" y="500" type="line"/>
      <point x="185" y="560"/>
      <point x="215" y="604"/>
      <point x="278" y="604" type="curve" smooth="yes"/>
      <point x="330" y="604"/>
      <point x="364" y="565"/>
      <point x="363" y="495" type="curve" smooth="yes"/>
      <point x="360" y="303"/>
      <point x="83" y="209"/>
      <point x="23" y="100" type="curve"/>
    </contour>
  </outline>
</glyph>
<glyph name="three" format="2">
  <advance width="603"/>
  <unicode hex="0033"/>
  <outline>
    <contour>
      <point x="302.15" y="-10" type="curve" smooth="yes"/>
      <point x="435.15" y="-10"/>
      <point x="563" y="80"/>
      <point x="563.15" y="220" type="curve" smooth="yes"/>
      <point x="563" y="369"/>
      <point x="459" y="436"/>
      <point x="340" y="424" type="curve"/>
      <point x="348" y="414" type="line"/>
      <point x="541" y="602" type="line"/>
      <point x="541" y="700" type="line"/>
      <point x="74.15" y="700" type="line"/>
      <point x="74.15" y="592" type="line"/>
      <point x="355.15" y="592" type="line"/>
      <point x="180" y="404" type="line"/>
      <point x="245.15" y="326" type="line"/>
      <point x="272" y="337"/>
      <point x="291" y="340"/>
      <point x="312" y="340" type="curve" smooth="yes"/>
      <point x="368" y="340"/>
      <point x="410.15" y="301"/>
      <point x="410.15" y="220" type="curve" smooth="yes"/>
      <point x="410.15" y="137"/>
      <point x="360.15" y="98"/>
      <point x="302.15" y="98" type="curve" smooth="yes"/>
      <point x="231.15" y="98"/>
      <point x="190.15" y="130"/>
      <point x="193.15" y="229" type="curve"/>
      <point x="40.15" y="229" type="line"/>
      <point x="35.15" y="71"/>
      <point x="154.15" y="-10"/>
    </contour>
  </outline>
</glyph>
<glyph name="four" format="2">
  <advance width="630"/>
  <unicode hex="0034"/>
  <outline>
    <contour>
      <point x="333" y="0" type="line"/>
      <point x="487" y="0" type="line"/>
      <point x="487" y="186.19" type="line"/>
      <point x="597" y="186" type="line"/>
      <point x="597" y="301" type="line"/>
      <point x="487" y="301" type="line"/>
      <point x="487" y="700" type="line"/>
      <point x="353" y="700" type="line"/>
      <point x="31" y="290" type="line"/>
      <point x="30" y="187" type="line"/>
      <point x="333" y="186.46" type="line"/>
    </contour>
    <contour>
      <point x="194" y="301" type="line"/>
      <point x="333" y="484" type="line"/>
      <point x="333" y="301" type="line"/>
    </contour>
  </outline>
</glyph>
<glyph name="five" format="2">
  <advance width="600.0"/>
  <unicode hex="0035"/>
  <note>
five
</note>
  <outline>
    <contour>
      <point x="315.0" y="461.0" type="curve" smooth="yes"/>
      <point x="285.0" y="461.0"/>
      <point x="261.0" y="457.0"/>
      <point x="237.0" y="447.0" type="curve"/>
      <point x="237.0" y="576.0" type="line"/>
      <point x="534.0" y="576.0" type="line"/>
      <point x="534.0" y="700.0" type="line"/>
      <point x="103.0" y="700.0" type="line"/>
      <point x="103.0" y="308.0" type="line"/>
      <point x="228.0" y="308.0" type="line"/>
      <point x="248.0" y="340.0"/>
      <point x="278.0" y="351.0"/>
      <point x="304.0" y="351.0" type="curve" smooth="yes"/>
      <point x="363.0" y="351.0"/>
      <point x="417.0" y="316.0"/>
      <point x="417.0" y="224.0" type="curve" smooth="yes"/>
      <point x="417.0" y="142.0"/>
      <point x="362.0" y="98.0"/>
      <point x="304.0" y="98.0" type="curve" smooth="yes"/>
      <point x="244.0" y="98.0"/>
      <point x="192.0" y="140.0"/>
      <point x="196.0" y="229.0" type="curve"/>
      <point x="44.0" y="229.0" type="line"/>
      <point x="37.0" y="84.0"/>
      <point x="168.0" y="-10.0"/>
      <point x="304.0" y="-10.0" type="curve" smooth="yes"/>
      <point x="437.0" y="-10.0"/>
      <point x="570.0" y="85.0"/>
      <point x="570.0" y="224.0" type="curve" smooth="yes"/>
      <point x="570.0" y="392.0"/>
      <point x="442.0" y="461.0"/>
    </contour>
  </outline>
</glyph>
<glyph name="six" format="2">
  <advance width="547"/>
  <unicode hex="0036"/>
  <outline>
    <contour>
      <point x="273" y="-10" type="curve" smooth="yes"/>
      <point x="406" y="-10"/>
      <point x="534" y="80"/>
      <point x="534" y="220" type="curve" smooth="yes"/>
      <point x="534" y="343"/>
      <point x="432" y="429"/>
      <point x="316" y="447" type="curve" smooth="yes"/>
      <point x="308" y="448"/>
      <point x="300" y="449"/>
      <point x="292.18" y="449.3" type="curve"/>
      <point x="448" y="700" type="line"/>
      <point x="272" y="700" type="line"/>
      <point x="66" y="368" type="line" smooth="yes"/>
      <point x="32" y="314"/>
      <point x="11" y="271"/>
      <point x="11" y="220" type="curve" smooth="yes"/>
      <point x="11" y="81"/>
      <point x="140" y="-10"/>
    </contour>
    <contour>
      <point x="272" y="99" type="curve" smooth="yes"/>
      <point x="214" y="99"/>
      <point x="165" y="137"/>
      <point x="165" y="220" type="curve" smooth="yes"/>
      <point x="165" y="302"/>
      <point x="215" y="341"/>
      <point x="273" y="341" type="curve" smooth="yes"/>
      <point x="331" y="341"/>
      <point x="380" y="303"/>
      <point x="380" y="220" type="curve" smooth="yes"/>
      <point x="380" y="138"/>
      <point x="330" y="99"/>
    </contour>
  </outline>
</glyph>
<glyph name="seven" format="2">
  <advance width="504.0"/>
  <unicode hex="0037"/>
  <note>
seven
</note>
  <outline>
    <contour>
      <point x="28.0" y="576.0" type="line"/>
      <point x="293.77" y="576.0" type="line"/>
      <point x="14.0" y="0.0" type="line"/>
      <point x="186.0" y="0.0" type="line"/>
      <point x="514.44" y="696.69" type="line"/>
      <point x="517.0" y="700.0" type="line"/>
      <point x="28.0" y="700.0" type="line"/>
    </contour>
  </outline>
</glyph>
<glyph name="eight" format="2">
  <advance width="568.0"/>
  <unicode hex="0038"/>
  <note>
eight
</note>
  <outline>
    <contour>
      <point x="447.92" y="395.24" type="curve"/>
      <point x="484.3" y="426.26"/>
      <point x="508.84" y="468.96"/>
      <point x="508.84" y="521.68" type="curve" smooth="yes"/>
      <point x="508.84" y="639.85"/>
      <point x="386.63" y="708.53"/>
      <point x="283.61" y="708.53" type="curve" smooth="yes"/>
      <point x="180.59" y="708.53"/>
      <point x="59.39" y="640.86"/>
      <point x="59.39" y="522.69" type="curve" smooth="yes"/>
      <point x="59.39" y="470.13"/>
      <point x="83.98" y="427.33"/>
      <point x="120.4" y="396.11" type="curve"/>
      <point x="60.81" y="357.48"/>
      <point x="20.0" y="296.74"/>
      <point x="20.0" y="220.7" type="curve" smooth="yes"/>
      <point x="20.0" y="84.35"/>
      <point x="150.29" y="-3.52"/>
      <point x="284.62" y="-3.52" type="curve" smooth="yes"/>
      <point x="418.95" y="-3.52"/>
      <point x="548.23" y="83.34"/>
      <point x="548.23" y="219.69" type="curve" smooth="yes"/>
      <point x="548.23" y="295.44"/>
      <point x="507.41" y="356.32"/>
    </contour>
    <contour>
      <point x="214.23" y="521.67" type="curve" smooth="yes"/>
      <point x="214.23" y="582.87"/>
      <point x="251.98" y="603.27"/>
      <point x="284.62" y="603.27" type="curve" smooth="yes"/>
      <point x="317.27" y="603.27"/>
      <point x="353.99" y="583.89"/>
      <point x="353.99" y="522.69" type="curve" smooth="yes"/>
      <point x="353.99" y="470.66"/>
      <point x="321.35" y="442.1"/>
      <point x="283.6" y="442.1" type="curve" smooth="yes"/>
      <point x="245.86" y="442.1"/>
      <point x="214.23" y="470.66"/>
    </contour>
    <contour>
      <point x="283.6" y="101.36" type="curve" smooth="yes"/>
      <point x="224.43" y="101.36"/>
      <point x="174.45" y="139.1"/>
      <point x="174.45" y="219.69" type="curve" smooth="yes"/>
      <point x="174.45" y="299.26"/>
      <point x="225.45" y="338.03"/>
      <point x="284.62" y="338.03" type="curve" smooth="yes"/>
      <point x="343.78" y="338.03"/>
      <point x="393.77" y="300.28"/>
      <point x="393.77" y="220.71" type="curve" smooth="yes"/>
      <point x="393.77" y="139.1"/>
      <point x="342.76" y="101.36"/>
    </contour>
  </outline>
</glyph>
<glyph name="nine" format="2">
  <advance width="600.0"/>
  <unicode hex="0039"/>
  <note>
nine
</note>
  <outline>
    <contour>
      <point x="572.0" y="490.0" type="curve" smooth="yes"/>
      <point x="572.0" y="624.0"/>
      <point x="443.0" y="712.0"/>
      <point x="310.0" y="712.0" type="curve" smooth="yes"/>
      <point x="177.0" y="712.0"/>
      <point x="49.0" y="625.0"/>
      <point x="49.0" y="491.0" type="curve" smooth="yes"/>
      <point x="49.0" y="359.39"/>
      <point x="171.59" y="273.4"/>
      <point x="300.98" y="269.16" type="curve"/>
      <point x="134.0" y="0.0" type="line"/>
      <point x="310.0" y="0.0" type="line"/>
      <point x="393.0" y="140.0"/>
      <point x="498.0" y="270.0"/>
      <point x="560.0" y="421.0" type="curve" smooth="yes"/>
      <point x="569.0" y="443.0"/>
      <point x="572.0" y="465.44"/>
    </contour>
    <contour>
      <point x="203.0" y="490.0" type="curve" smooth="yes"/>
      <point x="203.0" y="569.0"/>
      <point x="253.0" y="607.0"/>
      <point x="311.0" y="607.0" type="curve" smooth="yes"/>
      <point x="369.0" y="607.0"/>
      <point x="418.0" y="569.0"/>
      <point x="418.0" y="491.0" type="curve" smooth="yes"/>
      <point x="418.0" y="412.0"/>
      <point x="368.0" y="374.0"/>
      <point x="310.0" y="374.0" type="curve" smooth="yes"/>
      <point x="252.0" y="374.0"/>
      <point x="203.0" y="411.0"/>
    </contour>
  </outline>
</glyph>
<glyph name="colon" format="2">
  <advance width="270"/>
  <unicode hex="003A"/>
  <outline>
    <contour>
      <point x="45.36" y="-1" type="line"/>
      <point x="224.79" y="-1" type="line"/>
      <point x="224.79" y="148.18" type="line"/>
      <point x="45.36" y="148.18" type="line"/>
    </contour>
    <contour>
      <point x="46" y="398" type="line"/>
      <point x="224" y="398" type="line"/>
      <point x="224" y="546" type="line"/>
      <point x="46" y="546" type="line"/>
    </contour>
  </outline>
</glyph>
<glyph name="semicolon" format="2">
  <advance width="385.0"/>
  <unicode hex="003B"/>
  <note>
semicolon
</note>
  <outline>
    <contour>
      <point x="71.0" y="386.0" type="line"/>
      <point x="249.0" y="386.0" type="line"/>
      <point x="249.0" y="534.0" type="line"/>
      <point x="71.0" y="534.0" type="line"/>
    </contour>
    <contour>
      <point x="249.0" y="2.0" type="curve" smooth="yes"/>
      <point x="249.0" y="150.0" type="line"/>
      <point x="71.0" y="150.0" type="line"/>
      <point x="71.0" y="2.0" type="line"/>
      <point x="133.0" y="2.0" type="line"/>
      <point x="133.0" y="-36.0"/>
      <point x="129.0" y="-78.0"/>
      <point x="88.0" y="-93.0" type="curve"/>
      <point x="88.0" y="-167.0" type="line"/>
      <point x="225.0" y="-151.0"/>
      <point x="249.0" y="-36.0"/>
    </contour>
  </outline>
</glyph>
<glyph name="less" format="2">
  <advance width="600.0"/>
  <unicode hex="003C"/>
  <note>
less
</note>
  <outline>
    <contour>
      <point x="5.0" y="327.0" type="line"/>
      <point x="574.0" y="14.0" type="line"/>
      <point x="574.0" y="165.0" type="line"/>
      <point x="254.0" y="327.0" type="line"/>
      <point x="574.0" y="489.0" type="line"/>
      <point x="574.0" y="639.0" type="line"/>
    </contour>
  </outline>
</glyph>
<glyph name="equal" format="2">
  <advance width="600.0"/>
  <unicode hex="003D"/>
  <note>
equal
</note>
  <outline>
    <contour>
      <point x="576.0" y="416.0" type="line"/>
      <point x="21.0" y="416.0" type="line"/>
      <point x="21.0" y="299.0" type="line"/>
      <point x="576.0" y="299.0" type="line"/>
    </contour>
    <contour>
      <point x="576.0" y="231.0" type="line"/>
      <point x="21.0" y="231.0" type="line"/>
      <point x="21.0" y="114.0" type="line"/>
      <point x="576.0" y="114.0" type="line"/>
    </contour>
  </outline>
</glyph>
<glyph name="greater" format="2">
  <advance width="600.0"/>
  <unicode hex="003E"/>
  <note>
greater
</note>
  <outline>
    <contour>
      <point x="597.0" y="327.0" type="line"/>
      <point x="28.0" y="639.0" type="line"/>
      <point x="28.0" y="489.0" type="line"/>
      <point x="348.0" y="327.0" type="line"/>
      <point x="28.0" y="165.0" type="line"/>
      <point x="28.0" y="14.0" type="line"/>
    </contour>
  </outline>
</glyph>
<glyph name="question" format="2">
  <advance width="513"/>
  <unicode hex="003F"/>
  <outline>
    <contour>
      <point x="270" y="188" type="curve" smooth="yes"/>
      <point x="353" y="188"/>
      <point x="417" y="232"/>
      <point x="442" y="311" type="curve"/>
      <point x="303" y="355" type="line"/>
      <point x="308" y="323"/>
      <point x="301" y="282"/>
      <point x="270" y="282" type="curve" smooth="yes"/>
      <point x="247" y="282"/>
      <point x="235" y="298"/>
      <point x="235" y="321" type="curve" smooth="yes"/>
      <point x="235" y="409"/>
      <point x="493" y="397"/>
      <point x="493" y="573" type="curve" smooth="yes"/>
      <point x="493" y="654"/>
      <point x="420" y="720"/>
      <point x="275" y="720" type="curve" smooth="yes"/>
      <point x="169" y="720"/>
      <point x="64" y="661"/>
      <point x="40" y="572" type="curve"/>
      <point x="167" y="478" type="line"/>
      <point x="159" y="575"/>
      <point x="226" y="623"/>
      <point x="285" y="623" type="curve" smooth="yes"/>
      <point x="336" y="623"/>
      <point x="356" y="588"/>
      <point x="356" y="561" type="curve" smooth="yes"/>
      <point x="356" y="469"/>
      <point x="113" y="471"/>
      <point x="113" y="321" type="curve" smooth="yes"/>
      <point x="113" y="229"/>
      <point x="198" y="188"/>
    </contour>
    <component base="period" xOffset="153"/>
  </outline>
</glyph>
<glyph name="at" format="2">
  <advance width="968.0"/>
  <unicode hex="0040"/>
  <note>
at
</note>
  <outline>
    <contour>
      <point x="451.0" y="298.01" type="curve" smooth="yes"/>
      <point x="286.0" y="281.0"/>
      <point x="226.0" y="216.0"/>
      <point x="226.0" y="143.0" type="curve" smooth="yes"/>
      <point x="226.0" y="54.0"/>
      <point x="302.0" y="-15.0"/>
      <point x="434.0" y="-15.0" type="curve" smooth="yes"/>
      <point x="509.59" y="-15.0"/>
      <point x="562.36" y="10.77"/>
      <point x="596.91" y="47.8" type="curve"/>
      <point x="625.94" y="11.05"/>
      <point x="674.02" y="-15.0"/>
      <point x="738.0" y="-15.0" type="curve" smooth="yes"/>
      <point x="881.0" y="-15.0"/>
      <point x="950.0" y="98.0"/>
      <point x="950.0" y="233.0" type="curve" smooth="yes"/>
      <point x="950.0" y="481.0"/>
      <point x="765.0" y="694.0"/>
      <point x="484.0" y="694.0" type="curve" smooth="yes"/>
      <point x="203.0" y="694.0"/>
      <point x="18.0" y="481.0"/>
      <point x="18.0" y="233.0" type="curve" smooth="yes"/>
      <point x="18.0" y="-12.0"/>
      <point x="204.0" y="-223.0"/>
      <point x="484.0" y="-223.0" type="curve" smooth="yes"/>
      <point x="612.0" y="-223.0"/>
      <point x="728.0" y="-187.0"/>
      <point x="801.0" y="-118.0" type="curve"/>
      <point x="698.0" y="-20.0" type="line"/>
      <point x="639.0" y="-81.0"/>
      <point x="574.0" y="-100.0"/>
      <point x="484.0" y="-100.0" type="curve" smooth="yes"/>
      <point x="305.0" y="-100.0"/>
      <point x="185.0" y="36.0"/>
      <point x="185.0" y="233.0" type="curve" smooth="yes"/>
      <point x="185.0" y="433.0"/>
      <point x="306.0" y="572.0"/>
      <point x="484.0" y="572.0" type="curve" smooth="yes"/>
      <point x="663.0" y="572.0"/>
      <point x="783.0" y="433.0"/>
      <point x="783.0" y="233.0" type="curve" smooth="yes"/>
      <point x="783.0" y="128.0"/>
      <point x="758.0" y="102.0"/>
      <point x="745.0" y="102.0" type="curve" smooth="yes"/>
      <point x="726.0" y="102.0"/>
      <point x="718.0" y="111.0"/>
      <point x="718.0" y="137.0" type="curve" smooth="yes"/>
      <point x="718.0" y="302.0" type="line" smooth="yes"/>
      <point x="718.0" y="381.0"/>
      <point x="699.0" y="512.0"/>
      <point x="491.0" y="512.0" type="curve" smooth="yes"/>
      <point x="368.74" y="512.0"/>
      <point x="266.39" y="439.53"/>
      <point x="266.39" y="356.42" type="curve" smooth="yes"/>
      <point x="266.39" y="346.4"/>
      <point x="267.88" y="336.23"/>
      <point x="271.0" y="326.01" type="curve"/>
      <point x="431.0" y="325.01" type="line"/>
      <point x="428.0" y="332.01"/>
      <point x="433.0" y="405.01"/>
      <point x="491.0" y="405.01" type="curve" smooth="yes"/>
      <point x="529.45" y="405.01"/>
      <point x="548.05" y="389.85"/>
      <point x="556.99" y="363.87" type="curve"/>
      <point x="560.78" y="335.41"/>
      <point x="525.45" y="306.12"/>
    </contour>
    <contour>
      <point x="448.01" y="79.01" type="curve" smooth="yes"/>
      <point x="399.0" y="79.01"/>
      <point x="385.0" y="115.01"/>
      <point x="385.0" y="147.01" type="curve" smooth="yes"/>
      <point x="385.0" y="188.01"/>
      <point x="414.0" y="207.01"/>
      <point x="462.0" y="213.01" type="curve" smooth="yes"/>
      <point x="498.33" y="217.12"/>
      <point x="533.71" y="225.58"/>
      <point x="564.46" y="238.62" type="curve"/>
      <point x="568.37" y="122.35"/>
      <point x="508.6" y="79.01"/>
    </contour>
  </outline>
</glyph>
<glyph name="A" format="2">
  <advance width="813"/>
  <unicode hex="0041"/>
  <anchor x="406" y="0" name="bottom"/>
  <anchor x="611" y="0" name="ogonek"/>
  <anchor x="407" y="700" name="top"/>
  <outline>
    <contour>
      <point x="40" y="0" type="line"/>
      <point x="202" y="0" type="line"/>
      <point x="292" y="219" type="line"/>
      <point x="230" y="177" type="line"/>
      <point x="583" y="177" type="line"/>
      <point x="521" y="219" type="line"/>
      <point x="611" y="0" type="line"/>
      <point x="773" y="0" type="line"/>
      <point x="489" y="700" type="line"/>
      <point x="324" y="700" type="line"/>
    </contour>
    <contour>
      <point x="303" y="246" type="line"/>
      <point x="424" y="540" type="line"/>
      <point x="389" y="540" type="line"/>
      <point x="510" y="246" type="line"/>
      <point x="538" y="288" type="line"/>
      <point x="275" y="288" type="line"/>
    </contour>
  </outline>
</glyph>
<glyph name="B" format="2">
  <advance width="630"/>
  <unicode hex="0042"/>
  <outline>
    <contour>
      <point x="49.99" y="0" type="line"/>
      <point x="314.99" y="0" type="line" smooth="yes"/>
      <point x="474.99" y="0"/>
      <point x="599.99" y="77"/>
      <point x="599.99" y="225" type="curve" smooth="yes"/>
      <point x="599.99" y="339.38"/>
      <point x="533.02" y="393.99"/>
      <point x="444.84" y="418.73" type="curve"/>
      <point x="472.41" y="447.79"/>
      <point x="487.99" y="485.07"/>
      <point x="487.99" y="528" type="curve" smooth="yes"/>
      <point x="487.99" y="657"/>
      <point x="372.99" y="700"/>
      <point x="259.99" y="700" type="curve" smooth="yes"/>
      <point x="49.99" y="700" type="line"/>
    </contour>
    <contour>
      <point x="202.99" y="115" type="line"/>
      <point x="202.99" y="351.76" type="line"/>
      <point x="294.58" y="352" type="line" smooth="yes"/>
      <point x="394.57" y="352"/>
      <point x="446" y="315.59"/>
      <point x="446" y="225" type="curve" smooth="yes"/>
      <point x="446" y="144"/>
      <point x="387.26" y="115"/>
      <point x="297.26" y="115" type="curve" smooth="yes"/>
    </contour>
    <contour>
      <point x="202.99" y="438" type="line"/>
      <point x="202.99" y="585" type="line"/>
      <point x="259.99" y="585" type="line" smooth="yes"/>
      <point x="310.99" y="585"/>
      <point x="344.99" y="564"/>
      <point x="344.99" y="508" type="curve" smooth="yes"/>
      <point x="344.99" y="462"/>
      <point x="310.99" y="438"/>
      <point x="256.99" y="438" type="curve" smooth="yes"/>
    </contour>
  </outline>
</glyph>
<glyph name="C" format="2">
  <advance width="745.0"/>
  <unicode hex="0043"/>
  <note>
C
</note>
  <outline>
    <contour>
      <point x="414.0" y="705.0" type="curve" smooth="yes"/>
      <point x="194.0" y="705.0"/>
      <point x="50.0" y="538.0"/>
      <point x="50.0" y="348.0" type="curve" smooth="yes"/>
      <point x="50.0" y="160.0"/>
      <point x="196.0" y="-5.0"/>
      <point x="414.0" y="-5.0" type="curve" smooth="yes"/>
      <point x="554.0" y="-5.0"/>
      <point x="669.0" y="61.0"/>
      <point x="723.0" y="151.0" type="curve"/>
      <point x="587.0" y="217.0" type="line"/>
      <point x="545.0" y="142.0"/>
      <point x="487.0" y="110.0"/>
      <point x="414.0" y="110.0" type="curve" smooth="yes"/>
      <point x="299.0" y="110.0"/>
      <point x="214.0" y="206.0"/>
      <point x="214.0" y="348.0" type="curve" smooth="yes"/>
      <point x="214.0" y="492.0"/>
      <point x="300.0" y="590.0"/>
      <point x="414.0" y="590.0" type="curve" smooth="yes"/>
      <point x="489.0" y="590.0"/>
      <point x="548.0" y="556.0"/>
      <point x="590.0" y="477.0" type="curve"/>
      <point x="725.0" y="545.0" type="line"/>
      <point x="670.0" y="637.0"/>
      <point x="555.0" y="705.0"/>
    </contour>
  </outline>
</glyph>
<glyph name="D" format="2">
  <advance width="690.0"/>
  <unicode hex="0044"/>
  <note>
D
</note>
  <outline>
    <contour>
      <point x="260.0" y="700.0" type="curve" smooth="yes"/>
      <point x="50.0" y="700.0" type="line"/>
      <point x="50.0" y="0.0" type="line"/>
      <point x="275.0" y="0.0" type="line" smooth="yes"/>
      <point x="496.0" y="0.0"/>
      <point x="655.0" y="109.0"/>
      <point x="655.0" y="351.0" type="curve" smooth="yes"/>
      <point x="655.0" y="599.0"/>
      <point x="474.0" y="700.0"/>
    </contour>
    <contour>
      <point x="275.0" y="115.0" type="curve" smooth="yes"/>
      <point x="203.65" y="115.0" type="line"/>
      <point x="203.93" y="585.0" type="line"/>
      <point x="260.0" y="585.0" type="line" smooth="yes"/>
      <point x="401.49" y="585.0"/>
      <point x="496.0" y="528.0"/>
      <point x="496.0" y="351.0" type="curve" smooth="yes"/>
      <point x="496.0" y="176.0"/>
      <point x="423.0" y="115.0"/>
    </contour>
  </outline>
</glyph>
<glyph name="E" format="2">
  <advance width="669"/>
  <unicode hex="0045"/>
  <anchor x="353" y="0" name="bottom"/>
  <anchor x="512" y="0" name="ogonek"/>
  <anchor x="353" y="700" name="top"/>
  <outline>
    <contour>
      <point x="50" y="0" type="line"/>
      <point x="629" y="0" type="line"/>
      <point x="629" y="124" type="line"/>
      <point x="204" y="124" type="line"/>
      <point x="204" y="296" type="line"/>
      <point x="609" y="296" type="line"/>
      <point x="609" y="420" type="line"/>
      <point x="204" y="420" type="line"/>
      <point x="204" y="576" type="line"/>
      <point x="619" y="576" type="line"/>
      <point x="619" y="700" type="line"/>
      <point x="50" y="700" type="line"/>
    </contour>
  </outline>
</glyph>
<glyph name="F" format="2">
  <advance width="669.0"/>
  <unicode hex="0046"/>
  <note>
F
</note>
  <outline>
    <contour>
      <point x="214.0" y="296.0" type="line"/>
      <point x="619.0" y="296.0" type="line"/>
      <point x="619.0" y="420.0" type="line"/>
      <point x="214.0" y="420.0" type="line"/>
      <point x="214.0" y="576.0" type="line"/>
      <point x="629.0" y="576.0" type="line"/>
      <point x="629.0" y="700.0" type="line"/>
      <point x="60.0" y="700.0" type="line"/>
      <point x="60.0" y="0.0" type="line"/>
      <point x="214.0" y="0.0" type="line"/>
    </contour>
  </outline>
</glyph>
<glyph name="G" format="2">
  <advance width="806.0"/>
  <unicode hex="0047"/>
  <note>
G
</note>
  <outline>
    <contour>
      <point x="602.0" y="163.0" type="curve"/>
      <point x="602.0" y="0.0" type="line"/>
      <point x="746.0" y="0.0" type="line"/>
      <point x="746.0" y="411.0" type="line"/>
      <point x="380.0" y="411.0" type="line"/>
      <point x="380.0" y="296.0" type="line"/>
      <point x="593.0" y="296.0" type="line"/>
      <point x="593.0" y="293.0" type="line" smooth="yes"/>
      <point x="592.0" y="198.0"/>
      <point x="546.0" y="110.0"/>
      <point x="416.0" y="110.0" type="curve" smooth="yes"/>
      <point x="287.0" y="110.0"/>
      <point x="213.0" y="205.0"/>
      <point x="213.0" y="348.0" type="curve" smooth="yes"/>
      <point x="213.0" y="492.0"/>
      <point x="302.0" y="590.0"/>
      <point x="416.0" y="590.0" type="curve" smooth="yes"/>
      <point x="491.0" y="590.0"/>
      <point x="547.0" y="556.0"/>
      <point x="589.0" y="477.0" type="curve"/>
      <point x="724.0" y="545.0" type="line"/>
      <point x="669.0" y="637.0"/>
      <point x="558.0" y="705.0"/>
      <point x="416.0" y="705.0" type="curve" smooth="yes"/>
      <point x="197.0" y="705.0"/>
      <point x="50.0" y="538.0"/>
      <point x="50.0" y="348.0" type="curve" smooth="yes"/>
      <point x="50.0" y="160.0"/>
      <point x="177.0" y="-5.0"/>
      <point x="411.0" y="-5.0" type="curve" smooth="yes"/>
      <point x="532.0" y="-5.0"/>
      <point x="602.0" y="76.0"/>
    </contour>
  </outline>
</glyph>
<glyph name="H" format="2">
  <advance width="733.0"/>
  <unicode hex="0048"/>
  <note>
H
</note>
  <outline>
    <contour>
      <point x="204.0" y="304.0" type="line"/>
      <point x="529.0" y="304.0" type="line"/>
      <point x="529.0" y="0.0" type="line"/>
      <point x="683.0" y="0.0" type="line"/>
      <point x="683.0" y="700.0" type="line"/>
      <point x="529.0" y="700.0" type="line"/>
      <point x="529.0" y="429.0" type="line"/>
      <point x="204.0" y="429.0" type="line"/>
      <point x="204.0" y="700.0" type="line"/>
      <point x="50.0" y="700.0" type="line"/>
      <point x="50.0" y="0.0" type="line"/>
      <point x="204.0" y="0.0" type="line"/>
    </contour>
  </outline>
</glyph>
<glyph name="I" format="2">
  <advance width="294"/>
  <unicode hex="0049"/>
  <anchor x="147" y="0" name="bottom"/>
  <anchor x="70" y="0" name="ogonek"/>
  <anchor x="147" y="700" name="top"/>
  <outline>
    <contour>
      <point x="70" y="0" type="line"/>
      <point x="224" y="0" type="line"/>
      <point x="224" y="700" type="line"/>
      <point x="70" y="700" type="line"/>
    </contour>
  </outline>
</glyph>
<glyph name="J" format="2">
  <advance width="617.0"/>
  <unicode hex="004A"/>
  <note>
J
</note>
  <outline>
    <contour>
      <point x="537.0" y="257.0" type="curve" smooth="yes"/>
      <point x="536.0" y="700.0" type="line"/>
      <point x="382.0" y="700.0" type="line"/>
      <point x="382.0" y="239.0" type="line" smooth="yes"/>
      <point x="379.0" y="141.0"/>
      <point x="329.0" y="100.0"/>
      <point x="268.0" y="100.0" type="curve" smooth="yes"/>
      <point x="185.0" y="100.0"/>
      <point x="173.0" y="146.0"/>
      <point x="151.0" y="208.0" type="curve"/>
      <point x="24.0" y="120.0" type="line"/>
      <point x="52.0" y="53.0"/>
      <point x="129.0" y="-12.0"/>
      <point x="268.0" y="-12.0" type="curve" smooth="yes"/>
      <point x="421.0" y="-12.0"/>
      <point x="541.0" y="82.0"/>
    </contour>
  </outline>
</glyph>
<glyph name="K" format="2">
  <advance width="679"/>
  <unicode hex="004B"/>
  <anchor x="349" y="0" name="bottom"/>
  <anchor x="349" y="700" name="top"/>
  <outline>
    <contour>
      <point x="50" y="0" type="line"/>
      <point x="204" y="0" type="line"/>
      <point x="204" y="238" type="line"/>
      <point x="274" y="314" type="line"/>
      <point x="481" y="0" type="line"/>
      <point x="654" y="0" type="line"/>
      <point x="374" y="425" type="line"/>
      <point x="626" y="700" type="line"/>
      <point x="449" y="700" type="line"/>
      <point x="204" y="433" type="line"/>
      <point x="204" y="700" type="line"/>
      <point x="50" y="700" type="line"/>
    </contour>
  </outline>
</glyph>
<glyph name="L" format="2">
  <advance width="615"/>
  <unicode hex="004C"/>
  <anchor x="336" y="0" name="bottom"/>
  <anchor x="336" y="700" name="top"/>
  <outline>
    <contour>
      <point x="50" y="0" type="line"/>
      <point x="585" y="0" type="line"/>
      <point x="585" y="124" type="line"/>
      <point x="203" y="124" type="line"/>
      <point x="203" y="700" type="line"/>
      <point x="50" y="700" type="line"/>
    </contour>
  </outline>
</glyph>
<glyph name="M" format="2">
  <advance width="934"/>
  <unicode hex="004D"/>
  <anchor x="467" y="0" name="bottom"/>
  <anchor x="467" y="700" name="top"/>
  <outline>
    <contour>
      <point x="50" y="0" type="line"/>
      <point x="204" y="0" type="line"/>
      <point x="204" y="407" type="line"/>
      <point x="385" y="0" type="line"/>
      <point x="549" y="0" type="line"/>
      <point x="730" y="409" type="line"/>
      <point x="730" y="0" type="line"/>
      <point x="884" y="0" type="line"/>
      <point x="884" y="700" type="line"/>
      <point x="691" y="701" type="line"/>
      <point x="467" y="181" type="line"/>
      <point x="243" y="701" type="line"/>
      <point x="50" y="700" type="line"/>
    </contour>
  </outline>
</glyph>
<glyph name="N" format="2">
  <advance width="679.0"/>
  <unicode hex="004E"/>
  <note>
N
</note>
  <outline>
    <contour>
      <point x="204.0" y="0.0" type="line"/>
      <point x="204.0" y="436.0" type="line"/>
      <point x="477.0" y="0.0" type="line"/>
      <point x="629.0" y="0.0" type="line"/>
      <point x="629.0" y="700.0" type="line"/>
      <point x="475.0" y="700.0" type="line"/>
      <point x="475.0" y="272.0" type="line"/>
      <point x="204.0" y="700.0" type="line"/>
      <point x="50.0" y="700.0" type="line"/>
      <point x="50.0" y="0.0" type="line"/>
    </contour>
  </outline>
</glyph>
<glyph name="O" format="2">
  <advance width="828"/>
  <unicode hex="004F"/>
  <anchor x="414" y="0" name="bottom"/>
  <anchor x="380" y="0" name="ogonek"/>
  <anchor x="414" y="700" name="top"/>
  <outline>
    <contour>
      <point x="414" y="-5" type="curve" smooth="yes"/>
      <point x="634" y="-5"/>
      <point x="778" y="160"/>
      <point x="778" y="348" type="curve" smooth="yes"/>
      <point x="778" y="538"/>
      <point x="634" y="705"/>
      <point x="414" y="705" type="curve" smooth="yes"/>
      <point x="194" y="705"/>
      <point x="50" y="538"/>
      <point x="50" y="348" type="curve" smooth="yes"/>
      <point x="50" y="160"/>
      <point x="195" y="-5"/>
    </contour>
    <contour>
      <point x="414" y="110" type="curve" smooth="yes"/>
      <point x="289" y="110"/>
      <point x="204" y="206"/>
      <point x="204" y="348" type="curve" smooth="yes"/>
      <point x="204" y="492"/>
      <point x="290" y="590"/>
      <point x="414" y="590" type="curve" smooth="yes"/>
      <point x="539" y="590"/>
      <point x="624" y="492"/>
      <point x="624" y="348" type="curve" smooth="yes"/>
      <point x="624" y="206"/>
      <point x="539" y="110"/>
    </contour>
  </outline>
</glyph>
<glyph name="P" format="2">
  <advance width="520.0"/>
  <unicode hex="0050"/>
  <note>
P
</note>
  <outline>
    <contour>
      <point x="273.0" y="700.0" type="curve" smooth="yes"/>
      <point x="50.0" y="700.0" type="line"/>
      <point x="50.0" y="0.0" type="line"/>
      <point x="204.0" y="0.0" type="line"/>
      <point x="204.0" y="297.0" type="line"/>
      <point x="267.0" y="297.0" type="line" smooth="yes"/>
      <point x="382.0" y="297.0"/>
      <point x="509.0" y="349.0"/>
      <point x="509.0" y="499.0" type="curve" smooth="yes"/>
      <point x="509.0" y="647.0"/>
      <point x="377.0" y="700.0"/>
    </contour>
    <contour>
      <point x="267.0" y="409.0" type="curve" smooth="yes"/>
      <point x="204.0" y="409.0" type="line"/>
      <point x="204.0" y="585.0" type="line"/>
      <point x="270.0" y="585.0" type="line" smooth="yes"/>
      <point x="324.0" y="585.0"/>
      <point x="365.0" y="563.0"/>
      <point x="365.0" y="499.0" type="curve" smooth="yes"/>
      <point x="365.0" y="434.0"/>
      <point x="324.0" y="409.0"/>
    </contour>
  </outline>
</glyph>
<glyph name="Q" format="2">
  <advance width="836.0"/>
  <unicode hex="0051"/>
  <note>
Q
</note>
  <outline>
    <contour>
      <point x="588.0" y="44.0" type="curve"/>
      <point x="636.0" y="0.0" type="line"/>
      <point x="829.0" y="0.0" type="line"/>
      <point x="686.0" y="132.0" type="line"/>
      <point x="732.0" y="192.0"/>
      <point x="758.0" y="268.0"/>
      <point x="758.0" y="348.0" type="curve" smooth="yes"/>
      <point x="758.0" y="538.0"/>
      <point x="614.0" y="705.0"/>
      <point x="404.0" y="705.0" type="curve" smooth="yes"/>
      <point x="194.0" y="705.0"/>
      <point x="50.0" y="538.0"/>
      <point x="50.0" y="348.0" type="curve" smooth="yes"/>
      <point x="50.0" y="160.0"/>
      <point x="195.0" y="-5.0"/>
      <point x="404.0" y="-5.0" type="curve" smooth="yes"/>
      <point x="474.0" y="-5.0"/>
      <point x="536.0" y="13.0"/>
    </contour>
    <contour>
      <point x="404.0" y="110.0" type="curve" smooth="yes"/>
      <point x="289.0" y="110.0"/>
      <point x="204.0" y="206.0"/>
      <point x="204.0" y="348.0" type="curve" smooth="yes"/>
      <point x="204.0" y="492.0"/>
      <point x="290.0" y="590.0"/>
      <point x="404.0" y="590.0" type="curve" smooth="yes"/>
      <point x="519.0" y="590.0"/>
      <point x="604.0" y="492.0"/>
      <point x="604.0" y="348.0" type="curve" smooth="yes"/>
      <point x="604.0" y="303.0"/>
      <point x="595.0" y="263.0"/>
      <point x="580.0" y="229.0" type="curve"/>
      <point x="484.0" y="317.0" type="line"/>
      <point x="296.0" y="317.0" type="line"/>
      <point x="494.0" y="132.0" type="line"/>
      <point x="467.0" y="118.0"/>
      <point x="437.0" y="110.0"/>
    </contour>
  </outline>
</glyph>
<glyph name="R" format="2">
  <advance width="682.0"/>
  <unicode hex="0052"/>
  <note>
R
</note>
  <outline>
    <contour>
      <point x="298.77" y="316.09" type="curve"/>
      <point x="499.0" y="0.0" type="line"/>
      <point x="672.0" y="0.0" type="line"/>
      <point x="448.39" y="352.46" type="line"/>
      <point x="501.94" y="382.52"/>
      <point x="539.0" y="432.61"/>
      <point x="539.0" y="508.0" type="curve" smooth="yes"/>
      <point x="539.0" y="647.0"/>
      <point x="413.0" y="700.0"/>
      <point x="290.0" y="700.0" type="curve" smooth="yes"/>
      <point x="50.0" y="700.0" type="line"/>
      <point x="50.0" y="0.0" type="line"/>
      <point x="204.0" y="0.0" type="line"/>
      <point x="204.0" y="316.0" type="line"/>
      <point x="290.0" y="316.0" type="line" smooth="yes"/>
      <point x="292.92" y="316.0"/>
      <point x="295.85" y="316.03"/>
    </contour>
    <contour>
      <point x="289.99" y="431.0" type="curve" smooth="yes"/>
      <point x="203.99" y="431.0" type="line"/>
      <point x="203.99" y="585.0" type="line"/>
      <point x="289.99" y="585.0" type="line" smooth="yes"/>
      <point x="351.99" y="585.0"/>
      <point x="384.99" y="564.0"/>
      <point x="384.99" y="508.0" type="curve" smooth="yes"/>
      <point x="384.99" y="452.0"/>
      <point x="351.99" y="431.0"/>
    </contour>
  </outline>
</glyph>
<glyph name="S" format="2">
  <advance width="612.0"/>
  <unicode hex="0053"/>
  <note>
S
</note>
  <outline>
    <contour>
      <point x="316.0" y="709.0" type="curve" smooth="yes"/>
      <point x="178.0" y="709.0"/>
      <point x="71.0" y="641.0"/>
      <point x="71.0" y="521.0" type="curve" smooth="yes"/>
      <point x="71.0" y="410.0"/>
      <point x="153.0" y="363.0"/>
      <point x="293.0" y="315.0" type="curve" smooth="yes"/>
      <point x="378.0" y="286.0"/>
      <point x="437.0" y="265.0"/>
      <point x="437.0" y="200.0" type="curve" smooth="yes"/>
      <point x="437.0" y="134.0"/>
      <point x="393.0" y="111.0"/>
      <point x="321.0" y="111.0" type="curve" smooth="yes"/>
      <point x="212.0" y="111.0"/>
      <point x="172.0" y="161.0"/>
      <point x="137.0" y="258.0" type="curve"/>
      <point x="12.0" y="195.0" type="line"/>
      <point x="48.0" y="84.0"/>
      <point x="144.0" y="-8.0"/>
      <point x="321.0" y="-8.0" type="curve" smooth="yes"/>
      <point x="495.0" y="-8.0"/>
      <point x="586.0" y="80.0"/>
      <point x="586.0" y="210.0" type="curve" smooth="yes"/>
      <point x="586.0" y="342.0"/>
      <point x="424.0" y="391.0"/>
      <point x="338.0" y="423.0" type="curve" smooth="yes"/>
      <point x="258.0" y="453.0"/>
      <point x="221.0" y="476.0"/>
      <point x="221.0" y="521.0" type="curve" smooth="yes"/>
      <point x="221.0" y="568.0"/>
      <point x="262.0" y="599.0"/>
      <point x="316.0" y="599.0" type="curve" smooth="yes"/>
      <point x="381.0" y="599.0"/>
      <point x="410.0" y="571.0"/>
      <point x="417.0" y="508.0" type="curve"/>
      <point x="558.0" y="544.0" type="line"/>
      <point x="547.0" y="649.0"/>
      <point x="434.0" y="709.0"/>
    </contour>
  </outline>
</glyph>
<glyph name="T" format="2">
  <advance width="717"/>
  <unicode hex="0054"/>
  <anchor x="359" y="0" name="bottom"/>
  <anchor x="360" y="700" name="top"/>
  <outline>
    <contour>
      <point x="282" y="0" type="line"/>
      <point x="436" y="0" type="line"/>
      <point x="436" y="576" type="line"/>
      <point x="692" y="576" type="line"/>
      <point x="692" y="700" type="line"/>
      <point x="25" y="700" type="line"/>
      <point x="25" y="576" type="line"/>
      <point x="282" y="576" type="line"/>
    </contour>
  </outline>
</glyph>
<glyph name="U" format="2">
  <advance width="622"/>
  <unicode hex="0055"/>
  <anchor x="311" y="0" name="bottom"/>
  <anchor x="341" y="0" name="ogonek"/>
  <anchor x="311" y="700" name="top"/>
  <outline>
    <contour>
      <point x="311" y="-12" type="curve" smooth="yes"/>
      <point x="469" y="-12"/>
      <point x="589" y="69"/>
      <point x="589" y="228" type="curve"/>
      <point x="588" y="700" type="line"/>
      <point x="435" y="700" type="line"/>
      <point x="435" y="228" type="line" smooth="yes"/>
      <point x="435" y="133"/>
      <point x="386" y="100"/>
      <point x="311" y="100" type="curve" smooth="yes"/>
      <point x="236" y="100"/>
      <point x="187" y="133"/>
      <point x="187" y="228" type="curve" smooth="yes"/>
      <point x="187" y="700" type="line"/>
      <point x="34" y="700" type="line"/>
      <point x="33" y="228" type="line" smooth="yes"/>
      <point x="33" y="69"/>
      <point x="153" y="-12"/>
    </contour>
  </outline>
</glyph>
<glyph name="V" format="2">
  <advance width="629"/>
  <unicode hex="0056"/>
  <outline>
    <contour>
      <point x="233" y="0" type="line"/>
      <point x="395" y="0" type="line"/>
      <point x="635" y="700" type="line"/>
      <point x="482" y="700" type="line"/>
      <point x="300" y="168" type="line"/>
      <point x="329" y="168" type="line"/>
      <point x="147" y="700" type="line"/>
      <point x="-6" y="700" type="line"/>
    </contour>
  </outline>
</glyph>
<glyph name="W" format="2">
  <advance width="802.0"/>
  <unicode hex="0057"/>
  <note>
W
</note>
  <outline>
    <contour>
      <point x="302.0" y="0.0" type="line"/>
      <point x="399.0" y="403.19" type="line"/>
      <point x="496.0" y="0.0" type="line"/>
      <point x="645.0" y="0.0" type="line"/>
      <point x="805.0" y="700.0" type="line"/>
      <point x="651.0" y="700.0" type="line"/>
      <point x="565.05" y="298.92" type="line"/>
      <point x="467.51" y="687.96" type="line"/>
      <point x="468.0" y="690.0" type="line"/>
      <point x="330.0" y="690.0" type="line"/>
      <point x="330.97" y="685.94" type="line"/>
      <point x="234.07" y="301.68" type="line"/>
      <point x="151.0" y="700.0" type="line"/>
      <point x="-3.0" y="700.0" type="line"/>
      <point x="153.0" y="0.0" type="line"/>
    </contour>
  </outline>
</glyph>
<glyph name="X" format="2">
  <advance width="753.0"/>
  <unicode hex="0058"/>
  <note>
X
</note>
  <outline>
    <contour>
      <point x="289.11" y="374.58" type="line"/>
      <point x="-5.0" y="0.0" type="line"/>
      <point x="176.0" y="0.0" type="line"/>
      <point x="379.03" y="257.57" type="line"/>
      <point x="577.0" y="0.0" type="line"/>
      <point x="758.0" y="0.0" type="line"/>
      <point x="473.32" y="368.34" type="line"/>
      <point x="736.0" y="700.0" type="line"/>
      <point x="554.0" y="700.0" type="line"/>
      <point x="383.74" y="484.24" type="line"/>
      <point x="217.0" y="700.0" type="line"/>
      <point x="39.0" y="700.0" type="line"/>
    </contour>
  </outline>
</glyph>
<glyph name="Y" format="2">
  <advance width="703"/>
  <unicode hex="0059"/>
  <anchor x="352" y="0" name="bottom"/>
  <anchor x="352" y="700" name="top"/>
  <outline>
    <contour>
      <point x="274" y="0" type="line"/>
      <point x="428" y="0" type="line"/>
      <point x="428" y="307" type="line"/>
      <point x="683" y="700" type="line"/>
      <point x="525" y="700" type="line"/>
      <point x="351" y="421" type="line"/>
      <point x="178" y="700" type="line"/>
      <point x="20" y="700" type="line"/>
      <point x="274" y="307" type="line"/>
    </contour>
  </outline>
</glyph>
<glyph name="Z" format="2">
  <advance width="589"/>
  <unicode hex="005A"/>
  <anchor x="295" y="0" name="bottom"/>
  <anchor x="295" y="700" name="top"/>
  <outline>
    <contour>
      <point x="10" y="0" type="line"/>
      <point x="575" y="0" type="line"/>
      <point x="575" y="125" type="line"/>
      <point x="202" y="125" type="line"/>
      <point x="579" y="576" type="line"/>
      <point x="579" y="700" type="line"/>
      <point x="32" y="700" type="line"/>
      <point x="32" y="576" type="line"/>
      <point x="386" y="576" type="line"/>
      <point x="10" y="125" type="line"/>
    </contour>
  </outline>
</glyph>
<glyph name="backslash" format="2">
  <advance width="600"/>
  <unicode hex="005C"/>
  <outline>
    <contour>
      <point x="343" y="-117" type="line"/>
      <point x="463" y="-117" type="line"/>
      <point x="214" y="722" type="line"/>
      <point x="94" y="722" type="line"/>
    </contour>
  </outline>
</glyph>
<glyph name="bracketright" format="2">
  <advance width="500"/>
  <unicode hex="005D"/>
  <outline>
    <contour>
      <point x="126" y="-148" type="line"/>
      <point x="424" y="-148" type="line"/>
      <point x="424" y="811" type="line"/>
      <point x="126" y="811" type="line"/>
      <point x="126" y="683" type="line"/>
      <point x="263" y="683" type="line"/>
      <point x="263" y="-20" type="line"/>
      <point x="126" y="-20" type="line"/>
    </contour>
  </outline>
</glyph>
<glyph name="asciicircum" format="2">
  <advance width="600"/>
  <unicode hex="005E"/>
  <outline>
    <contour>
      <point x="59" y="233" type="line"/>
      <point x="202" y="233" type="line"/>
      <point x="304" y="437.65" type="line"/>
      <point x="406" y="233" type="line"/>
      <point x="549" y="233" type="line"/>
      <point x="304" y="714.28" type="line"/>
    </contour>
  </outline>
</glyph>
<glyph name="underscore" format="2">
  <advance width="600"/>
  <unicode hex="005F"/>
  <outline>
    <contour>
      <point x="-8" y="-185" type="line"/>
      <point x="602" y="-185" type="line"/>
      <point x="602" y="-59" type="line"/>
      <point x="-8" y="-59" type="line"/>
    </contour>
  </outline>
</glyph>
<glyph name="grave" format="2">
  <advance width="600.0"/>
  <unicode hex="0060"/>
  <note>
grave
</note>
  <outline>
    <contour>
      <point x="427.0" y="591.0" type="line"/>
      <point x="214.0" y="790.0" type="line"/>
      <point x="137.0" y="662.0" type="line"/>
      <point x="309.0" y="555.0" type="line"/>
    </contour>
  </outline>
</glyph>
<glyph name="a" format="2">
  <advance width="568"/>
  <unicode hex="0061"/>
  <anchor x="293" y="0" name="bottom"/>
  <anchor x="365" y="0" name="ogonek"/>
  <anchor x="293" y="500" name="top"/>
  <outline>
    <contour>
      <point x="220" y="-13.01" type="curve" smooth="yes"/>
      <point x="292.57" y="-13.01"/>
      <point x="337.9" y="15.92"/>
      <point x="365.18" y="57.4" type="curve"/>
      <point x="365" y="-0.01" type="line"/>
      <point x="518" y="-0.01" type="line"/>
      <point x="518" y="300.99" type="line" smooth="yes"/>
      <point x="518" y="378.99"/>
      <point x="499" y="508.99"/>
      <point x="292" y="508.99" type="curve" smooth="yes"/>
      <point x="171.21" y="509"/>
      <point x="69.64" y="440.96"/>
      <point x="69.64" y="358.59" type="curve" smooth="yes"/>
      <point x="69.64" y="348.9"/>
      <point x="71.05" y="339"/>
      <point x="74" y="329" type="curve"/>
      <point x="221.75" y="329" type="line"/>
      <point x="221.4" y="330.05"/>
      <point x="220.99" y="333.07"/>
      <point x="220.99" y="337.35" type="curve" smooth="yes"/>
      <point x="220.99" y="357.81"/>
      <point x="230" y="407"/>
      <point x="300.91" y="407.02" type="curve" smooth="yes"/>
      <point x="339" y="407"/>
      <point x="365" y="391"/>
      <point x="365" y="357" type="curve" smooth="yes"/>
      <point x="365" y="318"/>
      <point x="319.63" y="303.23"/>
      <point x="253" y="296.99" type="curve" smooth="yes"/>
      <point x="89.12" y="281.65"/>
      <point x="30" y="224.56"/>
      <point x="30" y="142.99" type="curve" smooth="yes"/>
      <point x="30" y="55.99"/>
      <point x="90" y="-13.01"/>
    </contour>
    <contour>
      <point x="253" y="81" type="curve" smooth="yes"/>
      <point x="204" y="81"/>
      <point x="181" y="116"/>
      <point x="181" y="148" type="curve" smooth="yes"/>
      <point x="181" y="188"/>
      <point x="219" y="207"/>
      <point x="266" y="213" type="curve" smooth="yes"/>
      <point x="302" y="217"/>
      <point x="337" y="226"/>
      <point x="368" y="239" type="curve"/>
      <point x="368" y="229" type="line" smooth="yes"/>
      <point x="368" y="120"/>
      <point x="311" y="81"/>
    </contour>
  </outline>
</glyph>
<glyph name="b" format="2">
  <advance width="638"/>
  <unicode hex="0062"/>
  <outline>
    <contour>
      <point x="36" y="-0.01" type="line"/>
      <point x="188" y="-0.01" type="line"/>
      <point x="188" y="26" type="line"/>
      <point x="168" y="252" type="line"/>
      <point x="188" y="490" type="line"/>
      <point x="188" y="700" type="line"/>
      <point x="35" y="700" type="line"/>
    </contour>
    <contour>
      <point x="354" y="-9" type="curve" smooth="yes"/>
      <point x="513" y="-9"/>
      <point x="618" y="111"/>
      <point x="618" y="252" type="curve" smooth="yes"/>
      <point x="618" y="394"/>
      <point x="513" y="512"/>
      <point x="354" y="512" type="curve" smooth="yes"/>
      <point x="201" y="512"/>
      <point x="161" y="425"/>
      <point x="161" y="252" type="curve" smooth="yes"/>
      <point x="161" y="78"/>
      <point x="192" y="-9"/>
    </contour>
    <contour>
      <point x="326" y="102" type="curve" smooth="yes"/>
      <point x="237" y="102"/>
      <point x="180" y="153"/>
      <point x="180" y="252" type="curve" smooth="yes"/>
      <point x="180" y="350"/>
      <point x="237" y="402"/>
      <point x="326" y="402" type="curve" smooth="yes"/>
      <point x="409" y="402"/>
      <point x="457" y="341"/>
      <point x="457" y="252" type="curve" smooth="yes"/>
      <point x="457" y="162"/>
      <point x="409" y="102"/>
    </contour>
  </outline>
</glyph>
<glyph name="c" format="2">
  <advance width="599.0"/>
  <unicode hex="0063"/>
  <note>
c
</note>
  <outline>
    <contour>
      <point x="432.0" y="302.68" type="curve"/>
      <point x="565.0" y="365.0" type="line"/>
      <point x="537.0" y="452.0"/>
      <point x="448.0" y="511.0"/>
      <point x="318.0" y="511.0" type="curve" smooth="yes"/>
      <point x="154.0" y="511.0"/>
      <point x="30.0" y="413.0"/>
      <point x="30.0" y="245.0" type="curve" smooth="yes"/>
      <point x="30.0" y="78.0"/>
      <point x="165.0" y="-12.0"/>
      <point x="312.0" y="-12.0" type="curve" smooth="yes"/>
      <point x="445.0" y="-12.0"/>
      <point x="534.7" y="39.35"/>
      <point x="581.11" y="149.62" type="curve"/>
      <point x="447.13" y="202.82" type="line"/>
      <point x="428.39" y="135.82"/>
      <point x="395.44" y="94.0"/>
      <point x="312.0" y="94.0" type="curve" smooth="yes"/>
      <point x="222.0" y="94.0"/>
      <point x="174.0" y="157.03"/>
      <point x="174.0" y="245.0" type="curve" smooth="yes"/>
      <point x="174.0" y="350.0"/>
      <point x="238.0" y="406.0"/>
      <point x="318.0" y="406.0" type="curve" smooth="yes"/>
      <point x="374.99" y="406.0"/>
      <point x="432.0" y="366.54"/>
    </contour>
  </outline>
</glyph>
<glyph name="d" format="2">
  <advance width="638"/>
  <unicode hex="0064"/>
  <anchor x="353" y="0" name="bottom"/>
  <anchor x="721" y="500" name="top"/>
  <outline>
    <contour>
      <point x="602" y="0" type="line"/>
      <point x="603" y="700" type="line"/>
      <point x="450" y="700" type="line"/>
      <point x="450" y="490" type="line"/>
      <point x="470" y="252" type="line"/>
      <point x="450" y="26" type="line"/>
      <point x="450" y="0" type="line"/>
    </contour>
    <contour>
      <point x="284" y="-9" type="curve" smooth="yes"/>
      <point x="446" y="-9"/>
      <point x="477" y="78"/>
      <point x="477" y="252" type="curve" smooth="yes"/>
      <point x="477" y="425"/>
      <point x="437" y="512"/>
      <point x="284" y="512" type="curve" smooth="yes"/>
      <point x="125" y="512"/>
      <point x="20" y="394"/>
      <point x="20" y="252" type="curve" smooth="yes"/>
      <point x="20" y="111"/>
      <point x="125" y="-9"/>
    </contour>
    <contour>
      <point x="314" y="102" type="curve" smooth="yes"/>
      <point x="232" y="102"/>
      <point x="183" y="162"/>
      <point x="183" y="252" type="curve" smooth="yes"/>
      <point x="183" y="341"/>
      <point x="231" y="402"/>
      <point x="314" y="402" type="curve" smooth="yes"/>
      <point x="407" y="402"/>
      <point x="460" y="345"/>
      <point x="460" y="252" type="curve" smooth="yes"/>
      <point x="460" y="153"/>
      <point x="403" y="102"/>
    </contour>
  </outline>
</glyph>
<glyph name="e" format="2">
  <advance width="593"/>
  <unicode hex="0065"/>
  <anchor x="302" y="0" name="bottom"/>
  <anchor x="326" y="0" name="ogonek"/>
  <anchor x="308" y="500" name="top"/>
  <outline>
    <contour>
      <point x="166" y="308" type="line"/>
      <point x="161" y="215" type="line"/>
      <point x="538" y="215" type="line"/>
      <point x="544" y="242"/>
      <point x="547" y="267"/>
      <point x="547" y="291" type="curve" smooth="yes"/>
      <point x="547" y="426"/>
      <point x="450" y="511"/>
      <point x="293" y="511" type="curve" smooth="yes"/>
      <point x="138" y="511"/>
      <point x="30" y="413"/>
      <point x="30" y="255" type="curve" smooth="yes"/>
      <point x="30" y="78"/>
      <point x="142" y="-12"/>
      <point x="303" y="-12" type="curve" smooth="yes"/>
      <point x="415" y="-12"/>
      <point x="518" y="35"/>
      <point x="553" y="128" type="curve"/>
      <point x="430" y="186" type="line"/>
      <point x="412" y="132"/>
      <point x="376" y="93"/>
      <point x="313" y="93" type="curve" smooth="yes"/>
      <point x="217" y="93"/>
      <point x="176" y="150"/>
      <point x="176" y="254" type="curve" smooth="yes"/>
      <point x="176" y="365"/>
      <point x="238" y="406"/>
      <point x="297" y="406" type="curve" smooth="yes"/>
      <point x="358" y="406"/>
      <point x="395" y="376"/>
      <point x="395" y="326" type="curve" smooth="yes"/>
      <point x="395" y="320"/>
      <point x="394" y="314"/>
      <point x="393" y="308" type="curve"/>
    </contour>
  </outline>
</glyph>
<glyph name="f" format="2">
  <advance width="397"/>
  <unicode hex="0066"/>
  <outline>
    <contour>
      <point x="94" y="0" type="line"/>
      <point x="246" y="0" type="line"/>
      <point x="246" y="385" type="line"/>
      <point x="402" y="385" type="line"/>
      <point x="402" y="501" type="line"/>
      <point x="274" y="501" type="line" smooth="yes"/>
      <point x="218" y="501"/>
      <point x="188" y="538"/>
      <point x="188" y="572" type="curve" smooth="yes"/>
      <point x="188" y="616"/>
      <point x="215" y="644"/>
      <point x="267" y="644" type="curve" smooth="yes"/>
      <point x="325" y="644"/>
      <point x="343" y="593"/>
      <point x="352" y="577" type="curve"/>
      <point x="482" y="632" type="line"/>
      <point x="466" y="657"/>
      <point x="396" y="738"/>
      <point x="267" y="738" type="curve" smooth="yes"/>
      <point x="126" y="738"/>
      <point x="48" y="674"/>
      <point x="48" y="586" type="curve" smooth="yes"/>
      <point x="48" y="533"/>
      <point x="79" y="509"/>
      <point x="93" y="501" type="curve"/>
      <point x="7" y="501" type="line"/>
      <point x="7" y="385" type="line"/>
      <point x="95" y="385" type="line"/>
    </contour>
  </outline>
</glyph>
<glyph name="g" format="2">
  <advance width="653.0"/>
  <unicode hex="0067"/>
  <note>
g
</note>
  <outline>
    <contour>
      <point x="603.0" y="8.0" type="curve"/>
      <point x="602.0" y="500.0" type="line"/>
      <point x="450.0" y="500.0" type="line"/>
      <point x="450.0" y="453.53" type="line"/>
      <point x="412.85" y="486.81"/>
      <point x="361.89" y="509.0"/>
      <point x="294.0" y="509.0" type="curve" smooth="yes"/>
      <point x="134.0" y="509.0"/>
      <point x="30.0" y="389.0"/>
      <point x="30.0" y="248.0" type="curve" smooth="yes"/>
      <point x="30.0" y="106.0"/>
      <point x="135.0" y="-12.0"/>
      <point x="294.0" y="-12.0" type="curve" smooth="yes"/>
      <point x="361.89" y="-12.0"/>
      <point x="412.85" y="10.05"/>
      <point x="450.0" y="43.15" type="curve"/>
      <point x="450.0" y="8.0" type="line" smooth="yes"/>
      <point x="450.0" y="-95.0"/>
      <point x="398.0" y="-149.0"/>
      <point x="317.0" y="-149.0" type="curve" smooth="yes"/>
      <point x="241.0" y="-149.0"/>
      <point x="215.0" y="-112.0"/>
      <point x="196.0" y="-58.0" type="curve"/>
      <point x="51.0" y="-86.0" type="line"/>
      <point x="70.0" y="-170.0"/>
      <point x="151.0" y="-260.0"/>
      <point x="317.0" y="-260.0" type="curve" smooth="yes"/>
      <point x="485.0" y="-260.0"/>
      <point x="603.0" y="-159.0"/>
    </contour>
    <contour>
      <point x="314.0" y="98.0" type="curve" smooth="yes"/>
      <point x="231.0" y="98.0"/>
      <point x="183.0" y="159.0"/>
      <point x="183.0" y="248.0" type="curve" smooth="yes"/>
      <point x="183.0" y="338.0"/>
      <point x="231.0" y="398.0"/>
      <point x="314.0" y="398.0" type="curve" smooth="yes"/>
      <point x="403.0" y="398.0"/>
      <point x="460.0" y="347.0"/>
      <point x="460.0" y="248.0" type="curve" smooth="yes"/>
      <point x="460.0" y="150.0"/>
      <point x="403.0" y="98.0"/>
    </contour>
  </outline>
</glyph>
<glyph name="h" format="2">
  <advance width="620"/>
  <unicode hex="0068"/>
  <anchor x="310" y="0" name="bottom"/>
  <anchor x="310" y="700" name="top"/>
  <outline>
    <contour>
      <point x="45" y="0" type="line"/>
      <point x="197" y="0" type="line"/>
      <point x="197.02" y="239.38" type="line"/>
      <point x="197.24" y="354.65"/>
      <point x="267.31" y="399"/>
      <point x="330.03" y="399" type="curve" smooth="yes"/>
      <point x="393.27" y="399"/>
      <point x="414.69" y="361"/>
      <point x="414.69" y="294" type="curve" smooth="yes"/>
      <point x="414.69" y="0" type="line"/>
      <point x="569.75" y="0" type="line"/>
      <point x="569.75" y="294" type="line" smooth="yes"/>
      <point x="569.75" y="391"/>
      <point x="526.9" y="507"/>
      <point x="341.24" y="507" type="curve" smooth="yes"/>
      <point x="276.59" y="507"/>
      <point x="229.59" y="484.17"/>
      <point x="197" y="447.23" type="curve"/>
      <point x="197" y="700" type="line"/>
      <point x="45" y="700" type="line"/>
    </contour>
  </outline>
</glyph>
<glyph name="i" format="2">
  <advance width="252.0"/>
  <unicode hex="0069"/>
  <note>
i
</note>
  <outline>
    <contour>
      <point x="50.0" y="577.0" type="line"/>
      <point x="202.0" y="577.0" type="line"/>
      <point x="202.0" y="700.0" type="line"/>
      <point x="50.0" y="700.0" type="line"/>
    </contour>
    <contour>
      <point x="50.0" y="0.0" type="line"/>
      <point x="202.0" y="0.0" type="line"/>
      <point x="202.0" y="500.0" type="line"/>
      <point x="50.0" y="500.0" type="line"/>
    </contour>
  </outline>
</glyph>
<glyph name="k" format="2">
  <advance width="561.0"/>
  <unicode hex="006B"/>
  <note>
k
</note>
  <outline>
    <contour>
      <point x="45.0" y="700.0" type="line"/>
      <point x="45.0" y="0.0" type="line"/>
      <point x="197.0" y="0.0" type="line"/>
      <point x="197.0" y="178.76" type="line"/>
      <point x="239.2" y="222.35" type="line"/>
      <point x="386.0" y="0.0" type="line"/>
      <point x="556.0" y="0.0" type="line"/>
      <point x="340.85" y="327.35" type="line"/>
      <point x="508.0" y="500.0" type="line"/>
      <point x="329.0" y="500.0" type="line"/>
      <point x="197.0" y="359.56" type="line"/>
      <point x="197.0" y="700.0" type="line"/>
    </contour>
  </outline>
</glyph>
<glyph name="l" format="2">
  <advance width="312"/>
  <unicode hex="006C"/>
  <anchor x="156" y="0" name="bottom"/>
  <anchor x="156" y="700" name="top"/>
  <outline>
    <contour>
      <point x="80" y="0" type="line"/>
      <point x="232" y="0" type="line"/>
      <point x="232" y="700" type="line"/>
      <point x="80" y="700" type="line"/>
    </contour>
  </outline>
</glyph>
<glyph name="m" format="2">
  <advance width="994.0"/>
  <unicode hex="006D"/>
  <note>
m
</note>
  <outline>
    <contour>
      <point x="710.98" y="509.0" type="curve" smooth="yes"/>
      <point x="630.66" y="509.0"/>
      <point x="574.25" y="472.41"/>
      <point x="538.72" y="417.83" type="curve"/>
      <point x="507.36" y="468.76"/>
      <point x="447.84" y="507.0"/>
      <point x="341.24" y="507.0" type="curve" smooth="yes"/>
      <point x="276.59" y="507.0"/>
      <point x="229.59" y="484.17"/>
      <point x="197.0" y="447.23" type="curve"/>
      <point x="197.0" y="500.0" type="line"/>
      <point x="45.0" y="500.0" type="line"/>
      <point x="45.0" y="0.0" type="line"/>
      <point x="197.0" y="0.0" type="line"/>
      <point x="197.0" y="239.38" type="line"/>
      <point x="197.02" y="239.38" type="line"/>
      <point x="197.24" y="354.65"/>
      <point x="267.31" y="399.0"/>
      <point x="330.03" y="399.0" type="curve" smooth="yes"/>
      <point x="393.27" y="399.0"/>
      <point x="414.69" y="361.0"/>
      <point x="414.69" y="294.0" type="curve" smooth="yes"/>
      <point x="414.69" y="0.0" type="line"/>
      <point x="569.75" y="0.0" type="line"/>
      <point x="569.75" y="286.49" type="line"/>
      <point x="586.25" y="367.46"/>
      <point x="645.11" y="401.0"/>
      <point x="699.53" y="401.0" type="curve" smooth="yes"/>
      <point x="764.05" y="401.0"/>
      <point x="785.9" y="361.0"/>
      <point x="785.9" y="294.0" type="curve" smooth="yes"/>
      <point x="785.9" y="0.0" type="line"/>
      <point x="944.07" y="0.0" type="line"/>
      <point x="944.07" y="294.0" type="line" smooth="yes"/>
      <point x="944.07" y="391.0"/>
      <point x="900.37" y="509.0"/>
    </contour>
  </outline>
</glyph>
<glyph name="n" format="2">
  <advance width="600"/>
  <unicode hex="006E"/>
  <anchor x="300" y="0" name="bottom"/>
  <anchor x="290" y="500" name="top"/>
  <outline>
    <contour>
      <point x="341" y="507" type="curve" smooth="yes"/>
      <point x="277" y="507"/>
      <point x="213" y="474"/>
      <point x="197" y="422" type="curve"/>
      <point x="197" y="500" type="line"/>
      <point x="45" y="500" type="line"/>
      <point x="45" y="0" type="line"/>
      <point x="197" y="0" type="line"/>
      <point x="197" y="269" type="line" smooth="yes"/>
      <point x="197" y="360"/>
      <point x="260" y="399"/>
      <point x="323" y="399" type="curve" smooth="yes"/>
      <point x="386" y="399"/>
      <point x="415" y="361"/>
      <point x="415" y="294" type="curve" smooth="yes"/>
      <point x="414.69" y="0" type="line"/>
      <point x="569.74" y="0" type="line"/>
      <point x="569.74" y="294" type="line" smooth="yes"/>
      <point x="569.74" y="391"/>
      <point x="527" y="507"/>
    </contour>
  </outline>
</glyph>
<glyph name="o" format="2">
  <advance width="584"/>
  <unicode hex="006F"/>
  <anchor x="302" y="0" name="bottom"/>
  <anchor x="319" y="0" name="ogonek"/>
  <anchor x="302" y="500" name="top"/>
  <outline>
    <contour>
      <point x="302" y="-12" type="curve" smooth="yes"/>
      <point x="462.72" y="-12"/>
      <point x="571.93" y="108"/>
      <point x="571.93" y="247" type="curve" smooth="yes"/>
      <point x="571.93" y="387"/>
      <point x="462.72" y="510"/>
      <point x="302" y="510" type="curve" smooth="yes"/>
      <point x="141.27" y="510"/>
      <point x="32.06" y="387"/>
      <point x="32.06" y="247" type="curve" smooth="yes"/>
      <point x="32.06" y="108"/>
      <point x="141.27" y="-12"/>
    </contour>
    <contour>
      <point x="302" y="93" type="curve" smooth="yes"/>
      <point x="230.3" y="93"/>
      <point x="174.53" y="143"/>
      <point x="174.53" y="247" type="curve" smooth="yes"/>
      <point x="174.53" y="352"/>
      <point x="230.3" y="402"/>
      <point x="302" y="402" type="curve" smooth="yes"/>
      <point x="373.7" y="402"/>
      <point x="429.46" y="352"/>
      <point x="429.46" y="247" type="curve" smooth="yes"/>
      <point x="429.46" y="143"/>
      <point x="373.7" y="93"/>
    </contour>
  </outline>
</glyph>
<glyph name="p" format="2">
  <advance width="638.0"/>
  <unicode hex="0070"/>
  <note>
p
</note>
  <outline>
    <contour>
      <point x="344.0" y="506.01" type="curve" smooth="yes"/>
      <point x="276.81" y="506.0"/>
      <point x="207.98" y="477.44"/>
      <point x="188.0" y="434.14" type="curve"/>
      <point x="188.0" y="500.0" type="line"/>
      <point x="36.0" y="500.0" type="line"/>
      <point x="35.0" y="-200.0" type="line"/>
      <point x="188.0" y="-200.0" type="line"/>
      <point x="188.0" y="47.4" type="line"/>
      <point x="218.67" y="4.73"/>
      <point x="277.55" y="-14.99"/>
      <point x="344.0" y="-14.99" type="curve" smooth="yes"/>
      <point x="503.0" y="-14.99"/>
      <point x="608.0" y="103.01"/>
      <point x="608.0" y="245.01" type="curve" smooth="yes"/>
      <point x="608.0" y="386.01"/>
      <point x="504.0" y="506.01"/>
    </contour>
    <contour>
      <point x="324.0" y="95.01" type="curve" smooth="yes"/>
      <point x="235.0" y="95.01"/>
      <point x="178.0" y="147.01"/>
      <point x="178.0" y="245.01" type="curve" smooth="yes"/>
      <point x="178.0" y="344.01"/>
      <point x="235.0" y="395.01"/>
      <point x="324.0" y="395.01" type="curve" smooth="yes"/>
      <point x="407.0" y="395.01"/>
      <point x="455.0" y="335.01"/>
      <point x="455.0" y="245.01" type="curve" smooth="yes"/>
      <point x="455.0" y="156.01"/>
      <point x="407.0" y="95.01"/>
    </contour>
  </outline>
</glyph>
<glyph name="q" format="2">
  <advance width="638.0"/>
  <unicode hex="0071"/>
  <note>
q
</note>
  <outline>
    <contour>
      <point x="293.99" y="506.0" type="curve" smooth="yes"/>
      <point x="134.0" y="506.0"/>
      <point x="30.0" y="386.0"/>
      <point x="30.0" y="245.0" type="curve" smooth="yes"/>
      <point x="30.0" y="103.0"/>
      <point x="135.0" y="-15.0"/>
      <point x="294.0" y="-15.0" type="curve" smooth="yes"/>
      <point x="360.45" y="-15.0"/>
      <point x="419.32" y="4.72"/>
      <point x="449.99" y="47.4" type="curve"/>
      <point x="449.99" y="-200.0" type="line"/>
      <point x="602.99" y="-200.0" type="line"/>
      <point x="601.99" y="500.0" type="line"/>
      <point x="449.99" y="500.0" type="line"/>
      <point x="449.99" y="434.14" type="line"/>
      <point x="430.02" y="477.44"/>
      <point x="361.19" y="506.0"/>
    </contour>
    <contour>
      <point x="313.99" y="95.0" type="curve" smooth="yes"/>
      <point x="230.99" y="95.0"/>
      <point x="182.99" y="156.0"/>
      <point x="182.99" y="245.0" type="curve" smooth="yes"/>
      <point x="182.99" y="335.0"/>
      <point x="230.99" y="395.0"/>
      <point x="313.99" y="395.0" type="curve" smooth="yes"/>
      <point x="402.99" y="395.0"/>
      <point x="459.99" y="344.0"/>
      <point x="459.99" y="245.0" type="curve" smooth="yes"/>
      <point x="459.99" y="147.0"/>
      <point x="402.99" y="95.0"/>
    </contour>
  </outline>
</glyph>
<glyph name="r" format="2">
  <advance width="512.0"/>
  <unicode hex="0072"/>
  <note>
r
</note>
  <outline>
    <contour>
      <point x="328.0" y="510.0" type="curve" smooth="yes"/>
      <point x="269.61" y="510.0"/>
      <point x="225.18" y="479.29"/>
      <point x="197.0" y="432.61" type="curve"/>
      <point x="197.0" y="500.0" type="line"/>
      <point x="45.0" y="500.0" type="line"/>
      <point x="45.0" y="0.0" type="line"/>
      <point x="197.0" y="0.0" type="line"/>
      <point x="197.0" y="258.57" type="line" smooth="yes"/>
      <point x="199.72" y="360.39"/>
      <point x="232.03" y="399.0"/>
      <point x="287.0" y="399.0" type="curve" smooth="yes"/>
      <point x="328.0" y="399.0"/>
      <point x="356.0" y="374.0"/>
      <point x="351.0" y="325.0" type="curve"/>
      <point x="501.0" y="325.0" type="line"/>
      <point x="501.56" y="330.6"/>
      <point x="501.83" y="336.21"/>
      <point x="501.83" y="341.82" type="curve" smooth="yes"/>
      <point x="501.83" y="426.44"/>
      <point x="438.66" y="510.0"/>
    </contour>
  </outline>
</glyph>
<glyph name="s" format="2">
  <advance width="518"/>
  <unicode hex="0073"/>
  <anchor x="267" y="0" name="bottom"/>
  <anchor x="252" y="500" name="top"/>
  <outline>
    <contour>
      <point x="252" y="511" type="curve" smooth="yes"/>
      <point x="152" y="511"/>
      <point x="55" y="460"/>
      <point x="55" y="370" type="curve" smooth="yes"/>
      <point x="55" y="155"/>
      <point x="350" y="245"/>
      <point x="350" y="147" type="curve" smooth="yes"/>
      <point x="350" y="117"/>
      <point x="315" y="93"/>
      <point x="264" y="93" type="curve" smooth="yes"/>
      <point x="194" y="93"/>
      <point x="167" y="159"/>
      <point x="154" y="203" type="curve"/>
      <point x="20" y="150" type="line"/>
      <point x="52" y="34"/>
      <point x="142" y="-12"/>
      <point x="264" y="-12" type="curve" smooth="yes"/>
      <point x="406" y="-12"/>
      <point x="498" y="52"/>
      <point x="498" y="153" type="curve" smooth="yes"/>
      <point x="498" y="346"/>
      <point x="199" y="250"/>
      <point x="199" y="360" type="curve" smooth="yes"/>
      <point x="199" y="389"/>
      <point x="223" y="406"/>
      <point x="262" y="406" type="curve" smooth="yes"/>
      <point x="319" y="406"/>
      <point x="356" y="367"/>
      <point x="356" y="303" type="curve"/>
      <point x="489" y="365" type="line"/>
      <point x="461" y="452"/>
      <point x="372" y="511"/>
    </contour>
  </outline>
</glyph>
<glyph name="t" format="2">
  <advance width="491.0"/>
  <unicode hex="0074"/>
  <note>
t
</note>
  <outline>
    <contour>
      <point x="486.0" y="108.0" type="curve"/>
      <point x="370.0" y="175.0" type="line"/>
      <point x="349.0" y="136.0"/>
      <point x="335.0" y="97.0"/>
      <point x="301.0" y="97.0" type="curve" smooth="yes"/>
      <point x="273.0" y="97.0"/>
      <point x="254.0" y="119.0"/>
      <point x="254.0" y="164.0" type="curve" smooth="yes"/>
      <point x="254.0" y="388.0" type="line"/>
      <point x="400.0" y="388.0" type="line"/>
      <point x="400.0" y="504.0" type="line"/>
      <point x="254.0" y="504.0" type="line"/>
      <point x="254.0" y="696.0" type="line"/>
      <point x="102.0" y="696.0" type="line"/>
      <point x="102.0" y="504.0" type="line"/>
      <point x="15.0" y="504.0" type="line"/>
      <point x="15.0" y="388.0" type="line"/>
      <point x="102.0" y="388.0" type="line"/>
      <point x="102.0" y="162.0" type="line" smooth="yes"/>
      <point x="102.0" y="73.0"/>
      <point x="150.0" y="-8.0"/>
      <point x="301.0" y="-8.0" type="curve" smooth="yes"/>
      <point x="404.0" y="-8.0"/>
      <point x="459.0" y="54.0"/>
    </contour>
  </outline>
</glyph>
<glyph name="u" format="2">
  <advance width="601"/>
  <unicode hex="0075"/>
  <anchor x="293" y="0" name="bottom"/>
  <anchor x="399" y="0" name="ogonek"/>
  <anchor x="293" y="500" name="top"/>
  <outline>
    <contour>
      <point x="269" y="-7" type="curve" smooth="yes"/>
      <point x="328.64" y="-7"/>
      <point x="371.27" y="14.99"/>
      <point x="399" y="50.66" type="curve"/>
      <point x="399" y="0" type="line"/>
      <point x="551" y="0" type="line"/>
      <point x="551" y="500" type="line"/>
      <point x="399" y="500" type="line"/>
      <point x="399" y="252.44" type="line" smooth="yes"/>
      <point x="399" y="126"/>
      <point x="334.44" y="101"/>
      <point x="280" y="101" type="curve" smooth="yes"/>
      <point x="218" y="101"/>
      <point x="197" y="139"/>
      <point x="197" y="206" type="curve" smooth="yes"/>
      <point x="197" y="500" type="line"/>
      <point x="45" y="500" type="line"/>
      <point x="45" y="206" type="line" smooth="yes"/>
      <point x="45" y="109"/>
      <point x="87" y="-7"/>
    </contour>
  </outline>
</glyph>
<glyph name="v" format="2">
  <advance width="592.0"/>
  <unicode hex="0076"/>
  <note>
v
</note>
  <outline>
    <contour>
      <point x="15.0" y="500.0" type="line"/>
      <point x="215.97" y="0.0" type="line"/>
      <point x="376.0" y="0.0" type="line"/>
      <point x="577.0" y="500.0" type="line"/>
      <point x="426.0" y="500.0" type="line"/>
      <point x="296.28" y="168.72" type="line"/>
      <point x="166.0" y="500.0" type="line"/>
    </contour>
  </outline>
</glyph>
<glyph name="w" format="2">
  <advance width="778.0"/>
  <unicode hex="0077"/>
  <note>
w
</note>
  <outline>
    <contour>
      <point x="389.0" y="263.31" type="line"/>
      <point x="446.0" y="0.0" type="line"/>
      <point x="613.43" y="0.0" type="line"/>
      <point x="756.0" y="500.0" type="line"/>
      <point x="604.0" y="500.0" type="line"/>
      <point x="529.84" y="231.33" type="line"/>
      <point x="456.0" y="500.0" type="line"/>
      <point x="322.0" y="500.0" type="line"/>
      <point x="248.1" y="231.52" type="line"/>
      <point x="174.0" y="500.0" type="line"/>
      <point x="22.0" y="500.0" type="line"/>
      <point x="164.37" y="0.0" type="line"/>
      <point x="332.0" y="0.0" type="line"/>
    </contour>
  </outline>
</glyph>
<glyph name="x" format="2">
  <advance width="625"/>
  <unicode hex="0078"/>
  <outline>
    <contour>
      <point x="595" y="0" type="line"/>
      <point x="210" y="500" type="line"/>
      <point x="30" y="500" type="line"/>
      <point x="415" y="0" type="line"/>
    </contour>
    <contour>
      <point x="284" y="304" type="line"/>
      <point x="374" y="187" type="line"/>
      <point x="615" y="500" type="line"/>
      <point x="435" y="500" type="line"/>
    </contour>
    <contour>
      <point x="334" y="187" type="line"/>
      <point x="244" y="304" type="line"/>
      <point x="10" y="0" type="line"/>
      <point x="190" y="0" type="line"/>
    </contour>
  </outline>
</glyph>
<glyph name="y" format="2">
  <advance width="598"/>
  <unicode hex="0079"/>
  <anchor x="324" y="500" name="top"/>
  <outline>
    <contour>
      <point x="146" y="-200" type="line"/>
      <point x="303" y="-200" type="line"/>
      <point x="588" y="500" type="line"/>
      <point x="432" y="500" type="line"/>
      <point x="312" y="205" type="line"/>
      <point x="319" y="206" type="line"/>
      <point x="177" y="500" type="line"/>
      <point x="10" y="500" type="line"/>
      <point x="271" y="-33" type="line"/>
      <point x="271" y="107" type="line"/>
    </contour>
  </outline>
</glyph>
<glyph name="z" format="2">
  <advance width="521"/>
  <unicode hex="007A"/>
  <anchor x="261" y="0" name="bottom"/>
  <anchor x="261" y="500" name="top"/>
  <outline>
    <contour>
      <point x="20" y="0" type="line"/>
      <point x="501" y="0" type="line"/>
      <point x="501" y="115" type="line"/>
      <point x="222" y="115" type="line"/>
      <point x="493" y="395" type="line"/>
      <point x="493" y="500" type="line"/>
      <point x="35" y="500" type="line"/>
      <point x="35" y="385" type="line"/>
      <point x="281" y="385" type="line"/>
      <point x="20" y="105" type="line"/>
    </contour>
  </outline>
</glyph>
<glyph name="braceleft" format="2">
  <advance width="512.0"/>
  <unicode hex="007B"/>
  <note>
braceleft
</note>
  <outline>
    <contour>
      <point x="383.98" y="677.0" type="curve"/>
      <point x="384.0" y="784.0" type="line"/>
      <point x="364.39" y="788.04"/>
      <point x="345.88" y="790.02"/>
      <point x="328.58" y="790.02" type="curve" smooth="yes"/>
      <point x="230.29" y="790.02"/>
      <point x="171.0" y="726.09"/>
      <point x="171.0" y="613.0" type="curve" smooth="yes"/>
      <point x="171.0" y="518.0"/>
      <point x="234.0" y="421.0"/>
      <point x="225.0" y="397.0" type="curve" smooth="yes"/>
      <point x="217.38" y="375.52"/>
      <point x="198.72" y="372.77"/>
      <point x="170.68" y="372.77" type="curve" smooth="yes"/>
      <point x="158.25" y="372.77"/>
      <point x="143.97" y="373.31"/>
      <point x="128.0" y="373.0" type="curve"/>
      <point x="128.0" y="244.0" type="line"/>
      <point x="142.83" y="243.73"/>
      <point x="155.92" y="244.06"/>
      <point x="167.35" y="244.06" type="curve" smooth="yes"/>
      <point x="197.52" y="244.06"/>
      <point x="216.02" y="241.76"/>
      <point x="224.0" y="220.0" type="curve" smooth="yes"/>
      <point x="233.0" y="196.0"/>
      <point x="171.0" y="99.0"/>
      <point x="171.0" y="4.0" type="curve" smooth="yes"/>
      <point x="171.0" y="-108.9"/>
      <point x="230.09" y="-172.08"/>
      <point x="328.08" y="-172.08" type="curve" smooth="yes"/>
      <point x="345.53" y="-172.08"/>
      <point x="364.2" y="-170.08"/>
      <point x="384.0" y="-166.0" type="curve"/>
      <point x="384.0" y="-59.0" type="line"/>
      <point x="372.32" y="-62.54"/>
      <point x="363.03" y="-64.26"/>
      <point x="355.64" y="-64.26" type="curve" smooth="yes"/>
      <point x="327.62" y="-64.26"/>
      <point x="327.0" y="-39.52"/>
      <point x="327.0" y="4.0" type="curve" smooth="yes"/>
      <point x="327.0" y="75.7"/>
      <point x="359.28" y="144.29"/>
      <point x="359.28" y="207.34" type="curve" smooth="yes"/>
      <point x="359.28" y="224.31"/>
      <point x="356.94" y="240.88"/>
      <point x="351.0" y="257.0" type="curve" smooth="yes"/>
      <point x="342.57" y="278.87"/>
      <point x="329.01" y="295.8"/>
      <point x="312.49" y="308.89" type="curve"/>
      <point x="329.15" y="322.0"/>
      <point x="342.75" y="339.01"/>
      <point x="350.99" y="361.0" type="curve" smooth="yes"/>
      <point x="356.93" y="377.12"/>
      <point x="359.27" y="393.69"/>
      <point x="359.27" y="410.65" type="curve" smooth="yes"/>
      <point x="359.27" y="473.66"/>
      <point x="326.99" y="542.09"/>
      <point x="326.99" y="613.0" type="curve" smooth="yes"/>
      <point x="326.99" y="657.35"/>
      <point x="327.62" y="682.25"/>
      <point x="355.69" y="682.25" type="curve" smooth="yes"/>
      <point x="363.07" y="682.25"/>
      <point x="372.34" y="680.53"/>
    </contour>
  </outline>
</glyph>
<glyph name="bar" format="2">
  <advance width="314.0"/>
  <unicode hex="007C"/>
  <note>
bar
</note>
  <outline>
    <contour>
      <point x="77.0" y="-148.0" type="line"/>
      <point x="238.0" y="-148.0" type="line"/>
      <point x="238.0" y="811.0" type="line"/>
      <point x="77.0" y="811.0" type="line"/>
    </contour>
  </outline>
</glyph>
<glyph name="braceright" format="2">
  <advance width="512.0"/>
  <unicode hex="007D"/>
  <note>
braceright
</note>
  <outline>
    <contour>
      <point x="143.98" y="784.0" type="curve"/>
      <point x="144.0" y="677.0" type="line"/>
      <point x="155.65" y="680.53"/>
      <point x="164.92" y="682.25"/>
      <point x="172.29" y="682.25" type="curve" smooth="yes"/>
      <point x="200.37" y="682.25"/>
      <point x="200.99" y="657.35"/>
      <point x="200.99" y="613.0" type="curve" smooth="yes"/>
      <point x="200.99" y="542.09"/>
      <point x="168.71" y="473.66"/>
      <point x="168.71" y="410.65" type="curve" smooth="yes"/>
      <point x="168.71" y="393.69"/>
      <point x="171.05" y="377.12"/>
      <point x="176.99" y="361.0" type="curve" smooth="yes"/>
      <point x="185.24" y="339.01"/>
      <point x="198.84" y="322.0"/>
      <point x="215.49" y="308.89" type="curve"/>
      <point x="198.98" y="295.8"/>
      <point x="185.41" y="278.87"/>
      <point x="176.99" y="257.0" type="curve" smooth="yes"/>
      <point x="171.05" y="240.88"/>
      <point x="168.71" y="224.31"/>
      <point x="168.71" y="207.34" type="curve" smooth="yes"/>
      <point x="168.71" y="144.29"/>
      <point x="200.99" y="75.7"/>
      <point x="200.99" y="4.0" type="curve" smooth="yes"/>
      <point x="200.99" y="-39.52"/>
      <point x="200.36" y="-64.26"/>
      <point x="172.34" y="-64.26" type="curve" smooth="yes"/>
      <point x="164.96" y="-64.26"/>
      <point x="155.67" y="-62.54"/>
      <point x="143.99" y="-59.0" type="curve"/>
      <point x="143.99" y="-166.0" type="line"/>
      <point x="163.78" y="-170.08"/>
      <point x="182.46" y="-172.08"/>
      <point x="199.9" y="-172.08" type="curve" smooth="yes"/>
      <point x="297.9" y="-172.08"/>
      <point x="356.99" y="-108.9"/>
      <point x="356.99" y="4.0" type="curve" smooth="yes"/>
      <point x="356.99" y="99.0"/>
      <point x="294.99" y="196.0"/>
      <point x="303.99" y="220.0" type="curve" smooth="yes"/>
      <point x="311.97" y="241.76"/>
      <point x="330.47" y="244.06"/>
      <point x="360.64" y="244.06" type="curve" smooth="yes"/>
      <point x="372.06" y="244.06"/>
      <point x="385.16" y="243.73"/>
      <point x="399.99" y="244.0" type="curve"/>
      <point x="399.99" y="373.0" type="line"/>
      <point x="384.01" y="373.31"/>
      <point x="369.74" y="372.77"/>
      <point x="357.31" y="372.77" type="curve" smooth="yes"/>
      <point x="329.27" y="372.77"/>
      <point x="310.61" y="375.52"/>
      <point x="302.99" y="397.0" type="curve" smooth="yes"/>
      <point x="293.99" y="421.0"/>
      <point x="356.99" y="518.0"/>
      <point x="356.99" y="613.0" type="curve" smooth="yes"/>
      <point x="356.99" y="726.09"/>
      <point x="297.7" y="790.02"/>
      <point x="199.4" y="790.02" type="curve" smooth="yes"/>
      <point x="182.1" y="790.02"/>
      <point x="163.59" y="788.04"/>
    </contour>
  </outline>
</glyph>
<glyph name="asciitilde" format="2">
  <advance width="600.0"/>
  <unicode hex="007E"/>
  <note>
asciitilde
</note>
  <outline>
    <contour>
      <point x="561.01" y="387.0" type="curve"/>
      <point x="431.0" y="387.0" type="line"/>
      <point x="436.33" y="373.52"/>
      <point x="438.81" y="360.54"/>
      <point x="438.81" y="349.06" type="curve" smooth="yes"/>
      <point x="438.81" y="323.91"/>
      <point x="426.91" y="306.0"/>
      <point x="407.0" y="306.0" type="curve" smooth="yes"/>
      <point x="376.0" y="306.0"/>
      <point x="347.0" y="337.0"/>
      <point x="311.0" y="363.0" type="curve" smooth="yes"/>
      <point x="283.0" y="383.0"/>
      <point x="235.0" y="410.0"/>
      <point x="179.0" y="410.0" type="curve" smooth="yes"/>
      <point x="52.51" y="410.0"/>
      <point x="24.76" y="334.77"/>
      <point x="24.76" y="280.98" type="curve" smooth="yes"/>
      <point x="24.76" y="260.35"/>
      <point x="28.84" y="242.88"/>
      <point x="33.0" y="234.01" type="curve"/>
      <point x="162.0" y="234.01" type="line"/>
      <point x="156.71" y="244.29"/>
      <point x="154.23" y="256.02"/>
      <point x="154.23" y="267.31" type="curve" smooth="yes"/>
      <point x="154.23" y="292.25"/>
      <point x="166.35" y="315.01"/>
      <point x="187.0" y="315.01" type="curve" smooth="yes"/>
      <point x="224.0" y="315.01"/>
      <point x="248.0" y="284.01"/>
      <point x="284.0" y="258.01" type="curve" smooth="yes"/>
      <point x="312.0" y="238.01"/>
      <point x="359.0" y="211.01"/>
      <point x="415.0" y="211.01" type="curve" smooth="yes"/>
      <point x="541.49" y="211.01"/>
      <point x="569.24" y="286.24"/>
      <point x="569.24" y="340.03" type="curve" smooth="yes"/>
      <point x="569.24" y="360.66"/>
      <point x="565.16" y="378.13"/>
    </contour>
  </outline>
</glyph>
<glyph name="exclamdown" format="2">
  <advance width="310.0"/>
  <unicode hex="00A1"/>
  <note>
exclamdown
</note>
  <outline>
    <contour>
      <point x="244.0" y="393.0" type="line"/>
      <point x="244.0" y="541.0" type="line"/>
      <point x="66.0" y="541.0" type="line"/>
      <point x="66.0" y="393.0" type="line"/>
    </contour>
    <contour>
      <point x="244.0" y="-189.0" type="line"/>
      <point x="243.0" y="-36.0" type="line"/>
      <point x="223.0" y="343.0" type="line"/>
      <point x="87.0" y="343.0" type="line"/>
      <point x="66.0" y="-36.0" type="line"/>
      <point x="66.0" y="-189.0" type="line"/>
    </contour>
  </outline>
</glyph>
<glyph name="cent" format="2">
  <advance width="549.0"/>
  <unicode hex="00A2"/>
  <note>
cent
</note>
  <outline>
    <contour>
      <point x="581.12" y="246.63" type="curve"/>
      <point x="447.13" y="299.82" type="line"/>
      <point x="430.65" y="240.88"/>
      <point x="403.17" y="201.43"/>
      <point x="340.0" y="192.79" type="curve"/>
      <point x="340.0" y="501.05" type="line"/>
      <point x="388.79" y="492.38"/>
      <point x="432.01" y="455.28"/>
      <point x="432.01" y="399.68" type="curve"/>
      <point x="565.0" y="462.0" type="line"/>
      <point x="538.61" y="544.0"/>
      <point x="458.03" y="601.12"/>
      <point x="340.01" y="607.42" type="curve"/>
      <point x="340.01" y="700.0" type="line"/>
      <point x="296.01" y="700.0" type="line"/>
      <point x="296.01" y="607.4" type="line"/>
      <point x="143.04" y="598.99"/>
      <point x="30.01" y="502.4"/>
      <point x="30.01" y="342.0" type="curve" smooth="yes"/>
      <point x="30.01" y="181.08"/>
      <point x="155.36" y="91.65"/>
      <point x="296.01" y="85.36" type="curve"/>
      <point x="296.01" y="0.0" type="line"/>
      <point x="340.01" y="0.0" type="line"/>
      <point x="340.01" y="85.8" type="line"/>
      <point x="457.68" y="92.69"/>
      <point x="538.05" y="144.28"/>
    </contour>
    <contour>
      <point x="174.01" y="342.0" type="curve" smooth="yes"/>
      <point x="174.01" y="437.18"/>
      <point x="226.59" y="492.09"/>
      <point x="296.01" y="501.54" type="curve"/>
      <point x="296.01" y="191.7" type="line"/>
      <point x="216.33" y="198.79"/>
      <point x="174.01" y="259.41"/>
    </contour>
  </outline>
</glyph>
<glyph name="sterling" format="2">
  <advance width="581"/>
  <unicode hex="00A3"/>
  <outline>
    <contour>
      <point x="55" y="0" type="line"/>
      <point x="569" y="0" type="line"/>
      <point x="569" y="125" type="line"/>
      <point x="276.89" y="125" type="line"/>
      <point x="296.67" y="162.58"/>
      <point x="303" y="205.19"/>
      <point x="303" y="241" type="curve" smooth="yes"/>
      <point x="303" y="311" type="line"/>
      <point x="411" y="311" type="line"/>
      <point x="411" y="428" type="line"/>
      <point x="303" y="428" type="line"/>
      <point x="303" y="522" type="line" smooth="yes"/>
      <point x="303" y="572"/>
      <point x="316" y="618"/>
      <point x="362" y="618" type="curve" smooth="yes"/>
      <point x="413" y="618"/>
      <point x="428" y="586"/>
      <point x="440" y="543" type="curve"/>
      <point x="561" y="626" type="line"/>
      <point x="541" y="654"/>
      <point x="490" y="723"/>
      <point x="362" y="723" type="curve" smooth="yes"/>
      <point x="176" y="723"/>
      <point x="150" y="580"/>
      <point x="150" y="522" type="curve" smooth="yes"/>
      <point x="150" y="428" type="line"/>
      <point x="71" y="428" type="line"/>
      <point x="71" y="311" type="line"/>
      <point x="150" y="311" type="line"/>
      <point x="150" y="241" type="line" smooth="yes"/>
      <point x="150" y="144.87"/>
      <point x="132.23" y="126.02"/>
      <point x="55" y="125" type="curve"/>
    </contour>
  </outline>
</glyph>
<glyph name="currency" format="2">
  <advance width="600.0"/>
  <unicode hex="00A4"/>
  <note>
currency
</note>
  <outline>
    <contour>
      <point x="446.64" y="145.32" type="curve"/>
      <point x="505.55" y="88.01" type="line"/>
      <point x="578.08" y="162.54" type="line"/>
      <point x="518.91" y="220.12" type="line"/>
      <point x="541.34" y="256.77"/>
      <point x="554.24" y="300.01"/>
      <point x="554.24" y="346.5" type="curve" smooth="yes"/>
      <point x="554.24" y="394.95"/>
      <point x="540.24" y="439.87"/>
      <point x="516.03" y="477.48" type="curve"/>
      <point x="578.01" y="537.56" type="line"/>
      <point x="505.62" y="612.23" type="line"/>
      <point x="442.06" y="550.62" type="line"/>
      <point x="404.91" y="573.96"/>
      <point x="360.81" y="587.42"/>
      <point x="313.31" y="587.42" type="curve" smooth="yes"/>
      <point x="264.45" y="587.42"/>
      <point x="219.17" y="573.17"/>
      <point x="181.36" y="548.57" type="curve"/>
      <point x="116.01" y="612.17" type="line"/>
      <point x="43.48" y="537.63" type="line"/>
      <point x="108.58" y="474.28" type="line"/>
      <point x="85.62" y="437.33"/>
      <point x="72.39" y="393.58"/>
      <point x="72.39" y="346.5" type="curve" smooth="yes"/>
      <point x="72.39" y="302.23"/>
      <point x="84.2" y="259.53"/>
      <point x="105.68" y="222.69" type="curve"/>
      <point x="43.6" y="162.65" type="line"/>
      <point x="115.89" y="87.89" type="line"/>
      <point x="176.51" y="146.5" type="line"/>
      <point x="214.17" y="120.88"/>
      <point x="260.59" y="105.58"/>
      <point x="313.31" y="105.58" type="curve" smooth="yes"/>
      <point x="362.77" y="105.58"/>
      <point x="408.56" y="120.17"/>
    </contour>
    <contour>
      <point x="313.31" y="204.21" type="curve" smooth="yes"/>
      <point x="227.97" y="204.21"/>
      <point x="171.03" y="269.53"/>
      <point x="171.03" y="346.49" type="curve" smooth="yes"/>
      <point x="171.03" y="424.55"/>
      <point x="235.25" y="488.77"/>
      <point x="313.31" y="488.77" type="curve" smooth="yes"/>
      <point x="391.37" y="488.77"/>
      <point x="455.59" y="424.55"/>
      <point x="455.59" y="346.49" type="curve" smooth="yes"/>
      <point x="455.59" y="268.43"/>
      <point x="391.37" y="204.21"/>
    </contour>
  </outline>
</glyph>
<glyph name="yen" format="2">
  <advance width="703.0"/>
  <unicode hex="00A5"/>
  <note>
yen
</note>
  <outline>
    <contour>
      <point x="553.9" y="282.3" type="line"/>
      <point x="553.9" y="370.16" type="line"/>
      <point x="469.06" y="370.16" type="line"/>
      <point x="683.0" y="700.0" type="line"/>
      <point x="525.0" y="700.0" type="line"/>
      <point x="351.38" y="420.77" type="line"/>
      <point x="178.0" y="700.0" type="line"/>
      <point x="20.0" y="700.0" type="line"/>
      <point x="233.12" y="370.16" type="line"/>
      <point x="137.65" y="370.16" type="line"/>
      <point x="137.65" y="282.3" type="line"/>
      <point x="274.0" y="282.3" type="line"/>
      <point x="274.0" y="231.23" type="line"/>
      <point x="137.65" y="231.23" type="line"/>
      <point x="137.65" y="143.36" type="line"/>
      <point x="274.0" y="143.36" type="line"/>
      <point x="274.0" y="0.0" type="line"/>
      <point x="428.0" y="0.0" type="line"/>
      <point x="428.0" y="143.36" type="line"/>
      <point x="553.9" y="143.36" type="line"/>
      <point x="553.9" y="231.23" type="line"/>
      <point x="428.0" y="231.23" type="line"/>
      <point x="428.0" y="282.3" type="line"/>
    </contour>
  </outline>
</glyph>
<glyph name="brokenbar" format="2">
  <advance width="314"/>
  <unicode hex="00A6"/>
  <outline>
    <contour>
      <point x="77" y="427.5" type="line"/>
      <point x="238" y="427.5" type="line"/>
      <point x="238" y="813.02" type="line"/>
      <point x="77" y="813.02" type="line"/>
    </contour>
    <contour>
      <point x="77" y="-145.5" type="line"/>
      <point x="238" y="-145.5" type="line"/>
      <point x="238" y="240.02" type="line"/>
      <point x="77" y="240.02" type="line"/>
    </contour>
  </outline>
</glyph>
<glyph name="section" format="2">
  <advance width="572.0"/>
  <unicode hex="00A7"/>
  <note>
section
</note>
  <outline>
    <contour>
      <point x="573.0" y="210.0" type="curve" smooth="yes"/>
      <point x="573.0" y="352.0"/>
      <point x="404.0" y="396.0"/>
      <point x="318.0" y="423.0" type="curve" smooth="yes"/>
      <point x="237.0" y="447.0"/>
      <point x="207.0" y="476.0"/>
      <point x="207.0" y="521.0" type="curve" smooth="yes"/>
      <point x="207.0" y="568.0"/>
      <point x="242.0" y="599.0"/>
      <point x="296.0" y="599.0" type="curve" smooth="yes"/>
      <point x="352.48" y="599.0"/>
      <point x="383.24" y="574.89"/>
      <point x="383.24" y="523.07" type="curve" smooth="yes"/>
      <point x="383.24" y="517.08"/>
      <point x="382.83" y="510.73"/>
      <point x="382.0" y="504.0" type="curve"/>
      <point x="538.0" y="544.0" type="line"/>
      <point x="527.0" y="649.0"/>
      <point x="414.0" y="709.0"/>
      <point x="296.0" y="709.0" type="curve" smooth="yes"/>
      <point x="158.0" y="709.0"/>
      <point x="51.0" y="621.0"/>
      <point x="51.0" y="521.0" type="curve" smooth="yes"/>
      <point x="51.0" y="480.36"/>
      <point x="66.95" y="443.32"/>
      <point x="97.25" y="411.02" type="curve"/>
      <point x="68.01" y="379.62"/>
      <point x="51.0" y="341.48"/>
      <point x="51.0" y="302.0" type="curve" smooth="yes"/>
      <point x="51.0" y="211.0"/>
      <point x="131.0" y="138.0"/>
      <point x="273.0" y="96.0" type="curve" smooth="yes"/>
      <point x="351.0" y="72.0"/>
      <point x="417.0" y="55.0"/>
      <point x="417.0" y="-9.0" type="curve" smooth="yes"/>
      <point x="417.0" y="-75.0"/>
      <point x="383.0" y="-115.0"/>
      <point x="301.0" y="-115.0" type="curve" smooth="yes"/>
      <point x="189.0" y="-115.0"/>
      <point x="151.0" y="-56.0"/>
      <point x="135.0" y="48.0" type="curve"/>
      <point x="-8.0" y="-24.0" type="line"/>
      <point x="28.0" y="-135.0"/>
      <point x="119.0" y="-227.0"/>
      <point x="301.0" y="-227.0" type="curve" smooth="yes"/>
      <point x="487.0" y="-227.0"/>
      <point x="573.0" y="-119.0"/>
      <point x="573.0" y="-9.0" type="curve" smooth="yes"/>
      <point x="573.0" y="32.65"/>
      <point x="558.45" y="65.88"/>
      <point x="535.73" y="92.71" type="curve"/>
      <point x="560.98" y="127.76"/>
      <point x="573.0" y="168.61"/>
    </contour>
    <contour>
      <point x="207.0" y="302.0" type="curve" smooth="yes"/>
      <point x="207.0" y="314.5"/>
      <point x="209.5" y="325.75"/>
      <point x="214.12" y="335.62" type="curve"/>
      <point x="232.35" y="328.1"/>
      <point x="252.0" y="321.21"/>
      <point x="273.0" y="315.0" type="curve" smooth="yes"/>
      <point x="351.0" y="291.0"/>
      <point x="417.0" y="274.0"/>
      <point x="417.0" y="210.0" type="curve" smooth="yes"/>
      <point x="417.0" y="196.18"/>
      <point x="415.51" y="183.63"/>
      <point x="412.44" y="172.35" type="curve"/>
      <point x="378.01" y="185.99"/>
      <point x="344.16" y="195.78"/>
      <point x="318.0" y="204.0" type="curve" smooth="yes"/>
      <point x="237.0" y="228.0"/>
      <point x="207.0" y="257.0"/>
    </contour>
  </outline>
</glyph>
<glyph name="dieresis" format="2">
  <advance width="556.0"/>
  <unicode hex="00A8"/>
  <note>
dieresis
</note>
  <outline>
    <contour>
      <point x="77.0" y="574.0" type="line"/>
      <point x="231.0" y="574.0" type="line"/>
      <point x="231.0" y="698.0" type="line"/>
      <point x="77.0" y="698.0" type="line"/>
    </contour>
    <contour>
      <point x="325.0" y="574.0" type="line"/>
      <point x="479.0" y="574.0" type="line"/>
      <point x="479.0" y="698.0" type="line"/>
      <point x="325.0" y="698.0" type="line"/>
    </contour>
  </outline>
</glyph>
<glyph name="copyright" format="2">
  <advance width="808"/>
  <unicode hex="00A9"/>
  <outline>
    <contour>
      <point x="404" y="-4" type="curve" smooth="yes"/>
      <point x="644" y="-4"/>
      <point x="802" y="175"/>
      <point x="802" y="383" type="curve" smooth="yes"/>
      <point x="802" y="592"/>
      <point x="644" y="774"/>
      <point x="404" y="774" type="curve" smooth="yes"/>
      <point x="164" y="774"/>
      <point x="6" y="592"/>
      <point x="6" y="383" type="curve" smooth="yes"/>
      <point x="6" y="175"/>
      <point x="165" y="-4"/>
    </contour>
    <contour>
      <point x="404" y="92" type="curve" smooth="yes"/>
      <point x="249" y="92"/>
      <point x="144" y="210"/>
      <point x="144" y="383" type="curve" smooth="yes"/>
      <point x="144" y="558"/>
      <point x="250" y="678"/>
      <point x="404" y="678" type="curve" smooth="yes"/>
      <point x="559" y="678"/>
      <point x="664" y="558"/>
      <point x="664" y="383" type="curve" smooth="yes"/>
      <point x="664" y="210"/>
      <point x="559" y="92"/>
    </contour>
    <contour>
      <point x="414.3" y="193.98" type="curve" smooth="yes"/>
      <point x="514.19" y="193.98"/>
      <point x="581.56" y="232.55"/>
      <point x="616.41" y="315.36" type="curve"/>
      <point x="515.79" y="355.31" type="line"/>
      <point x="501.72" y="305"/>
      <point x="476.97" y="273.59"/>
      <point x="414.3" y="273.59" type="curve" smooth="yes"/>
      <point x="346.71" y="273.59"/>
      <point x="310.66" y="320.93"/>
      <point x="310.66" y="386.99" type="curve" smooth="yes"/>
      <point x="310.66" y="465.85"/>
      <point x="358.73" y="507.9"/>
      <point x="418.81" y="507.9" type="curve" smooth="yes"/>
      <point x="461.61" y="507.9"/>
      <point x="504.43" y="478.27"/>
      <point x="504.43" y="430.31" type="curve"/>
      <point x="604.31" y="477.11" type="line"/>
      <point x="583.28" y="542.45"/>
      <point x="516.44" y="586.76"/>
      <point x="418.81" y="586.76" type="curve" smooth="yes"/>
      <point x="295.65" y="586.76"/>
      <point x="202.52" y="513.16"/>
      <point x="202.52" y="386.99" type="curve" smooth="yes"/>
      <point x="202.52" y="261.57"/>
      <point x="303.91" y="193.98"/>
    </contour>
  </outline>
</glyph>
<glyph name="ordfeminine" format="2">
  <advance width="406"/>
  <unicode hex="00AA"/>
  <outline>
    <contour>
      <point x="156" y="372" type="curve" smooth="yes"/>
      <point x="206" y="372"/>
      <point x="237" y="392"/>
      <point x="256" y="421" type="curve"/>
      <point x="256" y="381" type="line"/>
      <point x="361" y="381" type="line"/>
      <point x="361" y="588" type="line" smooth="yes"/>
      <point x="361" y="642"/>
      <point x="348" y="732"/>
      <point x="205" y="732" type="curve" smooth="yes"/>
      <point x="123" y="732"/>
      <point x="52" y="685"/>
      <point x="52" y="629" type="curve" smooth="yes"/>
      <point x="52" y="622"/>
      <point x="54" y="615"/>
      <point x="55" y="608" type="curve"/>
      <point x="157" y="608" type="line"/>
      <point x="157" y="608"/>
      <point x="156" y="611"/>
      <point x="156" y="614" type="curve" smooth="yes"/>
      <point x="156" y="628"/>
      <point x="163" y="662"/>
      <point x="212" y="662" type="curve" smooth="yes"/>
      <point x="241" y="662"/>
      <point x="255" y="649"/>
      <point x="255" y="625" type="curve" smooth="yes"/>
      <point x="255" y="598"/>
      <point x="225" y="590"/>
      <point x="179" y="586" type="curve" smooth="yes"/>
      <point x="66" y="575"/>
      <point x="25" y="536"/>
      <point x="25" y="479" type="curve" smooth="yes"/>
      <point x="25" y="419"/>
      <point x="66" y="372"/>
    </contour>
    <contour>
      <point x="176" y="437" type="curve" smooth="yes"/>
      <point x="143" y="437"/>
      <point x="127" y="461"/>
      <point x="127" y="483" type="curve" smooth="yes"/>
      <point x="127" y="511"/>
      <point x="153" y="524"/>
      <point x="185" y="528" type="curve" smooth="yes"/>
      <point x="211" y="531"/>
      <point x="234" y="537"/>
      <point x="256" y="546" type="curve"/>
      <point x="256" y="539" type="line" smooth="yes"/>
      <point x="256" y="464"/>
      <point x="217" y="437"/>
    </contour>
  </outline>
</glyph>
<glyph name="guillemotleft" format="2">
  <advance width="527.0"/>
  <unicode hex="00AB"/>
  <note>
guillemotleft
</note>
  <outline>
    <contour>
      <point x="197.0" y="507.0" type="line"/>
      <point x="12.0" y="267.0" type="line"/>
      <point x="198.0" y="26.0" type="line"/>
      <point x="294.0" y="91.0" type="line"/>
      <point x="166.0" y="267.0" type="line"/>
      <point x="294.0" y="443.0" type="line"/>
    </contour>
    <contour>
      <point x="408.44" y="484.86" type="line"/>
      <point x="240.27" y="266.7" type="line"/>
      <point x="409.35" y="47.63" type="line"/>
      <point x="496.61" y="106.72" type="line"/>
      <point x="380.26" y="266.7" type="line"/>
      <point x="496.61" y="426.69" type="line"/>
    </contour>
  </outline>
</glyph>
<glyph name="logicalnot" format="2">
  <advance width="667.0"/>
  <unicode hex="00AC"/>
  <note>
logicalnot
</note>
  <outline>
    <contour>
      <point x="22.0" y="366.0" type="line"/>
      <point x="22.0" y="249.0" type="line"/>
      <point x="503.0" y="249.0" type="line"/>
      <point x="503.0" y="46.0" type="line"/>
      <point x="663.0" y="46.0" type="line"/>
      <point x="663.0" y="366.0" type="line"/>
    </contour>
  </outline>
</glyph>
<glyph name="softhyphen" format="2">
  <advance width="600"/>
  <unicode hex="00AD"/>
  <outline>
    <contour>
      <point x="71" y="202" type="line"/>
      <point x="530" y="202" type="line"/>
      <point x="530" y="318" type="line"/>
      <point x="71" y="318" type="line"/>
    </contour>
  </outline>
</glyph>
<glyph name="registered" format="2">
  <advance width="808"/>
  <unicode hex="00AE"/>
  <outline>
    <contour>
      <point x="404" y="-4" type="curve" smooth="yes"/>
      <point x="644" y="-4"/>
      <point x="802" y="175"/>
      <point x="802" y="383" type="curve" smooth="yes"/>
      <point x="802" y="592"/>
      <point x="644" y="774"/>
      <point x="404" y="774" type="curve" smooth="yes"/>
      <point x="164" y="774"/>
      <point x="6" y="592"/>
      <point x="6" y="383" type="curve" smooth="yes"/>
      <point x="6" y="175"/>
      <point x="165" y="-4"/>
    </contour>
    <contour>
      <point x="349" y="439" type="line"/>
      <point x="349" y="526" type="line"/>
      <point x="398" y="526" type="line" smooth="yes"/>
      <point x="433" y="526"/>
      <point x="451" y="514"/>
      <point x="451" y="483" type="curve" smooth="yes"/>
      <point x="451" y="451"/>
      <point x="433" y="439"/>
      <point x="398" y="439" type="curve" smooth="yes"/>
    </contour>
    <contour>
      <point x="262" y="196" type="line"/>
      <point x="349" y="196" type="line"/>
      <point x="349" y="374" type="line"/>
      <point x="398" y="374" type="line" smooth="yes"/>
      <point x="399" y="374"/>
      <point x="401" y="374"/>
      <point x="403" y="374" type="curve"/>
      <point x="515" y="196" type="line"/>
      <point x="614" y="196" type="line"/>
      <point x="487" y="395" type="line"/>
      <point x="517" y="412"/>
      <point x="538" y="440"/>
      <point x="538" y="483" type="curve" smooth="yes"/>
      <point x="538" y="561"/>
      <point x="467" y="591"/>
      <point x="398" y="591" type="curve" smooth="yes"/>
      <point x="262" y="591" type="line"/>
    </contour>
    <contour>
      <point x="404" y="92" type="curve" smooth="yes"/>
      <point x="249" y="92"/>
      <point x="144" y="210"/>
      <point x="144" y="383" type="curve" smooth="yes"/>
      <point x="144" y="558"/>
      <point x="250" y="678"/>
      <point x="404" y="678" type="curve" smooth="yes"/>
      <point x="559" y="678"/>
      <point x="664" y="558"/>
      <point x="664" y="383" type="curve" smooth="yes"/>
      <point x="664" y="219"/>
      <point x="567" y="92"/>
    </contour>
  </outline>
</glyph>
<glyph name="macron" format="2">
  <advance width="600.0"/>
  <unicode hex="00AF"/>
  <note>
macron
</note>
  <outline>
    <contour>
      <point x="21.0" y="632.0" type="line"/>
      <point x="589.0" y="632.0" type="line"/>
      <point x="589.0" y="756.0" type="line"/>
      <point x="21.0" y="756.0" type="line"/>
    </contour>
  </outline>
</glyph>
<glyph name="degree" format="2">
  <advance width="600"/>
  <unicode hex="00B0"/>
  <outline>
    <contour>
      <point x="290" y="464" type="curve" smooth="yes"/>
      <point x="408" y="464"/>
      <point x="494" y="530"/>
      <point x="494" y="644" type="curve" smooth="yes"/>
      <point x="494" y="757"/>
      <point x="408" y="823"/>
      <point x="290" y="823" type="curve" smooth="yes"/>
      <point x="171" y="823"/>
      <point x="85" y="757"/>
      <point x="85" y="644" type="curve" smooth="yes"/>
      <point x="85" y="530"/>
      <point x="171" y="464"/>
    </contour>
    <contour>
      <point x="290" y="571" type="curve" smooth="yes"/>
      <point x="240" y="571"/>
      <point x="212" y="599"/>
      <point x="212" y="644" type="curve" smooth="yes"/>
      <point x="212" y="688"/>
      <point x="240" y="716"/>
      <point x="290" y="716" type="curve" smooth="yes"/>
      <point x="339" y="716"/>
      <point x="367" y="688"/>
      <point x="367" y="644" type="curve" smooth="yes"/>
      <point x="367" y="599"/>
      <point x="339" y="571"/>
    </contour>
  </outline>
</glyph>
<glyph name="plusminus" format="2">
  <advance width="600.0"/>
  <unicode hex="00B1"/>
  <note>
plusminus
</note>
  <outline>
    <contour>
      <point x="227.0" y="165.0" type="line"/>
      <point x="373.0" y="165.0" type="line"/>
      <point x="373.0" y="352.0" type="line"/>
      <point x="563.0" y="352.0" type="line"/>
      <point x="563.0" y="469.0" type="line"/>
      <point x="373.0" y="469.0" type="line"/>
      <point x="373.0" y="658.0" type="line"/>
      <point x="227.0" y="658.0" type="line"/>
      <point x="227.0" y="469.0" type="line"/>
      <point x="36.0" y="469.0" type="line"/>
      <point x="36.0" y="352.0" type="line"/>
      <point x="227.0" y="352.0" type="line"/>
    </contour>
    <contour>
      <point x="36.0" y="116.0" type="line"/>
      <point x="36.0" y="-1.0" type="line"/>
      <point x="563.0" y="-1.0" type="line"/>
      <point x="563.0" y="116.0" type="line"/>
    </contour>
  </outline>
</glyph>
<glyph name="twosuperior" format="2">
  <advance width="473.0"/>
  <unicode hex="00B2"/>
  <note>
twosuperior
</note>
  <outline>
    <contour>
      <point x="256.0" y="877.0" type="curve" smooth="yes"/>
      <point x="151.35" y="877.0"/>
      <point x="82.44" y="817.68"/>
      <point x="82.44" y="751.43" type="curve" smooth="yes"/>
      <point x="82.44" y="741.71"/>
      <point x="83.93" y="731.85"/>
      <point x="87.0" y="722.0" type="curve"/>
      <point x="235.0" y="736.0" type="line"/>
      <point x="234.05" y="744.78"/>
      <point x="233.49" y="752.04"/>
      <point x="233.49" y="758.01" type="curve" smooth="yes"/>
      <point x="233.49" y="777.18"/>
      <point x="239.22" y="783.0"/>
      <point x="256.0" y="783.0" type="curve" smooth="yes"/>
      <point x="274.0" y="783.0"/>
      <point x="281.0" y="764.0"/>
      <point x="281.0" y="734.0" type="curve" smooth="yes"/>
      <point x="279.0" y="611.0"/>
      <point x="104.0" y="560.0"/>
      <point x="70.0" y="482.0" type="curve"/>
      <point x="69.0" y="408.0" type="line"/>
      <point x="443.0" y="408.0" type="line"/>
      <point x="443.0" y="511.0" type="line"/>
      <point x="269.0" y="511.0" type="line"/>
      <point x="330.4" y="557.55"/>
      <point x="432.03" y="623.72"/>
      <point x="432.03" y="737.68" type="curve" smooth="yes"/>
      <point x="432.03" y="799.35"/>
      <point x="388.27" y="877.0"/>
    </contour>
  </outline>
</glyph>
<glyph name="threesuperior" format="2">
  <advance width="391.0"/>
  <unicode hex="00B3"/>
  <note>
threesuperior
</note>
  <outline>
    <contour>
      <point x="275.0" y="688.99" type="curve"/>
      <point x="373.0" y="789.0" type="line"/>
      <point x="373.0" y="864.0" type="line"/>
      <point x="22.0" y="864.0" type="line"/>
      <point x="22.0" y="770.0" type="line"/>
      <point x="182.0" y="770.0" type="line"/>
      <point x="86.0" y="667.0" type="line"/>
      <point x="142.0" y="602.0" type="line"/>
      <point x="152.0" y="611.0"/>
      <point x="165.0" y="622.0"/>
      <point x="191.0" y="622.0" type="curve" smooth="yes"/>
      <point x="220.0" y="622.0"/>
      <point x="230.0" y="599.0"/>
      <point x="230.0" y="552.0" type="curve" smooth="yes"/>
      <point x="230.0" y="506.0"/>
      <point x="210.0" y="490.0"/>
      <point x="191.0" y="490.0" type="curve" smooth="yes"/>
      <point x="166.42" y="490.0"/>
      <point x="151.09" y="502.32"/>
      <point x="151.09" y="549.97" type="curve" smooth="yes"/>
      <point x="151.09" y="556.6"/>
      <point x="151.39" y="563.92"/>
      <point x="152.0" y="571.99" type="curve"/>
      <point x="1.0" y="571.99" type="line"/>
      <point x="0.39" y="565.92"/>
      <point x="0.1" y="559.99"/>
      <point x="0.1" y="554.2" type="curve" smooth="yes"/>
      <point x="0.1" y="455.02"/>
      <point x="87.07" y="396.99"/>
      <point x="191.0" y="396.99" type="curve" smooth="yes"/>
      <point x="286.0" y="396.99"/>
      <point x="381.0" y="461.99"/>
      <point x="381.0" y="551.99" type="curve" smooth="yes"/>
      <point x="381.0" y="615.99"/>
      <point x="336.0" y="666.99"/>
    </contour>
  </outline>
</glyph>
<glyph name="paragraph" format="2">
  <advance width="691.0"/>
  <unicode hex="00B6"/>
  <note>
paragraph
</note>
  <outline>
    <contour>
      <point x="267.0" y="364.0" type="curve" smooth="yes"/>
      <point x="315.0" y="364.0" type="line"/>
      <point x="315.0" y="-194.0" type="line"/>
      <point x="450.0" y="-194.0" type="line"/>
      <point x="450.0" y="700.0" type="line"/>
      <point x="262.0" y="700.0" type="line" smooth="yes"/>
      <point x="175.0" y="700.0"/>
      <point x="63.0" y="655.0"/>
      <point x="63.0" y="532.0" type="curve" smooth="yes"/>
      <point x="63.0" y="408.0"/>
      <point x="171.0" y="364.0"/>
    </contour>
    <contour>
      <point x="638.0" y="-194.0" type="line"/>
      <point x="638.0" y="700.0" type="line"/>
      <point x="502.0" y="700.0" type="line"/>
      <point x="502.0" y="-194.0" type="line"/>
    </contour>
  </outline>
</glyph>
<glyph name="periodcentered" format="2">
  <advance width="600.0"/>
  <unicode hex="00B7"/>
  <note>
periodcentered
</note>
  <outline>
    <contour>
      <point x="211.0" y="224.0" type="line"/>
      <point x="389.0" y="224.0" type="line"/>
      <point x="389.0" y="372.0" type="line"/>
      <point x="211.0" y="372.0" type="line"/>
    </contour>
  </outline>
</glyph>
<glyph name="cedilla" format="2">
  <advance width="600.0"/>
  <unicode hex="00B8"/>
  <note>
cedilla
</note>
  <outline>
    <contour>
      <point x="271.99" y="-39.01" type="curve"/>
      <point x="300.0" y="1.0" type="line"/>
      <point x="237.0" y="1.0" type="line"/>
      <point x="190.0" y="-102.0" type="line"/>
      <point x="281.0" y="-102.0" type="line"/>
      <point x="285.0" y="-95.0"/>
      <point x="294.0" y="-87.0"/>
      <point x="306.0" y="-87.0" type="curve" smooth="yes"/>
      <point x="314.55" y="-87.0"/>
      <point x="323.84" y="-91.39"/>
      <point x="323.84" y="-104.56" type="curve" smooth="yes"/>
      <point x="323.84" y="-106.78"/>
      <point x="323.57" y="-109.26"/>
      <point x="322.99" y="-112.0" type="curve" smooth="yes"/>
      <point x="318.99" y="-131.0"/>
      <point x="292.99" y="-143.0"/>
      <point x="261.99" y="-143.0" type="curve" smooth="yes"/>
      <point x="225.99" y="-143.0"/>
      <point x="189.99" y="-129.0"/>
      <point x="177.99" y="-119.0" type="curve"/>
      <point x="177.99" y="-188.0" type="line"/>
      <point x="194.99" y="-200.0"/>
      <point x="223.99" y="-206.0"/>
      <point x="255.99" y="-206.0" type="curve" smooth="yes"/>
      <point x="309.99" y="-206.0"/>
      <point x="384.99" y="-185.0"/>
      <point x="399.99" y="-115.0" type="curve" smooth="yes"/>
      <point x="401.35" y="-108.23"/>
      <point x="401.99" y="-101.86"/>
      <point x="401.99" y="-95.89" type="curve" smooth="yes"/>
      <point x="401.99" y="-49.04"/>
      <point x="362.46" y="-27.01"/>
      <point x="318.99" y="-27.01" type="curve" smooth="yes"/>
      <point x="300.99" y="-27.01"/>
      <point x="279.99" y="-34.01"/>
    </contour>
  </outline>
</glyph>
<glyph name="onesuperior" format="2">
  <advance width="318.0"/>
  <unicode hex="00B9"/>
  <note>
onesuperior
</note>
  <outline>
    <contour>
      <point x="28.0" y="717.0" type="line"/>
      <point x="119.0" y="717.0" type="line"/>
      <point x="119.0" y="402.0" type="line"/>
      <point x="270.0" y="402.0" type="line"/>
      <point x="270.0" y="865.0" type="line"/>
      <point x="116.0" y="865.0" type="line"/>
      <point x="117.4" y="860.24"/>
      <point x="118.4" y="855.68"/>
      <point x="119.0" y="851.34" type="curve"/>
      <point x="119.0" y="833.07" type="line"/>
      <point x="115.91" y="814.58"/>
      <point x="102.49" y="803.23"/>
      <point x="79.28" y="803.23" type="curve" smooth="yes"/>
      <point x="65.57" y="803.23"/>
      <point x="48.43" y="807.2"/>
      <point x="28.0" y="816.0" type="curve"/>
    </contour>
  </outline>
</glyph>
<glyph name="ordmasculine" format="2">
  <advance width="380.0"/>
  <unicode hex="00BA"/>
  <note>
ordmasculine
</note>
  <outline>
    <contour>
      <point x="214.38" y="368.72" type="curve" smooth="yes"/>
      <point x="325.28" y="368.72"/>
      <point x="400.63" y="451.52"/>
      <point x="400.63" y="547.43" type="curve" smooth="yes"/>
      <point x="400.63" y="644.03"/>
      <point x="325.28" y="728.9"/>
      <point x="214.38" y="728.9" type="curve" smooth="yes"/>
      <point x="103.48" y="728.9"/>
      <point x="28.12" y="644.03"/>
      <point x="28.12" y="547.43" type="curve" smooth="yes"/>
      <point x="28.12" y="451.52"/>
      <point x="103.48" y="368.72"/>
    </contour>
    <contour>
      <point x="214.38" y="441.17" type="curve" smooth="yes"/>
      <point x="164.9" y="441.17"/>
      <point x="126.42" y="475.67"/>
      <point x="126.42" y="547.43" type="curve" smooth="yes"/>
      <point x="126.42" y="619.88"/>
      <point x="164.9" y="654.38"/>
      <point x="214.38" y="654.38" type="curve" smooth="yes"/>
      <point x="263.85" y="654.38"/>
      <point x="302.33" y="619.88"/>
      <point x="302.33" y="547.43" type="curve" smooth="yes"/>
      <point x="302.33" y="475.67"/>
      <point x="263.85" y="441.17"/>
    </contour>
  </outline>
</glyph>
<glyph name="guillemotright" format="2">
  <advance width="526.0"/>
  <unicode hex="00BB"/>
  <note>
guillemotright
</note>
  <outline>
    <contour>
      <point x="329.0" y="507.0" type="line"/>
      <point x="232.0" y="443.0" type="line"/>
      <point x="360.0" y="267.0" type="line"/>
      <point x="232.0" y="91.0" type="line"/>
      <point x="328.0" y="26.0" type="line"/>
      <point x="514.0" y="267.0" type="line"/>
    </contour>
    <contour>
      <point x="117.56" y="484.86" type="line"/>
      <point x="29.39" y="426.68" type="line"/>
      <point x="145.74" y="266.7" type="line"/>
      <point x="29.39" y="106.71" type="line"/>
      <point x="116.65" y="47.63" type="line"/>
      <point x="285.73" y="266.7" type="line"/>
    </contour>
  </outline>
</glyph>
<glyph name="onequarter" format="2">
  <advance width="851.0"/>
  <unicode hex="00BC"/>
  <note>
onequarter
</note>
  <outline>
    <contour>
      <point x="28.0" y="717.0" type="line"/>
      <point x="119.0" y="717.0" type="line"/>
      <point x="119.0" y="402.0" type="line"/>
      <point x="270.0" y="402.0" type="line"/>
      <point x="270.0" y="865.0" type="line"/>
      <point x="116.0" y="865.0" type="line"/>
      <point x="117.4" y="860.24"/>
      <point x="118.4" y="855.68"/>
      <point x="119.0" y="851.34" type="curve"/>
      <point x="119.0" y="833.07" type="line"/>
      <point x="115.91" y="814.58"/>
      <point x="102.49" y="803.23"/>
      <point x="79.28" y="803.23" type="curve" smooth="yes"/>
      <point x="65.57" y="803.23"/>
      <point x="48.43" y="807.2"/>
      <point x="28.0" y="816.0" type="curve"/>
    </contour>
    <contour>
      <point x="604.0" y="750.0" type="line"/>
      <point x="27.0" y="2.0" type="line"/>
      <point x="189.0" y="2.0" type="line"/>
      <point x="767.0" y="750.0" type="line"/>
    </contour>
    <contour>
      <point x="606.0" y="2.0" type="line"/>
      <point x="757.0" y="2.0" type="line"/>
      <point x="757.0" y="89.0" type="line"/>
      <point x="825.21" y="89.0" type="line"/>
      <point x="825.21" y="186.0" type="line"/>
      <point x="757.0" y="186.0" type="line"/>
      <point x="757.0" y="463.98" type="line"/>
      <point x="638.77" y="464.0" type="line"/>
      <point x="389.0" y="167.0" type="line"/>
      <point x="388.0" y="89.0" type="line"/>
      <point x="606.0" y="89.0" type="line"/>
    </contour>
    <contour>
      <point x="606.0" y="186.0" type="line"/>
      <point x="523.8" y="186.0" type="line"/>
      <point x="606.0" y="283.3" type="line"/>
    </contour>
  </outline>
</glyph>
<glyph name="onehalf" format="2">
  <advance width="882.0"/>
  <unicode hex="00BD"/>
  <note>
onehalf
</note>
  <outline>
    <contour>
      <point x="28.0" y="717.0" type="line"/>
      <point x="119.0" y="717.0" type="line"/>
      <point x="119.0" y="402.0" type="line"/>
      <point x="270.0" y="402.0" type="line"/>
      <point x="270.0" y="865.0" type="line"/>
      <point x="116.0" y="865.0" type="line"/>
      <point x="117.4" y="860.24"/>
      <point x="118.4" y="855.68"/>
      <point x="119.0" y="851.34" type="curve"/>
      <point x="119.0" y="833.07" type="line"/>
      <point x="115.91" y="814.58"/>
      <point x="102.49" y="803.23"/>
      <point x="79.28" y="803.23" type="curve" smooth="yes"/>
      <point x="65.57" y="803.23"/>
      <point x="48.43" y="807.2"/>
      <point x="28.0" y="816.0" type="curve"/>
    </contour>
    <contour>
      <point x="767.0" y="750.0" type="line"/>
      <point x="605.0" y="750.0" type="line"/>
      <point x="27.0" y="2.0" type="line"/>
      <point x="190.0" y="2.0" type="line"/>
    </contour>
    <contour>
      <point x="675.0" y="468.0" type="curve" smooth="yes"/>
      <point x="570.35" y="468.0"/>
      <point x="501.44" y="408.68"/>
      <point x="501.44" y="342.43" type="curve" smooth="yes"/>
      <point x="501.44" y="332.71"/>
      <point x="502.93" y="322.85"/>
      <point x="506.0" y="313.0" type="curve"/>
      <point x="654.0" y="327.0" type="line"/>
      <point x="653.05" y="335.78"/>
      <point x="652.49" y="343.04"/>
      <point x="652.49" y="349.01" type="curve" smooth="yes"/>
      <point x="652.49" y="368.18"/>
      <point x="658.22" y="374.0"/>
      <point x="675.0" y="374.0" type="curve" smooth="yes"/>
      <point x="693.0" y="374.0"/>
      <point x="700.0" y="355.0"/>
      <point x="700.0" y="325.0" type="curve" smooth="yes"/>
      <point x="698.0" y="202.0"/>
      <point x="523.0" y="151.0"/>
      <point x="489.0" y="73.0" type="curve"/>
      <point x="488.0" y="-1.0" type="line"/>
      <point x="862.0" y="-1.0" type="line"/>
      <point x="862.0" y="102.0" type="line"/>
      <point x="688.0" y="102.0" type="line"/>
      <point x="749.4" y="148.55"/>
      <point x="851.03" y="214.72"/>
      <point x="851.03" y="328.68" type="curve" smooth="yes"/>
      <point x="851.03" y="390.35"/>
      <point x="807.27" y="468.0"/>
    </contour>
  </outline>
</glyph>
<glyph name="threequarters" format="2">
  <advance width="851.0"/>
  <unicode hex="00BE"/>
  <note>
threequarters
</note>
  <outline>
    <contour>
      <point x="275.0" y="688.99" type="curve"/>
      <point x="373.0" y="789.0" type="line"/>
      <point x="373.0" y="864.0" type="line"/>
      <point x="22.0" y="864.0" type="line"/>
      <point x="22.0" y="770.0" type="line"/>
      <point x="182.0" y="770.0" type="line"/>
      <point x="86.0" y="667.0" type="line"/>
      <point x="142.0" y="602.0" type="line"/>
      <point x="152.0" y="611.0"/>
      <point x="165.0" y="622.0"/>
      <point x="191.0" y="622.0" type="curve" smooth="yes"/>
      <point x="220.0" y="622.0"/>
      <point x="230.0" y="599.0"/>
      <point x="230.0" y="552.0" type="curve" smooth="yes"/>
      <point x="230.0" y="506.0"/>
      <point x="210.0" y="490.0"/>
      <point x="191.0" y="490.0" type="curve" smooth="yes"/>
      <point x="166.42" y="490.0"/>
      <point x="151.09" y="502.32"/>
      <point x="151.09" y="549.97" type="curve" smooth="yes"/>
      <point x="151.09" y="556.6"/>
      <point x="151.39" y="563.92"/>
      <point x="152.0" y="571.99" type="curve"/>
      <point x="1.0" y="571.99" type="line"/>
      <point x="0.39" y="565.92"/>
      <point x="0.1" y="559.99"/>
      <point x="0.1" y="554.2" type="curve" smooth="yes"/>
      <point x="0.1" y="455.02"/>
      <point x="87.07" y="396.99"/>
      <point x="191.0" y="396.99" type="curve" smooth="yes"/>
      <point x="286.0" y="396.99"/>
      <point x="381.0" y="461.99"/>
      <point x="381.0" y="551.99" type="curve" smooth="yes"/>
      <point x="381.0" y="615.99"/>
      <point x="336.0" y="666.99"/>
    </contour>
    <contour>
      <point x="766.0" y="749.99" type="line"/>
      <point x="604.0" y="749.99" type="line"/>
      <point x="27.0" y="1.99" type="line"/>
      <point x="189.0" y="1.99" type="line"/>
    </contour>
    <contour>
      <point x="606.0" y="1.99" type="line"/>
      <point x="757.0" y="1.99" type="line"/>
      <point x="757.0" y="88.99" type="line"/>
      <point x="825.21" y="88.99" type="line"/>
      <point x="825.21" y="185.99" type="line"/>
      <point x="757.0" y="185.99" type="line"/>
      <point x="757.0" y="463.98" type="line"/>
      <point x="638.77" y="463.99" type="line"/>
      <point x="389.0" y="166.99" type="line"/>
      <point x="388.0" y="88.99" type="line"/>
      <point x="606.0" y="88.99" type="line"/>
    </contour>
    <contour>
      <point x="606.0" y="185.99" type="line"/>
      <point x="523.8" y="185.99" type="line"/>
      <point x="606.0" y="283.3" type="line"/>
    </contour>
  </outline>
</glyph>
<glyph name="questiondown" format="2">
  <advance width="501.0"/>
  <unicode hex="00BF"/>
  <note>
questiondown
</note>
  <outline>
    <contour>
      <point x="315.0" y="505.0" type="line"/>
      <point x="137.0" y="505.0" type="line"/>
      <point x="137.0" y="357.0" type="line"/>
      <point x="315.0" y="357.0" type="line"/>
    </contour>
    <contour>
      <point x="227.0" y="-108.0" type="curve" smooth="yes"/>
      <point x="176.0" y="-108.0"/>
      <point x="145.76" y="-83.0"/>
      <point x="145.76" y="-46.0" type="curve" smooth="yes"/>
      <point x="145.76" y="-14.34"/>
      <point x="181.0" y="-8.0"/>
      <point x="254.0" y="22.0" type="curve" smooth="yes"/>
      <point x="303.0" y="43.0"/>
      <point x="399.0" y="84.0"/>
      <point x="399.0" y="174.0" type="curve" smooth="yes"/>
      <point x="399.0" y="266.0"/>
      <point x="309.0" y="317.0"/>
      <point x="227.0" y="317.0" type="curve" smooth="yes"/>
      <point x="144.0" y="317.0"/>
      <point x="85.0" y="273.0"/>
      <point x="60.0" y="194.0" type="curve"/>
      <point x="199.0" y="150.0" type="line"/>
      <point x="197.05" y="159.14"/>
      <point x="196.2" y="167.12"/>
      <point x="196.2" y="174.03" type="curve" smooth="yes"/>
      <point x="196.2" y="202.62"/>
      <point x="210.72" y="213.0"/>
      <point x="222.0" y="213.0" type="curve" smooth="yes"/>
      <point x="236.0" y="213.0"/>
      <point x="247.0" y="202.0"/>
      <point x="247.0" y="174.0" type="curve" smooth="yes"/>
      <point x="247.0" y="147.59"/>
      <point x="229.0" y="127.0"/>
      <point x="206.0" y="117.0" type="curve" smooth="yes"/>
      <point x="149.0" y="91.0"/>
      <point x="9.0" y="62.0"/>
      <point x="9.0" y="-48.0" type="curve" smooth="yes"/>
      <point x="9.0" y="-129.0"/>
      <point x="82.0" y="-215.0"/>
      <point x="227.0" y="-215.0" type="curve" smooth="yes"/>
      <point x="333.0" y="-215.0"/>
      <point x="438.0" y="-156.0"/>
      <point x="462.0" y="-67.0" type="curve"/>
      <point x="335.0" y="27.0" type="line"/>
      <point x="333.0" y="-50.0"/>
      <point x="296.0" y="-108.0"/>
    </contour>
  </outline>
</glyph>
<glyph name="Acircumflex" format="2">
  <advance width="813.0"/>
  <unicode hex="00C2"/>
  <note>
Acircumflex
</note>
  <outline>
    <contour>
      <point x="357.46" y="959.46" type="line"/>
      <point x="159.0" y="785.0" type="line"/>
      <point x="281.0" y="747.0" type="line"/>
      <point x="373.0" y="833.42" type="line"/>
      <point x="465.0" y="747.0" type="line"/>
      <point x="587.0" y="785.0" type="line"/>
      <point x="388.54" y="959.46" type="line"/>
      <point x="374.0" y="974.0" type="line"/>
      <point x="373.0" y="973.12" type="line"/>
      <point x="372.0" y="974.0" type="line"/>
    </contour>
    <contour>
      <point x="40.0" y="0.0" type="line"/>
      <point x="202.0" y="0.0" type="line"/>
      <point x="274.55" y="177.0" type="line"/>
      <point x="538.37" y="177.0" type="line"/>
      <point x="610.92" y="0.0" type="line"/>
      <point x="772.92" y="0.0" type="line"/>
      <point x="488.92" y="700.0" type="line"/>
      <point x="324.0" y="700.0" type="line"/>
    </contour>
    <contour>
      <point x="492.87" y="288.0" type="line"/>
      <point x="320.04" y="288.0" type="line"/>
      <point x="406.46" y="498.82" type="line"/>
    </contour>
  </outline>
</glyph>
<glyph name="Atilde" format="2">
  <advance width="813.0"/>
  <unicode hex="00C3"/>
  <note>
Atilde
</note>
  <outline>
    <contour>
      <point x="515.0" y="943.0" type="curve"/>
      <point x="402.0" y="943.0" type="line"/>
      <point x="444.74" y="918.57"/>
      <point x="459.86" y="886.33"/>
      <point x="459.86" y="868.11" type="curve" smooth="yes"/>
      <point x="459.86" y="859.48"/>
      <point x="456.46" y="854.0"/>
      <point x="451.0" y="854.0" type="curve" smooth="yes"/>
      <point x="428.0" y="854.0"/>
      <point x="407.0" y="883.0"/>
      <point x="383.0" y="900.0" type="curve" smooth="yes"/>
      <point x="339.0" y="931.0"/>
      <point x="316.0" y="943.0"/>
      <point x="274.0" y="943.0" type="curve" smooth="yes"/>
      <point x="209.28" y="943.0"/>
      <point x="178.86" y="902.37"/>
      <point x="178.86" y="856.84" type="curve" smooth="yes"/>
      <point x="178.86" y="827.79"/>
      <point x="191.24" y="796.75"/>
      <point x="215.0" y="772.99" type="curve"/>
      <point x="334.0" y="772.99" type="line"/>
      <point x="291.28" y="797.4"/>
      <point x="275.69" y="829.63"/>
      <point x="275.69" y="847.85" type="curve" smooth="yes"/>
      <point x="275.69" y="856.5"/>
      <point x="279.2" y="861.99"/>
      <point x="285.0" y="861.99" type="curve" smooth="yes"/>
      <point x="309.0" y="861.99"/>
      <point x="330.0" y="832.99"/>
      <point x="370.0" y="804.99" type="curve" smooth="yes"/>
      <point x="394.0" y="786.99"/>
      <point x="425.0" y="772.99"/>
      <point x="462.0" y="772.99" type="curve" smooth="yes"/>
      <point x="524.86" y="772.99"/>
      <point x="560.16" y="819.56"/>
      <point x="560.16" y="866.08" type="curve" smooth="yes"/>
      <point x="560.16" y="895.78"/>
      <point x="545.78" y="925.46"/>
    </contour>
    <contour>
      <point x="40.0" y="0.0" type="line"/>
      <point x="202.0" y="0.0" type="line"/>
      <point x="274.55" y="177.0" type="line"/>
      <point x="538.37" y="177.0" type="line"/>
      <point x="610.92" y="0.0" type="line"/>
      <point x="772.92" y="0.0" type="line"/>
      <point x="488.92" y="700.0" type="line"/>
      <point x="324.0" y="700.0" type="line"/>
    </contour>
    <contour>
      <point x="492.87" y="288.0" type="line"/>
      <point x="320.04" y="288.0" type="line"/>
      <point x="406.46" y="498.82" type="line"/>
    </contour>
  </outline>
</glyph>
<glyph name="Adieresis" format="2">
  <advance width="813.0"/>
  <unicode hex="00C4"/>
  <note>
Adieresis
</note>
  <outline>
    <contour>
      <point x="221.92" y="761.0" type="line"/>
      <point x="375.92" y="761.0" type="line"/>
      <point x="375.92" y="885.0" type="line"/>
      <point x="221.92" y="885.0" type="line"/>
    </contour>
    <contour>
      <point x="469.92" y="761.0" type="line"/>
      <point x="623.92" y="761.0" type="line"/>
      <point x="623.92" y="885.0" type="line"/>
      <point x="469.92" y="885.0" type="line"/>
    </contour>
    <contour>
      <point x="40.0" y="0.0" type="line"/>
      <point x="202.0" y="0.0" type="line"/>
      <point x="274.55" y="177.0" type="line"/>
      <point x="538.37" y="177.0" type="line"/>
      <point x="610.92" y="0.0" type="line"/>
      <point x="772.92" y="0.0" type="line"/>
      <point x="488.92" y="700.0" type="line"/>
      <point x="324.0" y="700.0" type="line"/>
    </contour>
    <contour>
      <point x="492.87" y="288.0" type="line"/>
      <point x="320.04" y="288.0" type="line"/>
      <point x="406.46" y="498.82" type="line"/>
    </contour>
  </outline>
</glyph>
<glyph name="AE" format="2">
  <advance width="1070.0"/>
  <unicode hex="00C6"/>
  <note>
AE
</note>
  <outline>
    <contour>
      <point x="487.0" y="0.0" type="line"/>
      <point x="1066.0" y="0.0" type="line"/>
      <point x="1066.0" y="124.0" type="line"/>
      <point x="641.0" y="124.0" type="line"/>
      <point x="641.0" y="296.0" type="line"/>
      <point x="1046.0" y="296.0" type="line"/>
      <point x="1046.0" y="420.0" type="line"/>
      <point x="641.0" y="420.0" type="line"/>
      <point x="641.0" y="576.0" type="line"/>
      <point x="1056.0" y="576.0" type="line"/>
      <point x="1056.0" y="700.0" type="line"/>
      <point x="406.0" y="700.0" type="line"/>
      <point x="8.0" y="0.0" type="line"/>
      <point x="181.0" y="0.0" type="line"/>
      <point x="280.0" y="175.0" type="line"/>
      <point x="487.0" y="175.0" type="line"/>
    </contour>
    <contour>
      <point x="343.0" y="286.0" type="line"/>
      <point x="487.0" y="540.77" type="line"/>
      <point x="487.0" y="286.0" type="line"/>
    </contour>
  </outline>
</glyph>
<glyph name="Ccedilla" format="2">
  <advance width="745.0"/>
  <unicode hex="00C7"/>
  <note>
Ccedilla
</note>
  <outline>
    <contour>
      <point x="413.99" y="109.98" type="curve" smooth="yes"/>
      <point x="299.0" y="110.0"/>
      <point x="214.0" y="206.0"/>
      <point x="214.0" y="348.0" type="curve" smooth="yes"/>
      <point x="214.0" y="492.0"/>
      <point x="300.0" y="590.0"/>
      <point x="414.0" y="590.0" type="curve" smooth="yes"/>
      <point x="489.0" y="590.0"/>
      <point x="548.0" y="556.0"/>
      <point x="590.0" y="477.0" type="curve"/>
      <point x="725.0" y="545.0" type="line"/>
      <point x="670.0" y="637.0"/>
      <point x="555.0" y="705.0"/>
      <point x="414.0" y="705.0" type="curve" smooth="yes"/>
      <point x="194.0" y="705.0"/>
      <point x="50.0" y="538.0"/>
      <point x="50.0" y="348.0" type="curve" smooth="yes"/>
      <point x="50.0" y="178.62"/>
      <point x="168.51" y="27.91"/>
      <point x="351.41" y="-0.29" type="curve"/>
      <point x="305.0" y="-102.01" type="line"/>
      <point x="396.0" y="-102.01" type="line"/>
      <point x="400.0" y="-95.01"/>
      <point x="409.0" y="-87.01"/>
      <point x="421.0" y="-87.01" type="curve" smooth="yes"/>
      <point x="429.55" y="-87.01"/>
      <point x="438.84" y="-91.4"/>
      <point x="438.84" y="-104.56" type="curve" smooth="yes"/>
      <point x="438.84" y="-106.79"/>
      <point x="438.57" y="-109.26"/>
      <point x="437.99" y="-112.01" type="curve" smooth="yes"/>
      <point x="433.99" y="-131.01"/>
      <point x="407.99" y="-143.01"/>
      <point x="376.99" y="-143.01" type="curve" smooth="yes"/>
      <point x="340.99" y="-143.01"/>
      <point x="304.99" y="-129.01"/>
      <point x="292.99" y="-119.01" type="curve"/>
      <point x="292.99" y="-188.01" type="line"/>
      <point x="309.99" y="-200.01"/>
      <point x="338.99" y="-206.01"/>
      <point x="370.99" y="-206.01" type="curve" smooth="yes"/>
      <point x="424.99" y="-206.01"/>
      <point x="499.99" y="-185.01"/>
      <point x="514.99" y="-115.01" type="curve" smooth="yes"/>
      <point x="516.35" y="-108.23"/>
      <point x="516.99" y="-101.86"/>
      <point x="516.99" y="-95.9" type="curve" smooth="yes"/>
      <point x="516.99" y="-49.04"/>
      <point x="477.46" y="-27.01"/>
      <point x="433.99" y="-27.01" type="curve" smooth="yes"/>
      <point x="415.99" y="-27.01"/>
      <point x="394.99" y="-34.01"/>
      <point x="386.99" y="-39.01" type="curve"/>
      <point x="410.8" y="-5.0" type="line"/>
      <point x="411.86" y="-5.01"/>
      <point x="412.93" y="-5.02"/>
      <point x="413.99" y="-5.02" type="curve" smooth="yes"/>
      <point x="553.99" y="-5.02"/>
      <point x="668.99" y="60.98"/>
      <point x="722.99" y="150.98" type="curve"/>
      <point x="586.99" y="216.98" type="line"/>
      <point x="544.99" y="141.98"/>
      <point x="486.99" y="109.98"/>
    </contour>
  </outline>
</glyph>
<glyph name="Egrave" format="2">
  <advance width="669.0"/>
  <unicode hex="00C8"/>
  <note>
Egrave
</note>
  <outline>
    <contour>
      <point x="477.0" y="777.0" type="line"/>
      <point x="264.0" y="976.0" type="line"/>
      <point x="187.0" y="848.0" type="line"/>
      <point x="359.0" y="741.0" type="line"/>
    </contour>
    <contour>
      <point x="50.0" y="700.0" type="line"/>
      <point x="50.0" y="0.0" type="line"/>
      <point x="629.0" y="0.0" type="line"/>
      <point x="629.0" y="124.0" type="line"/>
      <point x="204.0" y="124.0" type="line"/>
      <point x="204.0" y="296.0" type="line"/>
      <point x="609.0" y="296.0" type="line"/>
      <point x="609.0" y="420.0" type="line"/>
      <point x="204.0" y="420.0" type="line"/>
      <point x="204.0" y="576.0" type="line"/>
      <point x="619.0" y="576.0" type="line"/>
      <point x="619.0" y="700.0" type="line"/>
    </contour>
  </outline>
</glyph>
<glyph name="Ecircumflex" format="2">
  <advance width="669.0"/>
  <unicode hex="00CA"/>
  <note>
Ecircumflex
</note>
  <outline>
    <contour>
      <point x="302.46" y="959.46" type="line"/>
      <point x="104.0" y="785.0" type="line"/>
      <point x="226.0" y="747.0" type="line"/>
      <point x="318.0" y="833.42" type="line"/>
      <point x="410.0" y="747.0" type="line"/>
      <point x="532.0" y="785.0" type="line"/>
      <point x="333.54" y="959.46" type="line"/>
      <point x="319.0" y="974.0" type="line"/>
      <point x="318.0" y="973.12" type="line"/>
      <point x="317.0" y="974.0" type="line"/>
    </contour>
    <contour>
      <point x="50.0" y="700.0" type="line"/>
      <point x="50.0" y="0.0" type="line"/>
      <point x="629.0" y="0.0" type="line"/>
      <point x="629.0" y="124.0" type="line"/>
      <point x="204.0" y="124.0" type="line"/>
      <point x="204.0" y="296.0" type="line"/>
      <point x="609.0" y="296.0" type="line"/>
      <point x="609.0" y="420.0" type="line"/>
      <point x="204.0" y="420.0" type="line"/>
      <point x="204.0" y="576.0" type="line"/>
      <point x="619.0" y="576.0" type="line"/>
      <point x="619.0" y="700.0" type="line"/>
    </contour>
  </outline>
</glyph>
<glyph name="Igrave" format="2">
  <advance width="294.0"/>
  <unicode hex="00CC"/>
  <note>
Igrave
</note>
  <outline>
    <contour>
      <point x="290.0" y="777.0" type="line"/>
      <point x="77.0" y="976.0" type="line"/>
      <point x="0.0" y="848.0" type="line"/>
      <point x="172.0" y="741.0" type="line"/>
    </contour>
    <contour>
      <point x="70.0" y="0.0" type="line"/>
      <point x="224.0" y="0.0" type="line"/>
      <point x="224.0" y="700.0" type="line"/>
      <point x="70.0" y="700.0" type="line"/>
    </contour>
  </outline>
</glyph>
<glyph name="Iacute" format="2">
  <advance width="294"/>
  <unicode hex="00CD"/>
  <outline>
    <contour>
      <point x="70" y="0" type="line"/>
      <point x="224" y="0" type="line"/>
      <point x="224" y="700" type="line"/>
      <point x="70" y="700" type="line"/>
    </contour>
    <contour>
      <point x="118" y="741" type="line"/>
      <point x="290" y="848" type="line"/>
      <point x="213" y="976" type="line"/>
      <point x="0" y="777" type="line"/>
    </contour>
  </outline>
</glyph>
<glyph name="Eth" format="2">
  <advance width="806"/>
  <unicode hex="00D0"/>
  <outline>
    <contour>
      <point x="186" y="0" type="line"/>
      <point x="411" y="0" type="line" smooth="yes"/>
      <point x="632" y="0"/>
      <point x="791" y="109"/>
      <point x="791" y="351" type="curve" smooth="yes"/>
      <point x="791" y="599"/>
      <point x="610" y="700"/>
      <point x="396" y="700" type="curve" smooth="yes"/>
      <point x="186" y="700" type="line"/>
      <point x="186" y="366" type="line"/>
      <point x="59" y="366" type="line"/>
      <point x="59" y="250" type="line"/>
      <point x="186" y="250" type="line"/>
    </contour>
    <contour>
      <point x="339.65" y="115" type="line"/>
      <point x="339.73" y="250" type="line"/>
      <point x="518" y="250" type="line"/>
      <point x="518" y="366" type="line"/>
      <point x="339.8" y="366" type="line"/>
      <point x="339.93" y="585" type="line"/>
      <point x="396" y="585" type="line" smooth="yes"/>
      <point x="537.49" y="585"/>
      <point x="632" y="528"/>
      <point x="632" y="351" type="curve" smooth="yes"/>
      <point x="632" y="176"/>
      <point x="559" y="115"/>
      <point x="411" y="115" type="curve" smooth="yes"/>
    </contour>
  </outline>
</glyph>
<glyph name="Otilde" format="2">
  <advance width="828.0"/>
  <unicode hex="00D5"/>
  <note>
Otilde
</note>
  <outline>
    <contour>
      <point x="522.0" y="943.0" type="curve"/>
      <point x="409.0" y="943.0" type="line"/>
      <point x="451.74" y="918.57"/>
      <point x="466.86" y="886.33"/>
      <point x="466.86" y="868.11" type="curve" smooth="yes"/>
      <point x="466.86" y="859.48"/>
      <point x="463.46" y="854.0"/>
      <point x="458.0" y="854.0" type="curve" smooth="yes"/>
      <point x="435.0" y="854.0"/>
      <point x="414.0" y="883.0"/>
      <point x="390.0" y="900.0" type="curve" smooth="yes"/>
      <point x="346.0" y="931.0"/>
      <point x="323.0" y="943.0"/>
      <point x="281.0" y="943.0" type="curve" smooth="yes"/>
      <point x="216.28" y="943.0"/>
      <point x="185.86" y="902.37"/>
      <point x="185.86" y="856.84" type="curve" smooth="yes"/>
      <point x="185.86" y="827.79"/>
      <point x="198.24" y="796.75"/>
      <point x="222.0" y="772.99" type="curve"/>
      <point x="341.0" y="772.99" type="line"/>
      <point x="298.28" y="797.4"/>
      <point x="282.69" y="829.63"/>
      <point x="282.69" y="847.85" type="curve" smooth="yes"/>
      <point x="282.69" y="856.5"/>
      <point x="286.2" y="861.99"/>
      <point x="292.0" y="861.99" type="curve" smooth="yes"/>
      <point x="316.0" y="861.99"/>
      <point x="337.0" y="832.99"/>
      <point x="377.0" y="804.99" type="curve" smooth="yes"/>
      <point x="401.0" y="786.99"/>
      <point x="432.0" y="772.99"/>
      <point x="469.0" y="772.99" type="curve" smooth="yes"/>
      <point x="531.86" y="772.99"/>
      <point x="567.16" y="819.56"/>
      <point x="567.16" y="866.08" type="curve" smooth="yes"/>
      <point x="567.16" y="895.78"/>
      <point x="552.78" y="925.46"/>
    </contour>
    <contour>
      <point x="414.0" y="-5.0" type="curve" smooth="yes"/>
      <point x="634.0" y="-5.0"/>
      <point x="778.0" y="160.0"/>
      <point x="778.0" y="348.0" type="curve" smooth="yes"/>
      <point x="778.0" y="538.0"/>
      <point x="634.0" y="705.0"/>
      <point x="414.0" y="705.0" type="curve" smooth="yes"/>
      <point x="194.0" y="705.0"/>
      <point x="50.0" y="538.0"/>
      <point x="50.0" y="348.0" type="curve" smooth="yes"/>
      <point x="50.0" y="160.0"/>
      <point x="195.0" y="-5.0"/>
    </contour>
    <contour>
      <point x="414.0" y="110.0" type="curve" smooth="yes"/>
      <point x="289.0" y="110.0"/>
      <point x="204.0" y="206.0"/>
      <point x="204.0" y="348.0" type="curve" smooth="yes"/>
      <point x="204.0" y="492.0"/>
      <point x="290.0" y="590.0"/>
      <point x="414.0" y="590.0" type="curve" smooth="yes"/>
      <point x="539.0" y="590.0"/>
      <point x="624.0" y="492.0"/>
      <point x="624.0" y="348.0" type="curve" smooth="yes"/>
      <point x="624.0" y="206.0"/>
      <point x="539.0" y="110.0"/>
    </contour>
  </outline>
</glyph>
<glyph name="multiply" format="2">
  <advance width="600.0"/>
  <unicode hex="00D7"/>
  <note>
multiply
</note>
  <outline>
    <contour>
      <point x="217.7" y="282.7" type="line"/>
      <point x="15.0" y="80.0" type="line"/>
      <point x="105.0" y="-14.0" type="line"/>
      <point x="309.79" y="190.79" type="line"/>
      <point x="512.0" y="-11.0" type="line"/>
      <point x="606.0" y="80.0" type="line"/>
      <point x="402.5" y="283.5" type="line"/>
      <point x="605.0" y="486.0" type="line"/>
      <point x="515.0" y="580.0" type="line"/>
      <point x="310.5" y="375.5" type="line"/>
      <point x="106.0" y="580.0" type="line"/>
      <point x="14.0" y="486.0" type="line"/>
    </contour>
  </outline>
</glyph>
<glyph name="Oslash" format="2">
  <advance width="828.0"/>
  <unicode hex="00D8"/>
  <note>
Oslash
</note>
  <outline>
    <contour>
      <point x="561.83" y="676.71" type="curve"/>
      <point x="591.0" y="775.0" type="line"/>
      <point x="471.0" y="775.0" type="line"/>
      <point x="449.78" y="703.49" type="line"/>
      <point x="438.09" y="704.49"/>
      <point x="426.16" y="705.0"/>
      <point x="414.0" y="705.0" type="curve" smooth="yes"/>
      <point x="194.0" y="705.0"/>
      <point x="50.0" y="538.0"/>
      <point x="50.0" y="348.0" type="curve" smooth="yes"/>
      <point x="50.0" y="212.29"/>
      <point x="125.56" y="88.56"/>
      <point x="249.97" y="30.24" type="curve"/>
      <point x="222.0" y="-64.0" type="line"/>
      <point x="342.0" y="-64.0" type="line"/>
      <point x="360.52" y="-1.6" type="line"/>
      <point x="377.8" y="-3.84"/>
      <point x="395.64" y="-5.0"/>
      <point x="414.0" y="-5.0" type="curve" smooth="yes"/>
      <point x="634.0" y="-5.0"/>
      <point x="778.0" y="160.0"/>
      <point x="778.0" y="348.0" type="curve" smooth="yes"/>
      <point x="778.0" y="491.16"/>
      <point x="696.25" y="621.27"/>
    </contour>
    <contour>
      <point x="204.0" y="348.0" type="curve" smooth="yes"/>
      <point x="204.0" y="492.0"/>
      <point x="290.0" y="590.0"/>
      <point x="414.0" y="590.0" type="curve" smooth="yes"/>
      <point x="414.7" y="590.0"/>
      <point x="415.4" y="590.0"/>
      <point x="416.09" y="589.99" type="curve"/>
      <point x="286.31" y="152.7" type="line"/>
      <point x="234.69" y="193.96"/>
      <point x="204.0" y="262.68"/>
    </contour>
    <contour>
      <point x="414.0" y="110.0" type="curve" smooth="yes"/>
      <point x="407.18" y="110.0"/>
      <point x="400.47" y="110.29"/>
      <point x="393.89" y="110.85" type="curve"/>
      <point x="526.49" y="557.64" type="line"/>
      <point x="587.23" y="517.52"/>
      <point x="624.0" y="442.71"/>
      <point x="624.0" y="348.0" type="curve" smooth="yes"/>
      <point x="624.0" y="206.0"/>
      <point x="539.0" y="110.0"/>
    </contour>
  </outline>
</glyph>
<glyph name="Uacute" format="2">
  <advance width="622.0"/>
  <unicode hex="00DA"/>
  <note>
Uacute
</note>
  <outline>
    <contour>
      <point x="454.0" y="848.0" type="line"/>
      <point x="377.0" y="976.0" type="line"/>
      <point x="164.0" y="777.0" type="line"/>
      <point x="282.0" y="741.0" type="line"/>
    </contour>
    <contour>
      <point x="589.0" y="228.0" type="curve"/>
      <point x="588.0" y="700.0" type="line"/>
      <point x="435.0" y="700.0" type="line"/>
      <point x="435.0" y="228.0" type="line" smooth="yes"/>
      <point x="435.0" y="133.0"/>
      <point x="386.0" y="100.0"/>
      <point x="311.0" y="100.0" type="curve" smooth="yes"/>
      <point x="236.0" y="100.0"/>
      <point x="187.0" y="133.0"/>
      <point x="187.0" y="228.0" type="curve" smooth="yes"/>
      <point x="187.0" y="700.0" type="line"/>
      <point x="34.0" y="700.0" type="line"/>
      <point x="33.0" y="228.0" type="line" smooth="yes"/>
      <point x="33.0" y="69.0"/>
      <point x="153.0" y="-12.0"/>
      <point x="311.0" y="-12.0" type="curve" smooth="yes"/>
      <point x="469.0" y="-12.0"/>
      <point x="589.0" y="69.0"/>
    </contour>
  </outline>
</glyph>
<glyph name="Ucircumflex" format="2">
  <advance width="622.0"/>
  <unicode hex="00DB"/>
  <note>
Ucircumflex
</note>
  <outline>
    <contour>
      <point x="296.46" y="959.46" type="line"/>
      <point x="98.0" y="785.0" type="line"/>
      <point x="220.0" y="747.0" type="line"/>
      <point x="312.0" y="833.42" type="line"/>
      <point x="404.0" y="747.0" type="line"/>
      <point x="526.0" y="785.0" type="line"/>
      <point x="327.54" y="959.46" type="line"/>
      <point x="313.0" y="974.0" type="line"/>
      <point x="312.0" y="973.12" type="line"/>
      <point x="311.0" y="974.0" type="line"/>
    </contour>
    <contour>
      <point x="589.0" y="228.0" type="curve"/>
      <point x="588.0" y="700.0" type="line"/>
      <point x="435.0" y="700.0" type="line"/>
      <point x="435.0" y="228.0" type="line" smooth="yes"/>
      <point x="435.0" y="133.0"/>
      <point x="386.0" y="100.0"/>
      <point x="311.0" y="100.0" type="curve" smooth="yes"/>
      <point x="236.0" y="100.0"/>
      <point x="187.0" y="133.0"/>
      <point x="187.0" y="228.0" type="curve" smooth="yes"/>
      <point x="187.0" y="700.0" type="line"/>
      <point x="34.0" y="700.0" type="line"/>
      <point x="33.0" y="228.0" type="line" smooth="yes"/>
      <point x="33.0" y="69.0"/>
      <point x="153.0" y="-12.0"/>
      <point x="311.0" y="-12.0" type="curve" smooth="yes"/>
      <point x="469.0" y="-12.0"/>
      <point x="589.0" y="69.0"/>
    </contour>
  </outline>
</glyph>
<glyph name="Thorn" format="2">
  <advance width="531.0"/>
  <unicode hex="00DE"/>
  <note>
Thorn
</note>
  <outline>
    <contour>
      <point x="294.0" y="600.0" type="curve" smooth="yes"/>
      <point x="186.0" y="600.0" type="line"/>
      <point x="186.0" y="700.0" type="line"/>
      <point x="32.0" y="700.0" type="line"/>
      <point x="32.0" y="0.0" type="line"/>
      <point x="186.0" y="0.0" type="line"/>
      <point x="186.0" y="193.0" type="line"/>
      <point x="288.0" y="193.0" type="line" smooth="yes"/>
      <point x="403.0" y="193.0"/>
      <point x="529.0" y="249.0"/>
      <point x="529.0" y="399.0" type="curve" smooth="yes"/>
      <point x="529.0" y="546.0"/>
      <point x="397.0" y="600.0"/>
    </contour>
    <contour>
      <point x="288.0" y="309.0" type="curve" smooth="yes"/>
      <point x="186.0" y="309.0" type="line"/>
      <point x="186.0" y="485.0" type="line"/>
      <point x="291.0" y="485.0" type="line" smooth="yes"/>
      <point x="344.0" y="485.0"/>
      <point x="375.0" y="463.0"/>
      <point x="375.0" y="399.0" type="curve" smooth="yes"/>
      <point x="375.0" y="334.0"/>
      <point x="344.0" y="309.0"/>
    </contour>
  </outline>
</glyph>
<glyph name="germandbls" format="2">
  <advance width="596.0"/>
  <unicode hex="00DF"/>
  <note>
germandbls
</note>
  <outline>
    <contour>
      <point x="31.0" y="524.0" type="curve" smooth="yes"/>
      <point x="31.0" y="4.0" type="line"/>
      <point x="183.0" y="4.0" type="line"/>
      <point x="183.0" y="517.0" type="line" smooth="yes"/>
      <point x="183.0" y="562.0"/>
      <point x="206.0" y="583.0"/>
      <point x="253.0" y="583.0" type="curve" smooth="yes"/>
      <point x="304.0" y="583.0"/>
      <point x="327.0" y="562.0"/>
      <point x="327.0" y="517.0" type="curve" smooth="yes"/>
      <point x="327.0" y="471.0"/>
      <point x="304.0" y="447.0"/>
      <point x="250.0" y="447.0" type="curve" smooth="yes"/>
      <point x="214.0" y="447.0" type="line"/>
      <point x="214.0" y="352.0" type="line"/>
      <point x="304.0" y="352.0" type="line" smooth="yes"/>
      <point x="385.0" y="352.0"/>
      <point x="437.0" y="312.0"/>
      <point x="437.0" y="227.0" type="curve" smooth="yes"/>
      <point x="437.0" y="146.0"/>
      <point x="389.0" y="117.0"/>
      <point x="299.0" y="117.0" type="curve" smooth="yes"/>
      <point x="269.0" y="117.0"/>
      <point x="229.0" y="132.0"/>
      <point x="211.0" y="144.0" type="curve"/>
      <point x="211.0" y="26.0" type="line"/>
      <point x="227.0" y="17.0"/>
      <point x="264.0" y="4.0"/>
      <point x="308.0" y="4.0" type="curve" smooth="yes"/>
      <point x="466.0" y="4.0"/>
      <point x="590.0" y="80.0"/>
      <point x="590.0" y="227.0" type="curve" smooth="yes"/>
      <point x="590.0" y="324.0"/>
      <point x="538.0" y="393.0"/>
      <point x="447.0" y="426.0" type="curve"/>
      <point x="469.0" y="455.0"/>
      <point x="479.0" y="486.0"/>
      <point x="479.0" y="526.0" type="curve" smooth="yes"/>
      <point x="479.0" y="653.0"/>
      <point x="365.0" y="696.0"/>
      <point x="253.0" y="696.0" type="curve" smooth="yes"/>
      <point x="137.0" y="696.0"/>
      <point x="31.0" y="653.0"/>
    </contour>
  </outline>
</glyph>
<glyph name="atilde" format="2">
  <advance width="568.0"/>
  <unicode hex="00E3"/>
  <note>
atilde
</note>
  <outline>
    <contour>
      <point x="422.0" y="752.0" type="curve"/>
      <point x="309.0" y="752.0" type="line"/>
      <point x="351.74" y="727.57"/>
      <point x="366.86" y="695.33"/>
      <point x="366.86" y="677.11" type="curve" smooth="yes"/>
      <point x="366.86" y="668.48"/>
      <point x="363.46" y="663.0"/>
      <point x="358.0" y="663.0" type="curve" smooth="yes"/>
      <point x="335.0" y="663.0"/>
      <point x="314.0" y="692.0"/>
      <point x="290.0" y="709.0" type="curve" smooth="yes"/>
      <point x="246.0" y="740.0"/>
      <point x="223.0" y="752.0"/>
      <point x="181.0" y="752.0" type="curve" smooth="yes"/>
      <point x="116.28" y="752.0"/>
      <point x="85.86" y="711.37"/>
      <point x="85.86" y="665.84" type="curve" smooth="yes"/>
      <point x="85.86" y="636.79"/>
      <point x="98.24" y="605.75"/>
      <point x="122.0" y="581.99" type="curve"/>
      <point x="241.0" y="581.99" type="line"/>
      <point x="198.28" y="606.4"/>
      <point x="182.69" y="638.63"/>
      <point x="182.69" y="656.85" type="curve" smooth="yes"/>
      <point x="182.69" y="665.5"/>
      <point x="186.2" y="670.99"/>
      <point x="192.0" y="670.99" type="curve" smooth="yes"/>
      <point x="216.0" y="670.99"/>
      <point x="237.0" y="641.99"/>
      <point x="277.0" y="613.99" type="curve" smooth="yes"/>
      <point x="301.0" y="595.99"/>
      <point x="332.0" y="581.99"/>
      <point x="369.0" y="581.99" type="curve" smooth="yes"/>
      <point x="431.86" y="581.99"/>
      <point x="467.16" y="628.56"/>
      <point x="467.16" y="675.08" type="curve" smooth="yes"/>
      <point x="467.16" y="704.78"/>
      <point x="452.78" y="734.46"/>
    </contour>
    <contour>
      <point x="292.0" y="508.99" type="curve" smooth="yes"/>
      <point x="171.21" y="509.0"/>
      <point x="69.64" y="440.96"/>
      <point x="69.64" y="358.59" type="curve" smooth="yes"/>
      <point x="69.64" y="348.9"/>
      <point x="71.05" y="339.0"/>
      <point x="74.0" y="329.0" type="curve"/>
      <point x="221.75" y="329.0" type="line"/>
      <point x="221.4" y="330.05"/>
      <point x="220.99" y="333.07"/>
      <point x="220.99" y="337.35" type="curve" smooth="yes"/>
      <point x="220.99" y="357.81"/>
      <point x="230.4" y="407.02"/>
      <point x="300.91" y="407.02" type="curve" smooth="yes"/>
      <point x="343.94" y="407.02"/>
      <point x="363.47" y="388.07"/>
      <point x="363.47" y="353.78" type="curve" smooth="yes"/>
      <point x="363.47" y="315.24"/>
      <point x="319.63" y="303.23"/>
      <point x="253.0" y="296.99" type="curve" smooth="yes"/>
      <point x="89.12" y="281.65"/>
      <point x="30.0" y="224.56"/>
      <point x="30.0" y="142.99" type="curve" smooth="yes"/>
      <point x="30.0" y="55.99"/>
      <point x="90.0" y="-13.01"/>
      <point x="220.0" y="-13.01" type="curve" smooth="yes"/>
      <point x="292.57" y="-13.01"/>
      <point x="337.9" y="15.92"/>
      <point x="365.18" y="57.4" type="curve"/>
      <point x="365.0" y="-0.01" type="line"/>
      <point x="518.0" y="-0.01" type="line"/>
      <point x="518.0" y="300.99" type="line" smooth="yes"/>
      <point x="518.0" y="378.99"/>
      <point x="499.0" y="508.99"/>
    </contour>
    <contour>
      <point x="250.0" y="80.99" type="curve" smooth="yes"/>
      <point x="201.0" y="80.99"/>
      <point x="178.0" y="115.99"/>
      <point x="178.0" y="147.99" type="curve" smooth="yes"/>
      <point x="178.0" y="187.99"/>
      <point x="216.0" y="206.99"/>
      <point x="263.0" y="212.99" type="curve" smooth="yes"/>
      <point x="299.13" y="217.36"/>
      <point x="334.47" y="225.82"/>
      <point x="365.2" y="238.82" type="curve"/>
      <point x="365.36" y="228.8" type="line" smooth="yes"/>
      <point x="365.3" y="121.2"/>
      <point x="308.04" y="80.99"/>
    </contour>
  </outline>
</glyph>
<glyph name="ccedilla" format="2">
  <advance width="599.0"/>
  <unicode hex="00E7"/>
  <note>
ccedilla
</note>
  <outline>
    <contour>
      <point x="581.11" y="149.61" type="curve"/>
      <point x="447.13" y="202.82" type="line"/>
      <point x="428.4" y="135.82"/>
      <point x="395.45" y="94.0"/>
      <point x="312.0" y="94.0" type="curve" smooth="yes"/>
      <point x="222.0" y="94.0"/>
      <point x="174.0" y="157.03"/>
      <point x="174.0" y="245.0" type="curve" smooth="yes"/>
      <point x="174.0" y="350.0"/>
      <point x="238.0" y="406.0"/>
      <point x="318.0" y="406.0" type="curve" smooth="yes"/>
      <point x="374.99" y="406.0"/>
      <point x="432.01" y="366.54"/>
      <point x="432.01" y="302.68" type="curve"/>
      <point x="565.0" y="365.0" type="line"/>
      <point x="537.0" y="452.0"/>
      <point x="448.0" y="511.0"/>
      <point x="318.0" y="511.0" type="curve" smooth="yes"/>
      <point x="154.0" y="511.0"/>
      <point x="30.0" y="413.0"/>
      <point x="30.0" y="245.0" type="curve" smooth="yes"/>
      <point x="30.0" y="99.39"/>
      <point x="132.63" y="12.32"/>
      <point x="256.36" y="-7.6" type="curve"/>
      <point x="211.0" y="-107.01" type="line"/>
      <point x="302.0" y="-107.01" type="line"/>
      <point x="306.0" y="-100.01"/>
      <point x="315.0" y="-92.01"/>
      <point x="327.0" y="-92.01" type="curve" smooth="yes"/>
      <point x="335.56" y="-92.01"/>
      <point x="344.84" y="-96.4"/>
      <point x="344.84" y="-109.56" type="curve" smooth="yes"/>
      <point x="344.84" y="-111.79"/>
      <point x="344.58" y="-114.26"/>
      <point x="344.0" y="-117.01" type="curve" smooth="yes"/>
      <point x="340.0" y="-136.01"/>
      <point x="314.0" y="-148.01"/>
      <point x="283.0" y="-148.01" type="curve" smooth="yes"/>
      <point x="247.0" y="-148.01"/>
      <point x="211.0" y="-134.01"/>
      <point x="199.0" y="-124.01" type="curve"/>
      <point x="199.0" y="-193.01" type="line"/>
      <point x="216.0" y="-205.01"/>
      <point x="245.0" y="-211.01"/>
      <point x="277.0" y="-211.01" type="curve" smooth="yes"/>
      <point x="331.0" y="-211.01"/>
      <point x="406.0" y="-190.01"/>
      <point x="421.0" y="-120.01" type="curve" smooth="yes"/>
      <point x="422.35" y="-113.23"/>
      <point x="422.99" y="-106.86"/>
      <point x="422.99" y="-100.9" type="curve" smooth="yes"/>
      <point x="422.99" y="-54.04"/>
      <point x="383.46" y="-32.01"/>
      <point x="340.0" y="-32.01" type="curve" smooth="yes"/>
      <point x="322.0" y="-32.01"/>
      <point x="301.0" y="-39.01"/>
      <point x="293.0" y="-44.01" type="curve"/>
      <point x="315.41" y="-12.0" type="line"/>
      <point x="446.53" y="-11.13"/>
      <point x="535.1" y="40.28"/>
    </contour>
  </outline>
</glyph>
<glyph name="ecircumflex" format="2">
  <advance width="574.0"/>
  <unicode hex="00EA"/>
  <note>
ecircumflex
</note>
  <outline>
    <contour>
      <point x="264.46" y="760.46" type="line"/>
      <point x="66.0" y="586.0" type="line"/>
      <point x="188.0" y="548.0" type="line"/>
      <point x="280.0" y="634.42" type="line"/>
      <point x="372.0" y="548.0" type="line"/>
      <point x="494.0" y="586.0" type="line"/>
      <point x="295.54" y="760.46" type="line"/>
      <point x="281.0" y="775.0" type="line"/>
      <point x="280.0" y="774.12" type="line"/>
      <point x="279.0" y="775.0" type="line"/>
    </contour>
    <contour>
      <point x="554.31" y="127.58" type="curve"/>
      <point x="430.99" y="186.0" type="line"/>
      <point x="412.99" y="132.0"/>
      <point x="376.94" y="95.0"/>
      <point x="313.99" y="95.0" type="curve" smooth="yes"/>
      <point x="225.28" y="95.0"/>
      <point x="187.49" y="142.03"/>
      <point x="178.47" y="215.45" type="curve"/>
      <point x="538.99" y="215.45" type="line"/>
      <point x="545.06" y="241.94"/>
      <point x="548.0" y="267.07"/>
      <point x="548.0" y="290.66" type="curve" smooth="yes"/>
      <point x="548.0" y="426.4"/>
      <point x="450.75" y="510.99"/>
      <point x="293.99" y="510.99" type="curve" smooth="yes"/>
      <point x="138.99" y="510.99"/>
      <point x="30.99" y="412.99"/>
      <point x="30.99" y="254.99" type="curve" smooth="yes"/>
      <point x="30.99" y="77.99"/>
      <point x="143.3" y="-11.94"/>
      <point x="303.99" y="-11.94" type="curve" smooth="yes"/>
      <point x="415.9" y="-11.94"/>
      <point x="519.12" y="35.48"/>
    </contour>
    <contour>
      <point x="297.99" y="405.99" type="curve" smooth="yes"/>
      <point x="358.79" y="405.99"/>
      <point x="395.56" y="375.6"/>
      <point x="395.56" y="326.06" type="curve" smooth="yes"/>
      <point x="395.56" y="320.19"/>
      <point x="395.04" y="314.06"/>
      <point x="393.99" y="307.67" type="curve"/>
      <point x="182.63" y="307.67" type="line"/>
      <point x="200.14" y="374.93"/>
      <point x="250.8" y="405.99"/>
    </contour>
  </outline>
</glyph>
<glyph name="iacute" format="2">
  <advance width="248.0"/>
  <unicode hex="00ED"/>
  <note>
iacute
</note>
  <outline>
    <contour>
      <point x="267.0" y="649.0" type="line"/>
      <point x="190.0" y="777.0" type="line"/>
      <point x="-23.0" y="578.0" type="line"/>
      <point x="95.0" y="542.0" type="line"/>
    </contour>
    <contour>
      <point x="48.0" y="0.0" type="line"/>
      <point x="200.0" y="0.0" type="line"/>
      <point x="200.0" y="500.0" type="line"/>
      <point x="48.0" y="500.0" type="line"/>
    </contour>
  </outline>
</glyph>
<glyph name="icircumflex" format="2">
  <advance width="248.0"/>
  <unicode hex="00EE"/>
  <note>
icircumflex
</note>
  <outline>
    <contour>
      <point x="109.46" y="760.46" type="line"/>
      <point x="-89.0" y="586.0" type="line"/>
      <point x="33.0" y="548.0" type="line"/>
      <point x="125.0" y="634.42" type="line"/>
      <point x="217.0" y="548.0" type="line"/>
      <point x="339.0" y="586.0" type="line"/>
      <point x="140.54" y="760.46" type="line"/>
      <point x="126.0" y="775.0" type="line"/>
      <point x="125.0" y="774.12" type="line"/>
      <point x="124.0" y="775.0" type="line"/>
    </contour>
    <contour>
      <point x="48.0" y="0.0" type="line"/>
      <point x="200.0" y="0.0" type="line"/>
      <point x="200.0" y="500.0" type="line"/>
      <point x="48.0" y="500.0" type="line"/>
    </contour>
  </outline>
</glyph>
<glyph name="idieresis" format="2">
  <advance width="248.0"/>
  <unicode hex="00EF"/>
  <note>
idieresis
</note>
  <outline>
    <contour>
      <point x="-77.0" y="562.0" type="line"/>
      <point x="77.0" y="562.0" type="line"/>
      <point x="77.0" y="686.0" type="line"/>
      <point x="-77.0" y="686.0" type="line"/>
    </contour>
    <contour>
      <point x="171.0" y="562.0" type="line"/>
      <point x="325.0" y="562.0" type="line"/>
      <point x="325.0" y="686.0" type="line"/>
      <point x="171.0" y="686.0" type="line"/>
    </contour>
    <contour>
      <point x="48.0" y="0.0" type="line"/>
      <point x="200.0" y="0.0" type="line"/>
      <point x="200.0" y="500.0" type="line"/>
      <point x="48.0" y="500.0" type="line"/>
    </contour>
  </outline>
</glyph>
<glyph name="eth" format="2">
  <advance width="573"/>
  <unicode hex="00F0"/>
  <outline>
    <contour>
      <point x="285.99" y="-4" type="curve" smooth="yes"/>
      <point x="481" y="-4"/>
      <point x="566" y="161"/>
      <point x="565.99" y="326" type="curve" smooth="yes"/>
      <point x="566" y="486.29"/>
      <point x="483.31" y="618.08"/>
      <point x="345.65" y="698.23" type="curve"/>
      <point x="393.99" y="740" type="line"/>
      <point x="330.99" y="814" type="line"/>
      <point x="248.94" y="742.74" type="line"/>
      <point x="190.94" y="763.29"/>
      <point x="126.52" y="776.41"/>
      <point x="56.99" y="781" type="curve"/>
      <point x="56.99" y="665" type="line"/>
      <point x="87.34" y="661.52"/>
      <point x="115.61" y="656.4"/>
      <point x="141.87" y="649.76" type="curve"/>
      <point x="102.99" y="615.99" type="line"/>
      <point x="165.99" y="542.99" type="line"/>
      <point x="244.73" y="611.03" type="line"/>
      <point x="295.51" y="584.11"/>
      <point x="334.48" y="548.9"/>
      <point x="362.56" y="507.18" type="curve"/>
      <point x="339.47" y="514.11"/>
      <point x="314.58" y="518"/>
      <point x="287.99" y="518" type="curve" smooth="yes"/>
      <point x="145" y="518"/>
      <point x="25" y="414"/>
      <point x="24.99" y="263" type="curve" smooth="yes"/>
      <point x="25" y="126"/>
      <point x="126" y="-4"/>
    </contour>
    <contour>
      <point x="290" y="108" type="curve" smooth="yes"/>
      <point x="228.99" y="108"/>
      <point x="178.99" y="171"/>
      <point x="178.99" y="267" type="curve" smooth="yes"/>
      <point x="178.99" y="350.65"/>
      <point x="226.15" y="406.88"/>
      <point x="290.67" y="406.88" type="curve" smooth="yes"/>
      <point x="340.11" y="406.88"/>
      <point x="414.99" y="369.33"/>
      <point x="414.99" y="251" type="curve" smooth="yes"/>
      <point x="415" y="195"/>
      <point x="387" y="115"/>
    </contour>
  </outline>
</glyph>
<glyph name="ocircumflex" format="2">
  <advance width="584.0"/>
  <unicode hex="00F4"/>
  <note>
ocircumflex
</note>
  <outline>
    <contour>
      <point x="252.46" y="760.46" type="line"/>
      <point x="54.0" y="586.0" type="line"/>
      <point x="176.0" y="548.0" type="line"/>
      <point x="268.0" y="634.42" type="line"/>
      <point x="360.0" y="548.0" type="line"/>
      <point x="482.0" y="586.0" type="line"/>
      <point x="283.54" y="760.46" type="line"/>
      <point x="269.0" y="775.0" type="line"/>
      <point x="268.0" y="774.12" type="line"/>
      <point x="267.0" y="775.0" type="line"/>
    </contour>
    <contour>
      <point x="302.0" y="-12.0" type="curve" smooth="yes"/>
      <point x="462.72" y="-12.0"/>
      <point x="571.93" y="108.0"/>
      <point x="571.93" y="247.0" type="curve" smooth="yes"/>
      <point x="571.93" y="387.0"/>
      <point x="462.72" y="510.0"/>
      <point x="302.0" y="510.0" type="curve" smooth="yes"/>
      <point x="141.27" y="510.0"/>
      <point x="32.06" y="387.0"/>
      <point x="32.06" y="247.0" type="curve" smooth="yes"/>
      <point x="32.06" y="108.0"/>
      <point x="141.27" y="-12.0"/>
    </contour>
    <contour>
      <point x="302.0" y="93.0" type="curve" smooth="yes"/>
      <point x="230.3" y="93.0"/>
      <point x="174.53" y="143.0"/>
      <point x="174.53" y="247.0" type="curve" smooth="yes"/>
      <point x="174.53" y="352.0"/>
      <point x="230.3" y="402.0"/>
      <point x="302.0" y="402.0" type="curve" smooth="yes"/>
      <point x="373.7" y="402.0"/>
      <point x="429.46" y="352.0"/>
      <point x="429.46" y="247.0" type="curve" smooth="yes"/>
      <point x="429.46" y="143.0"/>
      <point x="373.7" y="93.0"/>
    </contour>
  </outline>
</glyph>
<glyph name="otilde" format="2">
  <advance width="584.0"/>
  <unicode hex="00F5"/>
  <note>
otilde
</note>
  <outline>
    <contour>
      <point x="410.0" y="744.0" type="curve"/>
      <point x="297.0" y="744.0" type="line"/>
      <point x="339.74" y="719.57"/>
      <point x="354.86" y="687.33"/>
      <point x="354.86" y="669.11" type="curve" smooth="yes"/>
      <point x="354.86" y="660.48"/>
      <point x="351.46" y="655.0"/>
      <point x="346.0" y="655.0" type="curve" smooth="yes"/>
      <point x="323.0" y="655.0"/>
      <point x="302.0" y="684.0"/>
      <point x="278.0" y="701.0" type="curve" smooth="yes"/>
      <point x="234.0" y="732.0"/>
      <point x="211.0" y="744.0"/>
      <point x="169.0" y="744.0" type="curve" smooth="yes"/>
      <point x="104.28" y="744.0"/>
      <point x="73.86" y="703.37"/>
      <point x="73.86" y="657.84" type="curve" smooth="yes"/>
      <point x="73.86" y="628.79"/>
      <point x="86.24" y="597.75"/>
      <point x="110.0" y="573.99" type="curve"/>
      <point x="229.0" y="573.99" type="line"/>
      <point x="186.28" y="598.4"/>
      <point x="170.69" y="630.63"/>
      <point x="170.69" y="648.85" type="curve" smooth="yes"/>
      <point x="170.69" y="657.5"/>
      <point x="174.2" y="662.99"/>
      <point x="180.0" y="662.99" type="curve" smooth="yes"/>
      <point x="204.0" y="662.99"/>
      <point x="225.0" y="633.99"/>
      <point x="265.0" y="605.99" type="curve" smooth="yes"/>
      <point x="289.0" y="587.99"/>
      <point x="320.0" y="573.99"/>
      <point x="357.0" y="573.99" type="curve" smooth="yes"/>
      <point x="419.86" y="573.99"/>
      <point x="455.16" y="620.56"/>
      <point x="455.16" y="667.08" type="curve" smooth="yes"/>
      <point x="455.16" y="696.78"/>
      <point x="440.78" y="726.46"/>
    </contour>
    <contour>
      <point x="302.0" y="-12.0" type="curve" smooth="yes"/>
      <point x="462.72" y="-12.0"/>
      <point x="571.93" y="108.0"/>
      <point x="571.93" y="247.0" type="curve" smooth="yes"/>
      <point x="571.93" y="387.0"/>
      <point x="462.72" y="510.0"/>
      <point x="302.0" y="510.0" type="curve" smooth="yes"/>
      <point x="141.27" y="510.0"/>
      <point x="32.06" y="387.0"/>
      <point x="32.06" y="247.0" type="curve" smooth="yes"/>
      <point x="32.06" y="108.0"/>
      <point x="141.27" y="-12.0"/>
    </contour>
    <contour>
      <point x="302.0" y="93.0" type="curve" smooth="yes"/>
      <point x="230.3" y="93.0"/>
      <point x="174.53" y="143.0"/>
      <point x="174.53" y="247.0" type="curve" smooth="yes"/>
      <point x="174.53" y="352.0"/>
      <point x="230.3" y="402.0"/>
      <point x="302.0" y="402.0" type="curve" smooth="yes"/>
      <point x="373.7" y="402.0"/>
      <point x="429.46" y="352.0"/>
      <point x="429.46" y="247.0" type="curve" smooth="yes"/>
      <point x="429.46" y="143.0"/>
      <point x="373.7" y="93.0"/>
    </contour>
  </outline>
</glyph>
<glyph name="divide" format="2">
  <advance width="600"/>
  <unicode hex="00F7"/>
  <outline>
    <contour>
      <point x="34" y="202" type="line"/>
      <point x="561" y="202" type="line"/>
      <point x="561" y="318" type="line"/>
      <point x="34" y="318" type="line"/>
    </contour>
    <contour>
      <point x="207.36" y="-1" type="line"/>
      <point x="386.79" y="-1" type="line"/>
      <point x="386.79" y="148.18" type="line"/>
      <point x="207.36" y="148.18" type="line"/>
    </contour>
    <contour>
      <point x="208" y="398" type="line"/>
      <point x="386" y="398" type="line"/>
      <point x="386" y="546" type="line"/>
      <point x="208" y="546" type="line"/>
    </contour>
  </outline>
</glyph>
<glyph name="oslash" format="2">
  <advance width="584"/>
  <unicode hex="00F8"/>
  <anchor x="109" y="500" name="top"/>
  <anchor x="302" y="0" name="bottom"/>
  <anchor x="319" y="0" name="ogonek"/>
  <outline>
    <contour>
      <point x="367" y="685" type="line"/>
      <point x="118" y="-154" type="line"/>
      <point x="238" y="-154" type="line"/>
      <point x="487" y="685" type="line"/>
    </contour>
    <component base="o"/>
  </outline>
</glyph>
<glyph name="uacute" format="2">
  <advance width="601.0"/>
  <unicode hex="00FA"/>
  <note>
uacute
</note>
  <outline>
    <contour>
      <point x="441.0" y="648.0" type="line"/>
      <point x="364.0" y="776.0" type="line"/>
      <point x="151.0" y="577.0" type="line"/>
      <point x="269.0" y="541.0" type="line"/>
    </contour>
    <contour>
      <point x="399.0" y="50.66" type="curve"/>
      <point x="399.0" y="0.0" type="line"/>
      <point x="551.0" y="0.0" type="line"/>
      <point x="551.0" y="500.0" type="line"/>
      <point x="399.0" y="500.0" type="line"/>
      <point x="399.0" y="252.44" type="line" smooth="yes"/>
      <point x="396.18" y="125.63"/>
      <point x="334.44" y="101.0"/>
      <point x="280.0" y="101.0" type="curve" smooth="yes"/>
      <point x="218.0" y="101.0"/>
      <point x="197.0" y="139.0"/>
      <point x="197.0" y="206.0" type="curve" smooth="yes"/>
      <point x="197.0" y="500.0" type="line"/>
      <point x="45.0" y="500.0" type="line"/>
      <point x="45.0" y="206.0" type="line" smooth="yes"/>
      <point x="45.0" y="109.0"/>
      <point x="87.0" y="-7.0"/>
      <point x="269.0" y="-7.0" type="curve" smooth="yes"/>
      <point x="328.64" y="-7.0"/>
      <point x="371.27" y="14.99"/>
    </contour>
  </outline>
</glyph>
<glyph name="udieresis" format="2">
  <advance width="601.0"/>
  <unicode hex="00FC"/>
  <note>
udieresis
</note>
  <outline>
    <contour>
      <point x="97.0" y="561.0" type="line"/>
      <point x="251.0" y="561.0" type="line"/>
      <point x="251.0" y="685.0" type="line"/>
      <point x="97.0" y="685.0" type="line"/>
    </contour>
    <contour>
      <point x="345.0" y="561.0" type="line"/>
      <point x="499.0" y="561.0" type="line"/>
      <point x="499.0" y="685.0" type="line"/>
      <point x="345.0" y="685.0" type="line"/>
    </contour>
    <contour>
      <point x="399.0" y="50.66" type="curve"/>
      <point x="399.0" y="0.0" type="line"/>
      <point x="551.0" y="0.0" type="line"/>
      <point x="551.0" y="500.0" type="line"/>
      <point x="399.0" y="500.0" type="line"/>
      <point x="399.0" y="252.44" type="line" smooth="yes"/>
      <point x="396.18" y="125.63"/>
      <point x="334.44" y="101.0"/>
      <point x="280.0" y="101.0" type="curve" smooth="yes"/>
      <point x="218.0" y="101.0"/>
      <point x="197.0" y="139.0"/>
      <point x="197.0" y="206.0" type="curve" smooth="yes"/>
      <point x="197.0" y="500.0" type="line"/>
      <point x="45.0" y="500.0" type="line"/>
      <point x="45.0" y="206.0" type="line" smooth="yes"/>
      <point x="45.0" y="109.0"/>
      <point x="87.0" y="-7.0"/>
      <point x="269.0" y="-7.0" type="curve" smooth="yes"/>
      <point x="328.64" y="-7.0"/>
      <point x="371.27" y="14.99"/>
    </contour>
  </outline>
</glyph>
<glyph name="yacute" format="2">
  <advance width="578.0"/>
  <unicode hex="00FD"/>
  <note>
yacute
</note>
  <outline>
    <contour>
      <point x="430.0" y="645.0" type="line"/>
      <point x="353.0" y="773.0" type="line"/>
      <point x="140.0" y="574.0" type="line"/>
      <point x="258.0" y="538.0" type="line"/>
    </contour>
    <contour>
      <point x="15.0" y="500.0" type="line"/>
      <point x="229.42" y="65.36" type="line"/>
      <point x="121.0" y="-200.0" type="line"/>
      <point x="278.0" y="-200.0" type="line"/>
      <point x="563.0" y="500.0" type="line"/>
      <point x="407.0" y="500.0" type="line"/>
      <point x="303.53" y="246.76" type="line"/>
      <point x="182.0" y="500.0" type="line"/>
    </contour>
  </outline>
</glyph>
<glyph name="thorn" format="2">
  <advance width="563.0"/>
  <unicode hex="00FE"/>
  <note>
thorn
</note>
  <outline>
    <contour>
      <point x="294.0" y="511.0" type="curve" smooth="yes"/>
      <point x="246.11" y="511.0"/>
      <point x="208.06" y="499.96"/>
      <point x="178.0" y="481.75" type="curve"/>
      <point x="178.0" y="761.0" type="line"/>
      <point x="26.0" y="761.0" type="line"/>
      <point x="25.0" y="-191.0" type="line"/>
      <point x="178.0" y="-191.0" type="line"/>
      <point x="178.0" y="19.04" type="line"/>
      <point x="208.06" y="0.97"/>
      <point x="246.11" y="-10.0"/>
      <point x="294.0" y="-10.0" type="curve" smooth="yes"/>
      <point x="453.0" y="-10.0"/>
      <point x="558.0" y="108.0"/>
      <point x="558.0" y="249.0" type="curve" smooth="yes"/>
      <point x="558.0" y="391.0"/>
      <point x="454.0" y="511.0"/>
    </contour>
    <contour>
      <point x="294.0" y="100.0" type="curve" smooth="yes"/>
      <point x="225.0" y="100.0"/>
      <point x="168.0" y="152.0"/>
      <point x="168.0" y="249.0" type="curve" smooth="yes"/>
      <point x="168.0" y="348.0"/>
      <point x="225.0" y="400.0"/>
      <point x="294.0" y="400.0" type="curve" smooth="yes"/>
      <point x="357.0" y="400.0"/>
      <point x="405.0" y="339.0"/>
      <point x="405.0" y="249.0" type="curve" smooth="yes"/>
      <point x="405.0" y="161.0"/>
      <point x="357.0" y="100.0"/>
    </contour>
  </outline>
</glyph>
<glyph name="ydieresis" format="2">
  <advance width="578.0"/>
  <unicode hex="00FF"/>
  <note>
ydieresis
</note>
  <outline>
    <contour>
      <point x="86.0" y="558.0" type="line"/>
      <point x="240.0" y="558.0" type="line"/>
      <point x="240.0" y="682.0" type="line"/>
      <point x="86.0" y="682.0" type="line"/>
    </contour>
    <contour>
      <point x="334.0" y="558.0" type="line"/>
      <point x="488.0" y="558.0" type="line"/>
      <point x="488.0" y="682.0" type="line"/>
      <point x="334.0" y="682.0" type="line"/>
    </contour>
    <contour>
      <point x="15.0" y="500.0" type="line"/>
      <point x="229.42" y="65.36" type="line"/>
      <point x="121.0" y="-200.0" type="line"/>
      <point x="278.0" y="-200.0" type="line"/>
      <point x="563.0" y="500.0" type="line"/>
      <point x="407.0" y="500.0" type="line"/>
      <point x="303.53" y="246.76" type="line"/>
      <point x="182.0" y="500.0" type="line"/>
    </contour>
  </outline>
</glyph>
<glyph name="dcroat" format="2">
  <advance width="638"/>
  <unicode hex="0111"/>
  <anchor x="353" y="0" name="bottom"/>
  <anchor x="721" y="500" name="top"/>
  <outline>
    <contour>
      <point x="658" y="538" type="line"/>
      <point x="658" y="633" type="line"/>
      <point x="325" y="633" type="line"/>
      <point x="325" y="538" type="line"/>
    </contour>
    <component base="d"/>
  </outline>
</glyph>
<glyph name="Hbar" format="2">
  <advance width="823"/>
  <unicode hex="0126"/>
  <anchor x="412" y="0" name="bottom"/>
  <anchor x="412" y="700" name="top"/>
  <outline>
    <contour>
      <point x="803" y="484" type="line"/>
      <point x="803" y="609" type="line"/>
      <point x="20" y="609" type="line"/>
      <point x="20" y="484" type="line"/>
    </contour>
    <component base="H" xOffset="45"/>
  </outline>
</glyph>
<glyph name="hbar" format="2">
  <advance width="620"/>
  <unicode hex="0127"/>
  <anchor x="310" y="0" name="bottom"/>
  <anchor x="310" y="700" name="top"/>
  <outline>
    <contour>
      <point x="342" y="553" type="line"/>
      <point x="342" y="648" type="line"/>
      <point x="9" y="648" type="line"/>
      <point x="9" y="553" type="line"/>
    </contour>
    <component base="h"/>
  </outline>
</glyph>
<glyph name="dotlessi" format="2">
  <advance width="248.0"/>
  <unicode hex="0131"/>
  <note>
dotlessi
</note>
  <outline>
    <contour>
      <point x="48.0" y="0.0" type="line"/>
      <point x="200.0" y="0.0" type="line"/>
      <point x="200.0" y="500.0" type="line"/>
      <point x="48.0" y="500.0" type="line"/>
    </contour>
  </outline>
</glyph>
<glyph name="kgreenlandic" format="2">
  <advance width="581"/>
  <unicode hex="0138"/>
  <outline>
    <contour>
      <point x="50" y="0" type="line"/>
      <point x="202" y="0" type="line"/>
      <point x="202" y="150" type="line"/>
      <point x="175" y="96" type="line"/>
      <point x="325" y="254" type="line"/>
      <point x="219" y="260" type="line"/>
      <point x="391" y="0" type="line"/>
      <point x="561" y="0" type="line"/>
      <point x="321" y="365" type="line"/>
      <point x="325" y="254" type="line"/>
      <point x="554" y="500" type="line"/>
      <point x="384" y="500" type="line"/>
      <point x="186" y="292" type="line"/>
      <point x="202" y="292" type="line"/>
      <point x="202" y="500" type="line"/>
      <point x="50" y="500" type="line"/>
    </contour>
  </outline>
</glyph>
<glyph name="Lslash" format="2">
  <advance width="697"/>
  <unicode hex="0141"/>
  <outline>
    <contour>
      <point x="165" y="0" type="line"/>
      <point x="700" y="0" type="line"/>
      <point x="700" y="124" type="line"/>
      <point x="318" y="124" type="line"/>
      <point x="318" y="363.85" type="line"/>
      <point x="406" y="389" type="line"/>
      <point x="404" y="514" type="line"/>
      <point x="318" y="489.36" type="line"/>
      <point x="318" y="700" type="line"/>
      <point x="165" y="700" type="line"/>
      <point x="165" y="445.53" type="line"/>
      <point x="34" y="408" type="line"/>
      <point x="35" y="283" type="line"/>
      <point x="165" y="320.14" type="line"/>
    </contour>
  </outline>
</glyph>
<glyph name="lslash" format="2">
  <advance width="472"/>
  <unicode hex="0142"/>
  <outline>
    <contour>
      <point x="181" y="0" type="line"/>
      <point x="333" y="0" type="line"/>
      <point x="333" y="364.11" type="line"/>
      <point x="420" y="389" type="line"/>
      <point x="419" y="512" type="line"/>
      <point x="333" y="487.39" type="line"/>
      <point x="333" y="700" type="line"/>
      <point x="181" y="700" type="line"/>
      <point x="181" y="443.9" type="line"/>
      <point x="52" y="407" type="line"/>
      <point x="53" y="284" type="line"/>
      <point x="181" y="320.62" type="line"/>
    </contour>
  </outline>
</glyph>
<glyph name="Eng" format="2">
  <advance width="679"/>
  <unicode hex="014A"/>
  <anchor x="340" y="0" name="bottom"/>
  <anchor x="340" y="700" name="top"/>
  <outline>
    <contour>
      <point x="629" y="0" type="line"/>
      <point x="477" y="0" type="line"/>
      <point x="477" y="-65" type="line" smooth="yes"/>
      <point x="477" y="-99"/>
      <point x="461" y="-106"/>
      <point x="445" y="-106" type="curve" smooth="yes"/>
      <point x="423" y="-106"/>
      <point x="395" y="-97"/>
      <point x="369" y="-75" type="curve"/>
      <point x="369" y="-169" type="line"/>
      <point x="394" y="-185"/>
      <point x="429" y="-203"/>
      <point x="483" y="-203" type="curve" smooth="yes"/>
      <point x="556" y="-203"/>
      <point x="629" y="-159"/>
      <point x="629" y="-65" type="curve" smooth="yes"/>
    </contour>
    <component base="N"/>
  </outline>
</glyph>
<glyph name="eng" format="2">
  <advance width="600"/>
  <unicode hex="014B"/>
  <anchor x="300" y="0" name="bottom"/>
  <anchor x="290" y="500" name="top"/>
  <outline>
    <contour>
      <point x="570" y="0" type="line"/>
      <point x="415" y="0" type="line"/>
      <point x="415" y="-65" type="line" smooth="yes"/>
      <point x="415" y="-99"/>
      <point x="399" y="-106"/>
      <point x="383" y="-106" type="curve" smooth="yes"/>
      <point x="361" y="-106"/>
      <point x="333" y="-97"/>
      <point x="307" y="-75" type="curve"/>
      <point x="307" y="-169" type="line"/>
      <point x="332" y="-185"/>
      <point x="367" y="-203"/>
      <point x="421" y="-203" type="curve" smooth="yes"/>
      <point x="494" y="-203"/>
      <point x="570" y="-159"/>
      <point x="570" y="-65" type="curve" smooth="yes"/>
    </contour>
    <component base="n"/>
  </outline>
</glyph>
<glyph name="OE" format="2">
  <advance width="1157"/>
  <unicode hex="0152"/>
  <outline>
    <contour>
      <point x="384" y="-5" type="curve" smooth="yes"/>
      <point x="455.42" y="-5"/>
      <point x="520.87" y="13.26"/>
      <point x="574" y="42.49" type="curve"/>
      <point x="574" y="0" type="line"/>
      <point x="1153" y="0" type="line"/>
      <point x="1153" y="124" type="line"/>
      <point x="728" y="124" type="line"/>
      <point x="728" y="296" type="line"/>
      <point x="1133" y="296" type="line"/>
      <point x="1133" y="420" type="line"/>
      <point x="728" y="420" type="line"/>
      <point x="728" y="576" type="line"/>
      <point x="1143" y="576" type="line"/>
      <point x="1143" y="700" type="line"/>
      <point x="574" y="700" type="line"/>
      <point x="574" y="656.84" type="line"/>
      <point x="520.87" y="686.37"/>
      <point x="455.42" y="705"/>
      <point x="384" y="705" type="curve" smooth="yes"/>
      <point x="164" y="705"/>
      <point x="20" y="538"/>
      <point x="20" y="348" type="curve" smooth="yes"/>
      <point x="20" y="160"/>
      <point x="166" y="-5"/>
    </contour>
    <contour>
      <point x="384" y="109.99" type="curve" smooth="yes"/>
      <point x="259" y="110"/>
      <point x="174" y="206"/>
      <point x="174" y="348" type="curve" smooth="yes"/>
      <point x="174" y="492"/>
      <point x="260" y="590"/>
      <point x="384" y="590" type="curve" smooth="yes"/>
      <point x="473.07" y="590"/>
      <point x="541.83" y="540.24"/>
      <point x="574" y="459.53" type="curve"/>
      <point x="574" y="238.13" type="line"/>
      <point x="541.83" y="158.74"/>
      <point x="473.07" y="109.99"/>
    </contour>
  </outline>
</glyph>
